SplineFontDB: 3.2
FontName: RoystonRegular
FullName: Royston Regular
FamilyName: Royston
Weight: Regular
Copyright: Copyright (c) 2023, Bill Hails
UComments: "2023-1-27: Created with FontForge (http://fontforge.org)"
Version: 001.000
ItalicAngle: 0
UnderlinePosition: -204
UnderlineWidth: 102
Ascent: 1153
Descent: 895
InvalidEm: 0
LayerCount: 2
Layer: 0 0 "Back" 1
Layer: 1 0 "Fore" 0
XUID: [1021 524 1923241611 3393382]
FSType: 0
OS2Version: 0
OS2_WeightWidthSlopeOnly: 0
OS2_UseTypoMetrics: 1
CreationTime: 1674819720
ModificationTime: 1676657212
PfmFamily: 17
TTFWeight: 400
TTFWidth: 5
LineGap: 184
VLineGap: 0
OS2TypoAscent: 0
OS2TypoAOffset: 1
OS2TypoDescent: 0
OS2TypoDOffset: 1
OS2TypoLinegap: 184
OS2WinAscent: 0
OS2WinAOffset: 1
OS2WinDescent: 0
OS2WinDOffset: 1
HheadAscent: 0
HheadAOffset: 1
HheadDescent: 0
HheadDOffset: 1
OS2Vendor: 'PfEd'
OS2CodePages: 00000001.00000000
OS2UnicodeRanges: 00000001.00000000.00000000.00000000
Lookup: 258 0 0 "kerning" { "kerning-1" [100,0,4] } []
Lookup: 260 0 0 "accents" { "ring"  "tonos"  "accents-1"  } []
Lookup: 262 0 0 "markmark" { "markmark-1"  } []
MarkAttachClasses: 1
DEI: 91125
KernClass2: 24 17 "kerning-1"
 1 A
 7 D N O W
 23 J T Y Gamma Tau Upsilon
 9 K Q R U X
 1 P
 1 f
 11 b c e o p s
 5 t v w
 7 g q y z
 9 a i k l u
 9 C E G H I
 1 r
 1 B
 1 L
 1 S
 1 V
 1 Z
 1 F
 1 M
 1 d
 5 h m n
 1 j
 1 x
 1 A
 7 C G O Q
 31 B D E F H J K L M N P R S b h k
 15 a c d e g o q s
 5 U V W
 7 i m n r
 1 l
 1 f
 1 j
 7 I X Y Z
 1 T
 1 p
 1 t
 5 u v w
 5 x y z
 14 uni0394 Lambda

StartChar: A
Encoding: 65 65 0
Width: 713
VWidth: 1748
Flags: W
HStem: 779 74<247.352 399.758>
VStem: 93 74<230.323 611.465> 566 74<-15.686 377.537>
AnchorPoint: "ring-above" 335 821 basechar 0
AnchorPoint: "bottom" 593.289 2 basechar 0
AnchorPoint: "top" 327.289 958 basechar 0
LayerCount: 2
Fore
SplineSet
614 390 m 1
 615 387 640 61 640 36 c 0
 640 12 604 -25 579 -25 c 0
 572 -25 566 -20 566 -12 c 0
 563 53 545 289 537 382 c 1
 279 362 167 219 116 22 c 0
 108 -11 70 -35 50 -35 c 0
 43 -35 38 -31 38 -23 c 0
 38 -18 40 -11 46 -1 c 1
 86 142 93 341 93 344 c 0
 107 833 309 853 341 853 c 0
 560 853 600 565 609 459 c 1
 626 460 641 460 646 460 c 0
 654 460 658 455 658 448 c 0
 658 430 637 403 614 390 c 1
531 451 m 1
 512 591 455 779 294 779 c 0
 180 779 168 415 167 390 c 0
 166 346 161 285 154 225 c 1
 268 380 417 434 531 451 c 1
EndSplineSet
Validated: 1
EndChar

StartChar: at
Encoding: 64 64 1
Width: 651
Flags: W
HStem: -35 58<231.096 429.82> 72 59<275.899 337.228 421.283 445.637> 304 56<356.125 379.298> 405 58<229.179 421.48>
VStem: 73 58<123.735 306.553> 169 61<175.186 287.22> 401 60<187.475 292.093> 520 58<113.574 304.859>
LayerCount: 2
Fore
SplineSet
277 348 m 0
 296 348 313 322 358 247 c 0
 370 226 383 206 395 187 c 1
 399 200 401 213 401 226 c 0
 401 252 393 276 380 289 c 0
 365 304 352 300 348 304 c 0
 347 305 346 307 346 310 c 0
 346 325 373 360 403 360 c 0
 434 360 461 323 461 270 c 0
 461 232 448 188 421 151 c 1
 427 144 436 134 445 131 c 0
 446 131 l 0
 452 131 455 128 455 123 c 0
 455 107 427 72 403 72 c 0
 389 72 377 83 364 98 c 1
 338 82 312 76 287 76 c 0
 206 76 169 175 169 218 c 0
 169 275 231 348 277 348 c 0
338 135 m 1
 326 154 313 175 301 195 c 0
 271 246 249 280 236 288 c 1
 232 280 230 270 230 259 c 0
 230 208 271 135 331 135 c 2
 338 135 l 1
311 -35 m 0
 155 -35 73 73 73 190 c 0
 73 322 180 463 352 463 c 0
 498 463 578 353 578 235 c 0
 578 102 475 -35 311 -35 c 0
520 195 m 0
 520 303 449 405 314 405 c 0
 180 405 131 320 131 231 c 0
 131 132 197 23 349 23 c 0
 503 23 520 142 520 195 c 0
EndSplineSet
Validated: 1
EndChar

StartChar: question
Encoding: 63 63 2
Width: 497
Flags: W
HStem: -43 126<161.43 252.733> 161 89<260.562 289.057> 413 71<214.958 313.331> 778 75<130.944 322.939>
VStem: 41 75<678.546 753.308> 138 75<238.815 412.228> 147 120<-30.3352 69.7894> 372 75<544.173 731.052>
LayerCount: 2
Fore
SplineSet
221 484 m 2xfd
 267 484 316 499 338 521 c 0
 370 553 372 624 372 638 c 0
 372 736 287 778 210 778 c 0
 160 778 127 760 121 754 c 1
 116 739 116 739 116 731 c 0
 116 707 78 669 54 669 c 0
 46 669 41 673 41 682 c 0
 41 763 136 853 262 853 c 0
 358 853 447 799 447 688 c 0
 447 516 325 430 217 413 c 1
 216 397 213 351 213 313 c 0
 213 277 213 239 260 236 c 1
 272 246 283 250 291 250 c 0
 299 250 304 245 304 237 c 0
 304 214 261 161 212 161 c 0
 187 161 167 174 156 185 c 0
 144 197 138 203 138 267 c 0
 138 332 146 420 146 424 c 0
 148 449 184 484 207 484 c 2
 221 484 l 2xfd
188 -43 m 0
 166 -43 147 -27 147 -2 c 0
 147 33 190 83 227 83 c 0
 248 83 267 67 267 42 c 0xfb
 267 7 225 -43 188 -43 c 0
EndSplineSet
Validated: 1
EndChar

StartChar: greater
Encoding: 62 62 3
Width: 497
Flags: W
HStem: 73 77<86.1939 186.023>
VStem: 74 356
LayerCount: 2
Fore
SplineSet
74 348 m 0
 74 371 116 413 139 413 c 0
 142 413 294 337 423 294 c 0
 428 292 430 289 430 284 c 0
 430 269 413 242 389 227 c 0
 341 197 141 73 87 73 c 0
 79 73 75 78 75 85 c 0
 75 110 116 150 140 150 c 0
 165 150 304 231 313 237 c 1
 81 326 74 336 74 348 c 0
EndSplineSet
Validated: 1
EndChar

StartChar: equal
Encoding: 61 61 4
Width: 487
VWidth: 1988
Flags: W
HStem: 140 77<101.23 340.235> 276 77<101.23 340.235>
VStem: 78 329<140.875 196.116 276.875 332.085>
LayerCount: 2
Fore
SplineSet
241 140 m 0
 156 140 111 128 91 128 c 0
 82 128 78 130 78 138 c 0
 78 158 111 196 138 203 c 0
 163 209 234 217 296 217 c 0
 406 217 407 193 407 184 c 0
 407 157 363 118 341 118 c 0
 324 118 352 140 241 140 c 0
241 276 m 0
 156 276 111 264 91 264 c 0
 82 264 78 266 78 274 c 0
 78 294 111 332 138 339 c 0
 163 345 234 353 296 353 c 0
 406 353 407 330 407 320 c 0
 407 293 363 254 341 254 c 0
 324 254 352 276 241 276 c 0
EndSplineSet
Validated: 1
EndChar

StartChar: less
Encoding: 60 60 5
Width: 491
Flags: W
HStem: 337 76<312.404 409.806>
VStem: 66 356
LayerCount: 2
Fore
SplineSet
422 138 m 0
 422 115 379 73 357 73 c 0
 354 73 202 149 73 192 c 0
 68 194 66 198 66 203 c 0
 66 218 83 244 107 259 c 0
 169 298 357 413 409 413 c 0
 417 413 421 408 421 401 c 0
 421 376 380 337 356 337 c 0
 331 337 192 255 183 249 c 1
 414 160 422 150 422 138 c 0
EndSplineSet
Validated: 1
EndChar

StartChar: semicolon
Encoding: 59 59 6
Width: 291
Flags: W
HStem: 278 125<113.092 204.614>
VStem: 99 120<290.497 390.503> 118 83<-132.983 24.2305>
LayerCount: 2
Fore
SplineSet
53 -213 m 0xa0
 53 -200 68 -176 90 -158 c 1
 105 -122 117 -65 118 -32 c 0
 119 -8 168 41 192 41 c 0
 197 41 201 39 201 33 c 0
 201 10 189 -75 160 -133 c 0
 131 -192 82 -222 62 -222 c 0
 55 -222 53 -218 53 -213 c 0xa0
99 319 m 0xc0
 99 354 141 403 178 403 c 0
 199 403 219 387 219 362 c 0
 219 327 176 278 139 278 c 0
 117 278 99 294 99 319 c 0xc0
EndSplineSet
Validated: 1
EndChar

StartChar: colon
Encoding: 58 58 7
Width: 271
Flags: W
HStem: -63 126<89.0915 179.908> 278 125<90.0915 181.862>
VStem: 75 119<-50.5366 50.4252 289.307 389.399>
LayerCount: 2
Fore
SplineSet
116 278 m 0
 94 278 76 295 76 319 c 0
 76 354 118 403 155 403 c 0
 177 403 196 387 196 362 c 0
 196 327 154 278 116 278 c 0
154 63 m 0
 178 63 194 45 194 22 c 0
 194 -14 152 -63 115 -63 c 0
 93 -63 75 -46 75 -22 c 0
 75 14 117 63 154 63 c 0
EndSplineSet
Validated: 1
EndChar

StartChar: nine
Encoding: 57 57 8
Width: 507
Flags: W
HStem: 243 76<118.008 271.993> 498 75<238.258 368.367>
VStem: 65 75<280 410.455> 303 75<-33.7569 323.423>
AnchorPoint: "top" 331 858 basechar 0
AnchorPoint: "bottom" 345 -1 basechar 0
LayerCount: 2
Fore
SplineSet
369 449 m 0
 370 457 372 475 368 481 c 0
 364 487 338 498 307 498 c 0
 249 498 140 440 140 349 c 0
 140 329 162 319 192 319 c 0
 209 319 227 322 246 328 c 0
 334 356 349 394 369 449 c 0
357 573 m 0
 446 573 446 533 446 518 c 0
 446 446 378 287 378 101 c 0
 378 61 383 25 383 22 c 0
 383 -2 344 -41 320 -41 c 0
 311 -41 303 -41 303 51 c 0
 303 155 323 251 341 327 c 1
 278 273 198 243 141 243 c 0
 96 243 65 261 65 299 c 0
 65 433 240 573 357 573 c 0
EndSplineSet
Validated: 1
EndChar

StartChar: eight
Encoding: 56 56 9
Width: 512
VWidth: 1468
Flags: W
HStem: -40 75<145.001 237.244>
VStem: 69 76<0.5 169.632> 316 77<110.834 283.51>
AnchorPoint: "top" 240.974 855 basechar 0
AnchorPoint: "bottom" 120.974 1 basechar 0
LayerCount: 2
Fore
SplineSet
280 420 m 1
 306 445 334 471 365 496 c 1
 281 486 223 472 201 466 c 1
 232 452 258 436 280 420 c 1
216 349 m 1
 181 375 134 399 72 418 c 0
 57 422 64 448 86 470 c 0
 147 532 339 565 436 573 c 0
 450 574 455 560 455 536 c 0
 455 477 408 438 384 438 c 0
 379 438 375 440 373 444 c 1
 351 426 331 409 314 391 c 1
 385 322 393 246 393 216 c 0
 393 141 291 -40 98 -40 c 0
 80 -40 69 -18 69 19 c 0
 69 91 110 219 216 349 c 1
150 35 m 1
 260 37 316 99 316 174 c 0
 316 221 294 274 249 319 c 1
 168 213 145 116 145 67 c 0
 145 51 147 41 150 35 c 1
EndSplineSet
Validated: 1
EndChar

StartChar: seven
Encoding: 55 55 10
Width: 498
Flags: W
HStem: 498 75<109.554 284.255>
VStem: 196 78<-18.4541 245>
AnchorPoint: "top" 230 859 basechar 0
AnchorPoint: "bottom" 225 8 basechar 0
LayerCount: 2
Fore
SplineSet
368 550 m 0
 368 528 320 469 291 322 c 1
 445 331 394 349 430 349 c 0
 438 349 443 344 443 336 c 0
 443 326 436 311 421 296 c 0
 385 260 322 253 279 249 c 1
 274 209 271 164 271 116 c 0
 271 71 274 37 274 34 c 0
 274 10 235 -28 211 -28 c 0
 200 -28 196 -27 196 66 c 0
 196 132 201 192 210 245 c 1
 171 243 135 239 113 229 c 1
 114 232 l 1
 100 218 85 210 75 210 c 0
 67 210 62 214 62 223 c 0
 62 225 69 302 224 317 c 1
 243 399 269 458 285 491 c 1
 267 496 246 498 226 498 c 0
 149 498 99 475 77 475 c 0
 69 475 65 478 65 487 c 0
 65 506 93 541 119 549 c 0
 184 568 236 573 274 573 c 0
 296 573 368 569 368 550 c 0
EndSplineSet
Validated: 1
EndChar

StartChar: six
Encoding: 54 54 11
Width: 509
Flags: W
HStem: -34 75<153.891 319.866> 227 76<198 328.185> 498 75<292.186 364.997>
VStem: 66 75<56.1303 216.073> 369 75<81.1682 185.922>
AnchorPoint: "top" 248 859 basechar 0
AnchorPoint: "bottom" 206 2 basechar 0
LayerCount: 2
Fore
SplineSet
369 126 m 0
 369 210 229 225 166 227 c 1
 151 188 141 158 141 128 c 0
 141 51 205 41 240 41 c 0
 298 41 369 71 369 126 c 0
190 -34 m 0
 82 -34 66 36 66 78 c 0
 66 190 249 573 361 573 c 0
 376 573 375 563 375 560 c 0
 375 538 339 499 313 498 c 1
 269 457 199 305 198 303 c 1
 299 302 444 281 444 176 c 0
 444 90 328 -34 190 -34 c 0
EndSplineSet
Validated: 1
EndChar

StartChar: five
Encoding: 53 53 12
Width: 503
VWidth: 1468
Flags: W
HStem: -54 74<148.106 289.662> 254 75<231.102 343.855> 498 75<245.507 420.249>
VStem: 61 75<33.2802 146.666> 155 75<310 484.349> 356 75<86.2487 244.649>
AnchorPoint: "top" 272 860 basechar 0
AnchorPoint: "bottom" 188 -17 basechar 0
LayerCount: 2
Fore
SplineSet
430 560 m 0
 430 538 395 499 369 498 c 0
 317 497 276 494 244 487 c 1
 233 431 230 339 230 310 c 1
 254 319 290 329 325 329 c 0
 427 329 431 241 431 212 c 0
 431 68 293 -54 167 -54 c 0
 117 -54 61 -20 61 46 c 0
 61 103 106 177 144 177 c 0
 153 177 158 172 158 164 c 0
 158 146 136 129 136 95 c 0
 136 49 179 20 215 20 c 0
 277 20 356 57 356 163 c 0
 356 236 317 254 276 254 c 0
 224 254 184 228 166 228 c 0
 159 228 155 232 155 242 c 0
 155 249 155 303 160 362 c 0
 173 534 192 567 417 573 c 0
 430 573 430 563 430 560 c 0
EndSplineSet
Validated: 1
EndChar

StartChar: four
Encoding: 52 52 13
Width: 500
Flags: W
HStem: -35 79<299.419 349.617> 269 85<321.682 436.465> 553 20G<201 215 354.5 369>
VStem: 224 75<44.2705 233>
AnchorPoint: "top" 265 860 basechar 0
AnchorPoint: "bottom" 360 53 basechar 0
LayerCount: 2
Fore
SplineSet
268 -35 m 0
 224 -35 224 58 224 91 c 0
 224 145 231 198 236 233 c 1
 201 212 159 183 111 142 c 0
 98 131 86 125 77 125 c 0
 69 125 64 130 64 138 c 0
 64 139 64 140 64 141 c 0
 65 146 96 383 152 523 c 0
 161 547 191 573 211 573 c 0
 219 573 224 568 224 560 c 0
 224 557 181 456 145 227 c 1
 182 255 216 278 247 296 c 1
 260 361 279 436 305 519 c 0
 313 543 344 572 365 572 c 0
 373 572 378 568 378 560 c 0
 378 550 345 461 320 333 c 1
 356 348 384 354 405 354 c 0
 433 354 444 344 444 332 c 0
 444 307 403 269 382 269 c 0
 377 269 373 271 370 276 c 1
 367 279 363 280 357 280 c 0
 339 280 310 269 309 269 c 0
 302 217 299 175 299 141 c 0
 299 52 299 44 315 44 c 0
 317 44 319 44 321 44 c 1
 347 92 374 92 382 92 c 0
 390 92 395 88 395 80 c 0
 395 63 346 -35 268 -35 c 0
EndSplineSet
Validated: 1
EndChar

StartChar: three
Encoding: 51 51 14
Width: 499
Flags: W
HStem: -31 75<154.525 327.291> 498 75<128.984 284.452>
VStem: 60 371
AnchorPoint: "top" 232 854 basechar 0
AnchorPoint: "bottom" 211 -2 basechar 0
LayerCount: 2
Fore
SplineSet
60 50 m 0
 60 73 99 111 121 111 c 0
 125 111 129 110 131 107 c 2
 131 107 141 94 152 83 c 0
 188 47 218 44 255 44 c 0
 329 44 358 83 361 127 c 1
 156 268 l 2
 152 271 151 274 151 278 c 0
 151 309 242 378 286 476 c 1
 263 490 232 498 202 498 c 0
 169 498 136 489 114 467 c 0
 82 435 60 440 60 456 c 0
 60 489 145 573 251 573 c 0
 305 573 364 550 364 530 c 0
 364 501 315 413 239 326 c 1
 431 194 l 2
 436 191 436 184 436 181 c 0
 436 87 335 -31 208 -31 c 0
 92 -31 60 48 60 50 c 0
EndSplineSet
Validated: 1
EndChar

StartChar: two
Encoding: 50 50 15
Width: 499
Flags: W
HStem: 24 75<172.012 400.833> 498 75<192.772 335.08>
VStem: 356 76<317.629 479.726>
AnchorPoint: "top" 264 858 basechar 0
AnchorPoint: "bottom" 381 44 basechar 0
LayerCount: 2
Fore
SplineSet
432 68 m 0
 432 46 396 6 371 6 c 0
 363 6 328 24 275 24 c 0
 179 24 92 -41 67 -41 c 0
 59 -41 54 -36 54 -28 c 0
 54 -18 61 -3 76 12 c 0
 82 18 113 44 165 96 c 0
 243 174 356 302 356 390 c 0
 356 465 311 498 260 498 c 0
 226 498 191 484 166 459 c 0
 156 449 155 445 147 437 c 0
 121 411 94 409 94 428 c 0
 94 465 201 573 309 573 c 0
 423 573 431 467 431 439 c 0
 431 304 249 118 208 77 c 1
 246 90 284 99 323 99 c 0
 349 99 432 90 432 68 c 0
EndSplineSet
Validated: 1
EndChar

StartChar: one
Encoding: 49 49 16
Width: 486
Flags: W
HStem: -9 74<285 388.259> 553 20G<271 285>
VStem: 217 75<65 448>
AnchorPoint: "top" 255 854 basechar 0
AnchorPoint: "bottom" 247 19 basechar 0
LayerCount: 2
Fore
SplineSet
118 372 m 0
 104 372 102 383 102 386 c 0
 102 405 130 438 156 446 c 1
 185 477 225 536 226 537 c 0
 241 559 264 573 278 573 c 0
 292 573 292 573 292 368 c 0
 292 259 291 131 285 65 c 1
 343 65 379 69 393 77 c 0
 413 90 429 88 429 73 c 0
 429 58 412 33 390 19 c 0
 353 -5 307 -8 260 -9 c 1
 245 -26 228 -34 217 -34 c 0
 209 -34 204 -30 204 -22 c 0
 204 -21 205 -21 207 -10 c 1
 136 -11 104 -20 89 -29 c 0
 69 -41 53 -39 53 -24 c 0
 53 -22 58 53 213 63 c 1
 216 122 217 212 217 319 c 2
 217 448 l 1
 190 416 149 372 118 372 c 0
EndSplineSet
Validated: 1
EndChar

StartChar: zero
Encoding: 48 48 17
Width: 523
VWidth: 1468
Flags: W
HStem: -31 75<201.211 328.531> 500 73<214.249 323>
VStem: 79 75<158.967 410.888> 373 75<103.057 383.211 537.125 563.332>
AnchorPoint: "top" 246 855 basechar 0
AnchorPoint: "bottom" 247 1 basechar 0
LayerCount: 2
Fore
SplineSet
73 -13 m 0
 73 -6 73 -6 109 55 c 1
 89 100 79 159 79 220 c 0
 79 443 202 573 317 573 c 0
 329 573 352 571 379 537 c 1
 379 537 403 568 426 568 c 0
 435 568 440 563 440 555 c 0
 440 548 440 548 407 489 c 1
 418 464 448 388 448 278 c 0
 448 64 323 -31 216 -31 c 0
 198 -31 166 -26 137 9 c 1
 136 8 112 -26 86 -26 c 0
 78 -26 73 -22 73 -13 c 0
350 386 m 1
 300 296 238 183 190 99 c 1
 205 72 229 44 265 44 c 0
 322 44 341 66 357 114 c 0
 368 148 373 188 373 228 c 0
 373 283 364 339 350 386 c 1
167 158 m 1
 179 179 179 179 326 444 c 1
 306 483 282 500 258 500 c 0
 205 500 154 410 154 272 c 0
 154 232 158 193 167 158 c 1
EndSplineSet
Validated: 1
EndChar

StartChar: slash
Encoding: 47 47 18
Width: 558
Flags: W
HStem: -33 606
LayerCount: 2
Fore
SplineSet
69 11 m 0
 103 54 383 478 447 546 c 0
 464 565 481 573 491 573 c 0
 499 573 504 568 504 561 c 0
 504 552 497 539 483 523 c 0
 438 474 158 54 116 1 c 0
 100 -19 78 -33 65 -33 c 0
 49 -33 51 -12 69 11 c 0
EndSplineSet
Validated: 1
EndChar

StartChar: period
Encoding: 46 46 19
Width: 264
Flags: W
HStem: -62 125<80.3861 170.908>
VStem: 66 119<-49.5027 50.4252>
LayerCount: 2
Fore
SplineSet
146 63 m 0
 169 63 185 45 185 22 c 0
 185 -13 143 -62 106 -62 c 0
 84 -62 66 -46 66 -21 c 0
 66 15 109 63 146 63 c 0
EndSplineSet
Validated: 1
EndChar

StartChar: hyphen
Encoding: 45 45 20
Width: 484
VWidth: 1928
Flags: W
HStem: 216 77<99.2295 338.235>
VStem: 76 329<216.875 272.085>
LayerCount: 2
Fore
SplineSet
239 216 m 0
 154 216 109 204 89 204 c 0
 80 204 76 206 76 214 c 0
 76 234 109 272 136 279 c 0
 161 285 232 293 294 293 c 0
 404 293 405 270 405 260 c 0
 405 233 361 194 339 194 c 0
 322 194 350 216 239 216 c 0
EndSplineSet
Validated: 1
EndChar

StartChar: comma
Encoding: 44 44 21
Width: 285
Flags: W
HStem: -200 263
VStem: 121 83<-110.709 46.2305>
LayerCount: 2
Fore
SplineSet
56 -191 m 0
 56 -178 71 -155 93 -137 c 1
 108 -101 120 -43 121 -10 c 0
 122 14 171 63 195 63 c 0
 200 63 204 60 204 54 c 0
 204 31 192 -53 163 -111 c 0
 134 -170 85 -200 65 -200 c 0
 58 -200 56 -196 56 -191 c 0
EndSplineSet
Validated: 1
EndChar

StartChar: plus
Encoding: 43 43 22
Width: 461
Flags: W
HStem: 182 99<270.3 386.781> 191 76<76.8801 190>
VStem: 185 77<63.7617 202 281 396.599>
LayerCount: 2
Fore
SplineSet
190 203 m 1xa0
 143 201 97 195 82 191 c 0
 70 188 65 194 65 202 c 0
 65 222 98 260 125 267 c 0x60
 138 270 161 273 190 276 c 1
 190 296 191 315 191 330 c 0
 191 400 257 413 258 413 c 0
 269 413 269 409 269 386 c 0
 269 359 268 321 268 281 c 1
 273 281 278 281 283 281 c 0
 393 281 394 257 394 248 c 0
 394 221 350 182 328 182 c 0
 308 182 339 197 267 202 c 1
 266 147 265 123 262 113 c 0
 255 87 217 51 195 51 c 0
 188 51 185 55 185 62 c 0
 185 63 188 81 190 203 c 1xa0
EndSplineSet
Validated: 1
EndChar

StartChar: asterisk
Encoding: 42 42 23
Width: 496
Flags: W
HStem: 34 374
VStem: 212 78<344 400.002>
LayerCount: 2
Fore
SplineSet
395 122 m 0
 395 99 355 59 332 59 c 0
 329 59 325 61 323 63 c 0
 322 64 315 76 284 114 c 1
 278 88 239 51 216 51 c 0
 210 51 206 52 206 59 c 0
 206 61 209 88 209 96 c 2
 209 96 209 104 210 148 c 1
 150 81 139 64 131 57 c 0
 116 41 101 34 91 34 c 0
 82 34 77 39 77 47 c 0
 77 63 104 97 199 202 c 1
 157 200 117 195 103 191 c 0
 101 191 99 191 97 191 c 0
 89 191 86 196 86 202 c 0
 86 219 114 260 149 268 c 1
 95 326 81 335 81 336 c 0
 78 338 77 342 77 345 c 0
 77 368 117 408 140 408 c 0
 151 408 185 372 212 344 c 1
 212 345 l 2
 212 369 255 413 279 413 c 0
 290 413 290 409 290 386 c 0
 290 364 290 333 290 300 c 1
 370 385 395 407 415 407 c 0
 423 407 427 402 427 393 c 0
 427 383 420 369 405 353 c 0
 403 351 393 346 331 281 c 1
 410 277 415 260 415 248 c 0
 415 223 376 187 354 183 c 1
 377 154 395 132 395 122 c 0
EndSplineSet
Validated: 1
EndChar

StartChar: parenright
Encoding: 41 41 24
Width: 347
Flags: W
VStem: 228 75<251.319 644.321>
LayerCount: 2
Fore
SplineSet
303 465 m 0
 303 194 127 -7 93 -41 c 0
 79 -55 64 -63 53 -63 c 0
 41 -63 40 -54 40 -50 c 0
 40 -39 48 -24 61 -10 c 1
 61 -10 72 -1 95 30 c 0
 193 161 228 298 228 424 c 0
 228 642 122 829 44 896 c 0
 41 899 40 902 40 906 c 0
 40 931 77 968 101 968 c 0
 116 968 303 793 303 465 c 0
EndSplineSet
Validated: 1
EndChar

StartChar: parenleft
Encoding: 40 40 25
Width: 347
Flags: W
VStem: 46 74<285.351 674.65>
LayerCount: 2
Fore
SplineSet
46 464 m 0
 46 734 221 934 256 969 c 0
 270 982 285 990 296 990 c 0
 308 990 309 981 309 977 c 0
 309 946 271 938 206 825 c 0
 144 715 120 605 120 503 c 0
 120 278 235 91 305 31 c 0
 308 29 309 25 309 21 c 0
 309 -3 271 -41 247 -41 c 0
 232 -41 46 135 46 464 c 0
EndSplineSet
Validated: 1
EndChar

StartChar: quotesingle
Encoding: 39 39 26
Width: 404
Flags: W
HStem: 644 84<97.4809 213.419>
VStem: 80 240
LayerCount: 2
Fore
SplineSet
158 728 m 0
 183 728 205 733 218 740 c 1
 226 752 232 768 238 786 c 0
 247 813 291 853 312 853 c 0
 317 853 320 851 320 845 c 0
 320 821 246 644 94 644 c 0
 85 644 80 645 80 653 c 0
 80 674 126 728 158 728 c 0
EndSplineSet
Validated: 1
EndChar

StartChar: ampersand
Encoding: 38 38 27
Width: 724
Flags: W
HStem: -29 74<141.075 321.051> 779 74<145.431 256.12>
VStem: 60 74<51.8711 229.718 623.247 766.54> 266 75<576.327 771.17>
LayerCount: 2
Fore
SplineSet
669 380 m 0
 678 380 683 375 683 366 c 0
 683 349 596 225 502 135 c 1
 601 -33 603 -100 603 -102 c 0
 603 -125 567 -163 542 -163 c 0
 515 -163 553 -135 431 74 c 1
 327 -5 236 -29 163 -29 c 0
 125 -29 60 -21 60 72 c 0
 60 162 119 293 185 438 c 1
 70 599 57 625 57 647 c 0
 57 780 174 853 243 853 c 0
 341 853 341 759 341 726 c 0
 341 677 336 643 266 486 c 1
 354 363 419 271 479 174 c 1
 592 285 623 380 669 380 c 0
211 45 m 0
 269 45 335 62 407 113 c 1
 350 206 282 302 221 388 c 1
 172 277 134 181 134 119 c 0
 134 52 179 45 211 45 c 0
194 779 m 0
 144 779 131 737 131 695 c 0
 131 694 l 1
 135 678 146 656 229 538 c 1
 266 626 266 649 266 677 c 0
 266 736 254 779 194 779 c 0
EndSplineSet
Validated: 1
EndChar

StartChar: percent
Encoding: 37 37 28
Width: 596
Flags: W
HStem: 35 81<353.5 446.965> 178 81<386.265 445.575> 292 81<115.5 209.082> 435 81<149.265 207.608> 553 20G<496 505>
VStem: 66 81<374.476 434.209> 210 82<373.981 463> 303 82<117.172 177.209> 448 81<116.981 206>
LayerCount: 2
Fore
SplineSet
448 124 m 0
 446 175 391 178 385 178 c 1
 385 170 l 2
 385 142 403 116 438 116 c 0
 448 116 448 116 448 124 c 0
377 35 m 0
 330 35 303 67 303 108 c 0
 303 178 380 259 445 259 c 0
 497 259 529 228 529 184 c 0
 529 120 453 35 377 35 c 0
210 381 m 0
 208 432 154 435 148 435 c 1
 148 432 147 430 147 427 c 0
 147 399 166 373 201 373 c 0
 211 373 210 373 210 381 c 0
139 292 m 0
 92 292 66 324 66 365 c 0
 66 435 143 516 208 516 c 0
 260 516 292 485 292 441 c 0
 292 377 215 292 139 292 c 0
79 11 m 0
 113 54 393 478 457 546 c 0
 474 565 491 573 501 573 c 0
 509 573 514 568 514 561 c 0
 514 552 507 539 493 523 c 0
 448 474 168 54 126 1 c 0
 110 -19 88 -33 75 -33 c 0
 59 -33 61 -12 79 11 c 0
EndSplineSet
Validated: 1
EndChar

StartChar: dollar
Encoding: 36 36 29
Width: 688
Flags: W
HStem: 262 67<195.071 263.706> 440 63<207.146 322> 451 69<398 521> 553 20G<381 390.5>
VStem: 60 69<142.291 211.24> 99 69<357.77 414.238> 318 75<94 236 329 440 512 559.077> 490 103<409.854 449.831> 555 69<115.541 181.839>
LayerCount: 2
Fore
SplineSet
490 390 m 0xb7
 490 405 512 426 521 451 c 1
 475 451 433 450 396 447 c 1
 395 408 395 362 394 316 c 1
 527 289 624 249 624 175 c 0
 624 162 603 46 382 27 c 1
 376 3 342 -29 320 -29 c 0
 312 -29 308 -25 308 -17 c 2
 308 -17 310 -5 312 24 c 1
 135 24 60 85 60 164 c 0
 60 189 99 221 118 221 c 0
 125 221 129 218 129 209 c 0xba80
 129 115 266 97 315 94 c 1
 316 140 317 197 318 253 c 1
 297 257 278 260 263 262 c 0
 171 276 99 294 99 349 c 0
 99 377 118 407 137 426 c 0
 156 445 195 482 323 503 c 1xd6
 325 551 375 573 387 573 c 0
 394 573 399 569 399 561 c 2
 399 561 399 550 398 512 c 1
 448 517 509 520 581 520 c 0
 593 520 593 510 593 507 c 0
 593 467 536 377 504 377 c 0
 497 377 490 382 490 390 c 0xb7
322 440 m 1xd6
 244 430 193 415 168 399 c 1
 168 398 168 396 168 395 c 0
 168 353 268 337 320 329 c 1
 321 370 321 409 322 440 c 1xd6
389 93 m 1
 483 97 535 117 555 131 c 1x9280
 554 183 474 215 393 236 c 1
 392 182 391 132 389 93 c 1
EndSplineSet
Validated: 1
EndChar

StartChar: numbersign
Encoding: 35 35 30
Width: 566
Flags: W
HStem: 132 71<208 296.406> 141 74<209.457 298 379 478.314> 251 77<83.7667 141> 269 71<219 324> 283 78<408.356 485.482> 443 20G<210 225>
VStem: 126 75<39.6892 121> 159 74<344.395 453.787> 283 81<-41.8503 138.959>
LayerCount: 2
Fore
SplineSet
364 11 m 0x0d80
 364 -12 323 -51 301 -51 c 0
 292 -51 283 -47 283 -5 c 0
 283 42 294 119 298 141 c 1x4d80
 264 138 229 135 203 132 c 1
 202 114 201 99 201 92 c 0
 201 68 162 29 138 29 c 0
 130 29 126 33 126 41 c 0
 126 52 127 83 130 121 c 1
 118 119 108 117 97 115 c 0
 79 106 68 109 68 121 c 0
 68 138 94 177 135 189 c 1
 137 218 139 239 141 259 c 1
 125 256 111 254 97 251 c 0
 79 242 68 245 68 257 c 0
 68 258 75 311 147 328 c 1xa680
 151 363 155 392 159 408 c 0
 166 433 199 463 221 463 c 0
 229 463 233 459 233 451 c 0
 233 450 228 435 219 340 c 1x1580
 256 345 300 349 341 353 c 1
 347 379 367 458 417 458 c 0
 425 458 430 454 430 446 c 0
 430 445 417 401 407 358 c 1
 436 360 460 361 476 361 c 0
 489 361 497 362 497 350 c 0
 497 339 489 323 474 308 c 0
 452 286 452 286 391 283 c 1
 387 263 383 241 379 220 c 1
 420 223 455 225 476 225 c 0
 489 225 497 226 497 214 c 0
 497 189 456 148 432 148 c 0
 401 148 402 148 368 146 c 1
 361 95 358 64 358 45 c 0
 358 14 364 21 364 11 c 0x0d80
324 279 m 1
 268 275 223 270 213 269 c 1
 211 247 210 224 208 203 c 1x9480
 239 207 275 212 311 215 c 1
 315 237 320 259 324 279 c 1
EndSplineSet
Validated: 1
EndChar

StartChar: quotedbl
Encoding: 34 34 31
Width: 395
Flags: W
HStem: 576 277
VStem: 70 81<588.374 755.286> 227 89<582.666 833.816>
LayerCount: 2
Fore
SplineSet
316 643 m 0
 316 622 279 576 253 576 c 0
 238 576 227 590 227 633 c 0
 227 682 241 747 241 780 c 0
 241 823 293 853 308 853 c 0
 319 853 319 845 319 837 c 0
 319 801 305 730 305 686 c 0
 305 647 316 654 316 643 c 0
151 646 m 0
 151 624 112 579 88 579 c 0
 78 579 70 587 70 610 c 0
 70 624 73 639 77 655 c 0
 89 705 114 764 124 795 c 0
 132 820 168 853 189 853 c 0
 196 853 200 849 200 842 c 0
 200 825 148 714 148 665 c 0
 148 647 151 655 151 646 c 0
EndSplineSet
Validated: 1
EndChar

StartChar: exclam
Encoding: 33 33 32
Width: 248
Flags: W
HStem: -56 125<79.3861 170.614> 833 20G<141 156>
VStem: 65 120<-43.5027 56.4252> 78 75<156.138 833.375>
LayerCount: 2
Fore
SplineSet
153 618 m 0xd0
 153 448 162 246 162 215 c 0
 162 188 123 152 100 152 c 0
 87 152 87 162 87 166 c 0
 87 170 78 434 78 573 c 0
 78 674 81 751 90 795 c 0
 95 820 130 853 152 853 c 0
 160 853 165 849 165 841 c 0
 165 839 153 801 153 618 c 0xd0
145 69 m 0
 168 69 185 51 185 28 c 0
 185 -7 142 -56 105 -56 c 0
 83 -56 65 -40 65 -15 c 0xe0
 65 21 108 69 145 69 c 0
EndSplineSet
Validated: 1
EndChar

StartChar: B
Encoding: 66 66 35
Width: 588
VWidth: 1748
Flags: W
HStem: -38 74<265.48 423.816> 779 74<161.749 437.08>
VStem: 68 73<-30.1499 381.126> 84 73<179.917 710> 438 74<702.383 767.843> 455 74<65.7215 237.577>
AnchorPoint: "top" 302 960 basechar 0
AnchorPoint: "bottom" 332 2 basechar 0
LayerCount: 2
Fore
SplineSet
512 803 m 0xe8
 512 721 425 621 255 470 c 1
 459 348 529 307 529 179 c 0
 529 59 415 -38 313 -38 c 0
 264 -38 205 -14 166 39 c 0
 164 42 163 45 163 48 c 0
 163 71 202 109 224 109 c 0
 228 109 231 108 234 105 c 0
 234 105 242 94 252 84 c 0
 288 48 334 36 361 36 c 0
 445 36 455 101 455 132 c 0xc4
 455 244 370 295 232 375 c 0
 212 388 190 400 167 414 c 0
 163 416 161 421 161 426 c 0
 161 436 169 452 183 465 c 0
 190 472 272 542 339 609 c 0
 433 703 438 733 438 753 c 1
 409 777 304 779 302 779 c 0
 251 779 198 771 154 753 c 1
 156 711 157 655 157 594 c 0xd8
 157 356 142 28 141 20 c 0
 140 -4 105 -39 82 -39 c 0
 73 -39 68 -34 68 -25 c 0
 68 -24 l 0xe0
 68 -18 84 306 84 547 c 0xd0
 84 624 82 676 80 710 c 1
 73 707 67 705 63 705 c 0
 54 705 50 711 50 719 c 0
 50 730 58 746 74 761 c 1
 73 770 71 774 70 777 c 0
 68 779 68 782 68 785 c 0
 68 808 106 845 128 845 c 0
 133 845 137 843 139 839 c 0
 144 831 146 822 148 810 c 1
 218 844 290 853 347 853 c 0
 348 853 512 853 512 803 c 0xe8
EndSplineSet
Validated: 1
EndChar

StartChar: C
Encoding: 67 67 36
Width: 764
Flags: W
HStem: -35 73<249.081 524.457> 779 74<421 707.321>
VStem: 51 74<173.198 531.009>
AnchorPoint: "top" 350 959 basechar 0
AnchorPoint: "bottom" 338 -1 basechar 0
LayerCount: 2
Fore
SplineSet
51 309 m 0
 51 814 488 849 702 853 c 0
 715 853 716 842 716 839 c 0
 716 817 682 779 656 779 c 0
 513 777 318 756 219 657 c 0
 144 582 125 460 125 355 c 0
 125 195 192 38 382 38 c 0
 537 38 667 133 705 133 c 0
 712 133 716 129 716 121 c 0
 716 105 697 78 674 66 c 0
 537 -5 425 -35 336 -35 c 0
 74 -35 51 218 51 309 c 0
EndSplineSet
Validated: 1
EndChar

StartChar: D
Encoding: 68 68 37
Width: 760
VWidth: 1748
Flags: W
HStem: -37 74<248.588 447.966> 779 74<211.249 453.577>
VStem: 70 73<-33.1499 39.3481 140 378.126 546.197 547.51 592.434 741.335 783 832.717> 86 73<140 660> 633 74<245.666 576.672>
AnchorPoint: "top" 360 960 basechar 0
AnchorPoint: "bottom" 305 0 basechar 0
LayerCount: 2
Fore
SplineSet
315 -37 m 0xe8
 221 -37 168 12 145 40 c 1
 144 26 144 18 143 17 c 0
 142 -7 107 -42 84 -42 c 0
 75 -42 70 -38 70 -28 c 0
 70 -28 70 -28 70 -27 c 0xe8
 70 -21 86 303 86 544 c 0xd8
 86 591 85 629 84 660 c 1
 72 650 60 644 51 644 c 0
 47 644 43 645 41 647 c 0
 38 650 37 654 37 657 c 0
 37 676 66 707 81 721 c 1
 78 756 74 769 72 773 c 0
 70 776 70 779 70 782 c 0
 70 805 108 842 130 842 c 0
 135 842 139 840 142 835 c 0
 144 831 149 823 153 783 c 1
 221 830 294 853 363 853 c 0
 546 853 707 700 707 443 c 0
 707 99 442 -37 315 -37 c 0xe8
633 396 m 0
 633 642 474 779 315 779 c 0
 260 779 205 762 157 728 c 1
 159 689 159 642 159 590 c 0xd8
 159 442 153 258 149 140 c 1
 159 147 169 151 177 151 c 0
 181 151 184 150 187 148 c 0
 190 144 196 121 225 92 c 0
 274 44 334 37 362 37 c 0
 444 37 633 105 633 396 c 0
EndSplineSet
Validated: 1
EndChar

StartChar: E
Encoding: 69 69 38
Width: 713
VWidth: 1748
Flags: W
HStem: 55 77<293.351 583.372> 395 73<504.523 617.815> 411 75<287.569 593.429> 773 80<288.555 678.889>
VStem: 71 75<45 319.198 766.907 839.717> 87 74<136.481 349.843 384 722.529>
AnchorPoint: "bottom" 107 1 basechar 0
AnchorPoint: "top" 386 958 basechar 0
LayerCount: 2
Fore
SplineSet
159 708 m 1xb8
 160 675 161 638 161 597 c 0
 161 530 159 456 158 384 c 1
 266 461 402 486 502 486 c 0xb4
 556 486 599 479 621 468 c 0
 626 465 628 461 628 456 c 0
 628 434 591 395 567 395 c 0xd4
 565 395 562 395 560 397 c 0
 543 405 503 411 454 411 c 0
 277 411 176 340 156 325 c 1
 153 201 148 91 146 45 c 1xb8
 257 93 418 132 583 132 c 0
 591 132 595 128 595 121 c 0
 595 96 553 55 528 55 c 0
 360 55 194 10 101 -33 c 0
 95 -35 91 -37 87 -37 c 0xb4
 75 -37 71 -27 71 -21 c 0
 71 -20 l 0xb8
 71 -15 87 310 87 551 c 0xb4
 87 730 78 772 73 780 c 0
 72 783 71 786 71 789 c 0
 71 812 109 849 131 849 c 0
 136 849 140 847 143 842 c 0
 152 827 155 785 156 766 c 1
 319 839 463 853 567 853 c 0
 600 853 629 851 653 850 c 0
 686 848 688 848 688 837 c 0
 688 812 648 773 624 773 c 0
 624 773 624 773 623 773 c 0
 531 777 531 777 516 777 c 0
 389 777 273 755 159 708 c 1xb8
EndSplineSet
Validated: 1
EndChar

StartChar: F
Encoding: 70 70 39
Width: 732
VWidth: 1748
Flags: W
HStem: 399 73<514.523 628.068> 415 75<295.996 603.907> 773 80<307.329 697.889>
VStem: 72 74<-22.8739 314.659 757.421 842.948> 88 74<140.481 349.49 381 714.89>
AnchorPoint: "top" 427 960 basechar 0
AnchorPoint: "bottom" 107 9 basechar 0
LayerCount: 2
Fore
SplineSet
161 701 m 1x70
 161 670 162 637 162 601 c 0
 162 532 160 455 159 381 c 1
 268 463 410 490 512 490 c 0x68
 566 490 609 482 631 472 c 0
 636 469 638 465 638 460 c 0
 638 438 602 399 578 399 c 0xa8
 575 399 573 399 570 400 c 0
 553 409 514 415 464 415 c 0
 353 415 236 384 164 327 c 0
 162 325 159 324 157 322 c 0
 152 165 146 33 146 28 c 0
 145 4 110 -31 86 -31 c 0
 78 -31 72 -27 72 -18 c 0
 72 -17 72 -17 72 -16 c 0x70
 72 -11 88 314 88 555 c 0x68
 88 734 79 776 74 784 c 0
 73 787 72 790 72 793 c 0
 72 816 110 852 132 852 c 0
 137 852 141 851 144 846 c 0
 147 841 154 829 158 757 c 1
 161 759 164 760 167 762 c 0
 333 839 480 853 586 853 c 0
 619 853 648 851 672 850 c 0
 706 848 707 848 707 837 c 0
 707 812 667 773 643 773 c 0
 643 773 643 773 642 773 c 0
 550 777 550 777 535 777 c 0
 401 777 279 753 161 701 c 1x70
EndSplineSet
Validated: 1
EndChar

StartChar: G
Encoding: 71 71 40
Width: 751
Flags: W
HStem: -13 74<272.251 444.156> 388 91<583.636 710.707> 779 74<419.527 706.321>
VStem: 49 74<219.345 531.766> 518 74<144.361 401.88>
AnchorPoint: "bottom" 323 29 basechar 0
AnchorPoint: "top" 359 958 basechar 0
LayerCount: 2
Fore
SplineSet
716 449 m 0
 716 427 679 388 655 388 c 0
 646 388 638 399 581 403 c 1
 588 364 592 331 592 300 c 0
 592 84 428 -13 325 -13 c 0
 226 -13 49 111 49 310 c 0
 49 819 499 850 701 853 c 0
 714 853 715 842 715 839 c 0
 715 817 681 779 655 779 c 0
 511 777 316 756 217 657 c 0
 141 581 123 458 123 357 c 0
 123 180 286 61 371 61 c 0
 500 61 518 186 518 253 c 0
 518 331 496 395 496 403 c 1
 348 392 266 336 242 317 c 0
 219 299 197 299 197 317 c 0
 197 370 376 479 589 479 c 0
 593 479 716 479 716 449 c 0
EndSplineSet
Validated: 1
EndChar

StartChar: H
Encoding: 72 72 41
Width: 733
VWidth: 1448
Flags: W
HStem: -31 76<494.5 631.813> 383 69<539 670.847> 833 20G<121 134.5>
VStem: 72 72<182 393.445 564.291 589.164 611.618 843.103> 88 74<189.623 820.189> 459 77<49.9646 369> 495 76<461.311 834.78>
AnchorPoint: "bottom" 648 42 basechar 0
AnchorPoint: "top" 326 960 basechar 0
LayerCount: 2
Fore
SplineSet
582 45 m 0xe4
 596 45 614 45 623 48 c 1
 641 70 662 83 675 83 c 0
 683 83 687 78 687 71 c 0
 687 63 682 52 674 41 c 0
 619 -31 568 -31 530 -31 c 0
 459 -31 459 196 459 265 c 0
 459 299 460 334 461 369 c 1
 324 334 204 249 146 26 c 0
 138 -7 102 -31 83 -31 c 0
 76 -31 71 -28 71 -20 c 0
 71 -18 71 -15 72 -12 c 0xf4
 80 18 88 550 88 556 c 0xe8
 88 735 79 777 74 785 c 0
 73 788 72 791 72 794 c 0
 72 817 110 853 132 853 c 0
 137 853 141 852 144 847 c 0xf0
 150 837 162 810 162 602 c 0
 162 466 157 300 152 182 c 1
 246 338 377 405 464 433 c 1
 473 593 490 742 495 783 c 0
 498 808 535 845 559 845 c 0
 566 845 571 841 571 833 c 0xea
 571 828 547 651 539 452 c 1
 579 460 624 464 676 464 c 0
 684 464 688 459 688 452 c 0
 688 427 648 388 624 388 c 0
 593 388 564 386 536 383 c 1
 536 361 536 341 536 321 c 0
 536 67 574 45 582 45 c 0xe4
EndSplineSet
Validated: 1
EndChar

StartChar: I
Encoding: 73 73 42
Width: 597
VWidth: 1748
Flags: W
HStem: -46 21G<40 51> 46 77<307.52 542.554> 776 77<315.627 542.554>
VStem: 243 73<98 744.481>
AnchorPoint: "bottom" 255 -2 basechar 0
AnchorPoint: "top" 271 961 basechar 0
LayerCount: 2
Fore
SplineSet
488 776 m 0
 428 776 369 770 313 761 c 1
 315 718 316 662 316 601 c 0
 316 428 308 209 304 98 c 1
 379 113 460 123 543 123 c 0
 551 123 554 119 554 112 c 0
 554 87 512 46 488 46 c 0
 424 46 360 39 301 29 c 1
 299 -1 262 -32 241 -32 c 0
 232 -32 227 -27 227 -18 c 0
 227 -17 l 2
 227 -17 227 -6 228 14 c 1
 107 -15 59 -46 43 -46 c 0
 37 -46 35 -42 35 -34 c 0
 35 7 99 44 231 80 c 1
 239 273 243 438 243 554 c 0
 243 656 240 714 236 746 c 1
 110 717 60 684 43 684 c 0
 37 684 35 687 35 696 c 0
 35 733 89 771 233 810 c 1
 241 825 265 851 284 851 c 0
 293 851 301 845 305 828 c 1
 380 843 461 853 543 853 c 0
 551 853 554 849 554 842 c 0
 554 817 512 776 488 776 c 0
EndSplineSet
Validated: 1
EndChar

StartChar: J
Encoding: 74 74 43
Width: 719
Flags: W
HStem: -51 75<216.982 370.456> 368 74<173.856 248.249> 777 76<408.53 688.101>
VStem: 83 75<85.0885 344.248> 421 75<102.916 538.566>
AnchorPoint: "bottom" 261 -16 basechar 0
AnchorPoint: "top" 308 958 basechar 0
LayerCount: 2
Fore
SplineSet
560 777 m 0
 512 777 460 776 406 772 c 1
 467 594 496 437 496 310 c 0
 496 19 341 -51 261 -51 c 0
 88 -51 83 146 83 168 c 0
 83 405 217 442 242 442 c 0
 254 442 258 437 258 429 c 0
 258 408 223 368 197 368 c 0
 174 368 158 282 158 216 c 0
 158 99 223 24 308 24 c 0
 334 24 356 31 368 43 c 0
 420 95 421 243 421 261 c 0
 421 390 390 561 316 761 c 1
 129 733 55 678 33 678 c 0
 27 678 25 682 25 691 c 0
 25 708 46 737 70 749 c 0
 237 834 436 853 611 853 c 0
 697 853 697 852 697 839 c 0
 697 814 658 776 634 776 c 0
 633 776 623 777 560 777 c 0
EndSplineSet
Validated: 1
EndChar

StartChar: K
Encoding: 75 75 44
Width: 941
Flags: W
HStem: -21 74<610.383 839.253> 779 74<578.969 729.656>
VStem: 72 73<-21.8342 141.897 607.574 843.948> 88 73<249 793.905>
AnchorPoint: "top" 528 966 basechar 0
AnchorPoint: "bottom" 702 14 basechar 0
LayerCount: 2
Fore
SplineSet
72 794 m 0xe0
 72 817 110 853 132 853 c 0
 136 853 139 852 142 849 c 0
 156 835 161 742 161 601 c 0xd0
 161 503 158 383 154 249 c 1
 320 685 536 853 724 853 c 0
 733 853 738 847 738 839 c 0
 738 815 702 779 678 779 c 0
 569 779 475 717 385 590 c 1
 385 579 l 2
 385 395 508 53 724 53 c 0
 766 53 809 57 835 68 c 1
 849 87 870 101 884 101 c 0
 896 101 898 91 898 87 c 0
 898 85 890 -21 678 -21 c 0
 454 -21 335 284 315 475 c 1
 218 294 160 86 145 23 c 0
 139 -1 108 -30 86 -30 c 0
 77 -30 72 -25 72 -15 c 0xe0
 72 -9 88 315 88 556 c 0xd0
 88 789 72 792 72 794 c 0xe0
EndSplineSet
Validated: 1
EndChar

StartChar: L
Encoding: 76 76 45
Width: 630
VWidth: 1748
Flags: W
HStem: 59 78<284.642 577.554> 833 20G<120 134.5>
VStem: 70 77<53 387.037 611.618 843.918> 88 73<99.7945 819.488>
AnchorPoint: "top" 332 962 basechar 0
AnchorPoint: "bottom" 106 12 basechar 0
LayerCount: 2
Fore
SplineSet
523 59 m 0xe0
 273 59 91 -32 81 -32 c 0
 71 -32 70 -24 70 -21 c 0xe0
 70 -15 88 243 88 556 c 0
 88 797 72 781 72 793 c 0
 72 817 108 853 132 853 c 0
 137 853 141 851 144 847 c 0
 150 837 161 810 161 602 c 0xd0
 161 400 150 133 147 53 c 1
 258 99 416 137 578 137 c 0
 586 137 589 132 589 125 c 0
 589 101 547 59 523 59 c 0xe0
EndSplineSet
Validated: 1
EndChar

StartChar: M
Encoding: 77 77 46
Width: 1089
VWidth: 1748
Flags: W
HStem: -23 76<862.5 999.813> 494 74<372.221 582.042> 832 20G<122.5 135 919.5 930>
VStem: 72 74<-22.3818 388.126> 88 73<187.332 657.592> 827 77<57.7537 714.751>
AnchorPoint: "top" 497 963 basechar 0
AnchorPoint: "bottom" 913 17 basechar 0
LayerCount: 2
Fore
SplineSet
827 274 m 0xf4
 827 439 845 628 855 729 c 1
 761 631 597 494 427 494 c 0
 319 494 203 615 161 662 c 1
 161 643 161 622 161 601 c 0xec
 161 363 146 36 146 27 c 0
 144 3 110 -31 86 -31 c 0
 77 -31 72 -27 72 -18 c 0
 72 -17 72 -17 72 -17 c 0xf4
 72 -11 88 313 88 554 c 0xec
 88 710 81 762 76 779 c 1
 73 783 72 788 72 793 c 0
 72 821 112 852 133 852 c 0
 137 852 140 851 143 849 c 0
 145 846 184 772 265 691 c 0
 376 580 449 568 476 568 c 0
 686 568 873 816 875 820 c 0
 891 840 913 853 926 853 c 0
 934 853 938 849 938 841 c 0
 938 840 938 839 938 838 c 0
 916 651 904 470 904 329 c 0
 904 75 942 53 950 53 c 0
 964 53 982 53 991 56 c 1
 1009 79 1030 91 1043 91 c 0
 1051 91 1055 86 1055 79 c 0
 1055 71 1050 60 1042 49 c 0
 987 -23 936 -23 898 -23 c 0
 827 -23 827 204 827 274 c 0xf4
EndSplineSet
Validated: 1
EndChar

StartChar: N
Encoding: 78 78 47
Width: 996
VWidth: 1748
Flags: W
HStem: -31 74<608.631 767.463> 774 75<677.478 784.824> 833 20G<121 341>
VStem: 72 74<-22.9494 388.202> 88 74<187.917 765.629> 862 75<194.9 654.424>
AnchorPoint: "bottom" 675 1 basechar 0
AnchorPoint: "top" 485 960 basechar 0
LayerCount: 2
Fore
SplineSet
88 555 m 0xcc
 88 800 72 780 72 792 c 0
 72 817 109 853 133 853 c 0xb4
 549 853 378 43 706 43 c 0
 755 43 780 66 801 102 c 0
 859 198 862 341 862 375 c 0
 862 529 828 774 727 774 c 0
 673 774 643 708 608 708 c 0
 596 708 595 717 595 721 c 0
 595 756 701 849 775 849 c 0
 932 849 937 472 937 424 c 0
 937 143 799 -31 657 -31 c 0
 323 -31 452 671 158 767 c 1
 161 724 162 666 162 602 c 0xcc
 162 364 146 36 146 28 c 0
 145 4 110 -31 86 -31 c 0
 78 -31 72 -26 72 -17 c 0xd4
 72 -11 88 312 88 555 c 0xcc
EndSplineSet
Validated: 1
EndChar

StartChar: O
Encoding: 79 79 48
Width: 769
VWidth: 1748
Flags: W
HStem: -14 74<290.291 507.737> 779 74<310.974 479.602>
VStem: 49 74<237 533.74> 641 74<226.581 567.33>
AnchorPoint: "bottom" 386 20 basechar 0
AnchorPoint: "top" 398 959 basechar 0
LayerCount: 2
Fore
SplineSet
641 410 m 0
 641 543 530 779 380 779 c 0
 258 779 123 604 123 380 c 0
 123 225 255 60 419 60 c 0
 607 60 641 263 641 410 c 0
49 334 m 0
 49 636 273 853 427 853 c 0
 598 853 715 606 715 456 c 0
 715 84 496 -14 371 -14 c 0
 192 -14 49 159 49 334 c 0
EndSplineSet
Validated: 1
EndChar

StartChar: P
Encoding: 80 80 49
Width: 580
VWidth: 1748
Flags: W
HStem: 367 72<160 294.543> 777 75<159.638 405.417>
VStem: 72 86<-17.6602 364.391 730.052 763.671> 88 73<149.739 372.507 439 728.392> 470 75<568.8 718.27>
AnchorPoint: "top" 326 960 basechar 0
AnchorPoint: "bottom" 107 11 basechar 0
LayerCount: 2
Fore
SplineSet
88 556 m 0xd8
 88 642 86 696 83 730 c 1
 73 731 72 739 72 743 c 0
 72 749 75 757 79 764 c 1
 75 790 72 784 72 793 c 0
 72 817 108 853 132 853 c 0
 141 853 147 850 152 818 c 1
 207 843 261 852 310 852 c 0
 436 852 545 789 545 693 c 0
 545 531 360 389 158 367 c 1
 153 192 146 34 146 29 c 0
 145 5 110 -30 86 -30 c 0
 78 -30 72 -26 72 -16 c 0xe8
 72 -11 88 312 88 556 c 0xd8
259 777 m 0
 226 777 191 772 158 761 c 1xe8
 160 718 161 663 161 602 c 0xd8
 161 551 161 495 160 439 c 1
 228 439 470 475 470 643 c 0
 470 722 369 777 259 777 c 0
EndSplineSet
Validated: 1
EndChar

StartChar: Q
Encoding: 81 81 50
Width: 913
VWidth: 1748
Flags: W
HStem: -14 73<290.291 484.346 598.361 814.271> 249 70<337.853 398.548> 779 74<310.974 479.602>
VStem: 49 74<236.884 533.74> 641 74<226.277 567.33>
AnchorPoint: "top" 404 960 basechar 0
AnchorPoint: "bottom" 704 24 basechar 0
LayerCount: 2
Fore
SplineSet
875 94 m 0
 875 92 867 -13 655 -13 c 0
 594 -13 552 3 522 28 c 1
 469 -3 414 -14 371 -14 c 0
 192 -14 49 159 49 334 c 0
 49 636 273 853 427 853 c 0
 598 853 715 606 715 456 c 0
 715 276 664 160 597 88 c 1
 622 71 655 61 701 61 c 0
 743 61 786 64 812 75 c 1
 826 94 847 108 861 108 c 0
 873 108 875 98 875 94 c 0
563 120 m 1
 627 191 641 313 641 410 c 0
 641 543 530 779 380 779 c 0
 258 779 123 604 123 380 c 0
 123 225 255 59 419 59 c 0
 443 59 466 63 485 69 c 1
 448 122 434 187 400 221 c 0
 369 252 340 240 331 249 c 0
 328 252 327 255 327 259 c 0
 327 281 363 319 388 319 c 0
 502 319 501 196 563 120 c 1
EndSplineSet
Validated: 1
EndChar

StartChar: R
Encoding: 82 82 51
Width: 726
VWidth: 1748
Flags: W
HStem: -30 73<427.422 629.253> 777 75<158.473 399.417>
VStem: 71 74<-21.1499 257.562 730 768.562> 87 73<149.739 269 439 728.392> 464 75<571.404 718.27>
AnchorPoint: "bottom" 104 7 basechar 0
AnchorPoint: "top" 323 959 basechar 0
LayerCount: 2
Fore
SplineSet
87 556 m 0xd8
 87 642 85 696 82 730 c 1
 81 730 80 730 79 730 c 0
 67 730 66 739 66 743 c 0
 66 750 70 760 77 770 c 1
 74 789 71 785 71 793 c 0
 71 817 107 853 131 853 c 0
 139 853 146 850 151 820 c 1
 204 843 256 852 304 852 c 0
 430 852 539 789 539 693 c 0
 539 549 390 413 196 374 c 1
 294 220 407 43 514 43 c 0
 557 43 599 48 625 58 c 1
 639 78 660 91 674 91 c 0
 687 91 688 81 688 77 c 0
 688 75 680 -30 468 -30 c 0
 357 -30 260 104 154 269 c 1
 150 137 145 33 145 29 c 0
 143 5 109 -30 85 -30 c 0
 76 -30 71 -26 71 -16 c 0xe8
 71 -11 87 312 87 556 c 0xd8
253 777 m 0
 221 777 189 772 157 762 c 1
 159 720 160 664 160 602 c 0xd8
 160 551 160 495 159 439 c 1
 220 440 464 475 464 643 c 0
 464 722 363 777 253 777 c 0
EndSplineSet
Validated: 1
EndChar

StartChar: S
Encoding: 83 83 52
Width: 638
Flags: W
HStem: -39 74<79.9891 298.762> 779 74<391.345 588.99>
VStem: 101 74<449.672 603.179> 482 74<160.655 283.439> 521 87<734.083 778.755>
AnchorPoint: "bottom" 159 2 basechar 0
AnchorPoint: "top" 315 957 basechar 0
LayerCount: 2
Fore
SplineSet
184 35 m 0xf0
 276 35 482 109 482 215 c 0xf0
 482 390 101 264 101 471 c 0
 101 666 346 853 570 853 c 0
 581 853 608 846 608 816 c 0
 608 778 568 721 535 721 c 0
 526 721 521 725 521 734 c 0
 521 754 549 774 521 779 c 1xe8
 375 779 175 679 175 518 c 0
 175 343 556 465 556 263 c 0
 556 104 298 -39 139 -39 c 0
 51 -39 38 4 38 30 c 0
 38 56 77 91 99 91 c 0
 125 91 90 35 184 35 c 0xf0
EndSplineSet
Validated: 1
EndChar

StartChar: T
Encoding: 84 84 53
Width: 717
VWidth: 1748
Flags: W
HStem: 810 76<400.671 688.222>
VStem: 314 74<-8.94944 402.09> 330 74<182.293 793.763>
AnchorPoint: "bottom" 351 27 basechar 0
AnchorPoint: "top" 358 960 basechar 0
LayerCount: 2
Fore
SplineSet
314 -3 m 0xc0
 314 2 330 326 330 569 c 0
 330 730 323 780 318 795 c 1
 130 767 57 712 35 712 c 0
 29 712 26 716 26 725 c 0
 26 742 47 770 72 782 c 0
 239 867 437 886 612 886 c 0
 698 886 698 885 698 872 c 0
 698 848 659 810 635 810 c 0
 612 810 588 811 562 811 c 0
 511 811 455 809 398 804 c 1
 402 760 404 692 404 615 c 0xa0
 404 377 388 50 388 42 c 0
 387 18 352 -17 328 -17 c 0
 320 -17 314 -12 314 -3 c 0xc0
EndSplineSet
Validated: 1
EndChar

StartChar: U
Encoding: 85 85 54
Width: 890
VWidth: 1748
Flags: W
HStem: -23 74<183.267 336.209 685.578 777.279> 833 20G<660.5 674.5>
VStem: 54 75<112.858 521.614> 609 74<78.5493 402 556.731 843.624> 773 76<52.4182 112.646>
AnchorPoint: "ring-above" 412 777 basechar 0
AnchorPoint: "bottom" 815.562 72 basechar 0
AnchorPoint: "top" 430.562 959 basechar 0
LayerCount: 2
Fore
SplineSet
54 263 m 0
 54 478 137 703 206 703 c 0
 215 703 221 698 221 689 c 0
 221 682 217 673 208 661 c 0
 164 602 129 447 129 308 c 0
 129 173 162 54 251 53 c 0
 252 53 253 53 254 53 c 0
 331 53 374 93 391 110 c 0
 567 287 609 787 609 794 c 0
 611 823 650 853 671 853 c 0
 678 853 683 849 683 840 c 0
 683 839 683 839 683 838 c 0
 683 833 673 669 673 490 c 0
 673 293 685 51 747 51 c 0
 756 51 765 55 773 59 c 0
 773 60 l 0
 773 85 811 121 833 121 c 0
 849 121 849 102 849 100 c 0
 849 57 776 -23 693 -23 c 0
 660 -23 603 -1 599 402 c 1
 480 26 293 -21 207 -21 c 0
 69 -21 54 178 54 263 c 0
EndSplineSet
Validated: 1
EndChar

StartChar: V
Encoding: 86 86 55
Width: 717
VWidth: 1748
Flags: W
HStem: -21 74<185.518 333.69> 833 20G<658 674.5>
VStem: 55 74<115.469 520.931> 610 74<596.086 844.351>
AnchorPoint: "top" 433 958 basechar 0
AnchorPoint: "bottom" 219 23 basechar 0
LayerCount: 2
Fore
SplineSet
55 263 m 0
 55 491 140 703 207 703 c 0
 225 703 225 683 208 661 c 0
 134 562 129 314 129 310 c 0
 129 173 164 54 251 53 c 0
 252 53 253 53 254 53 c 0
 331 53 374 93 391 110 c 0
 567 287 609 787 610 794 c 0
 612 819 646 853 670 853 c 0
 679 853 684 848 684 838 c 0
 661 535 531 -21 209 -21 c 0
 77 -21 55 149 55 263 c 0
EndSplineSet
Validated: 1
EndChar

StartChar: W
Encoding: 87 87 56
Width: 1317
VWidth: 1748
Flags: W
HStem: -30 73<182.616 290.171 881.902 1067.31> 217 74<479.696 621.588> 779 74<828.836 1041.84>
VStem: 55 74<106.066 512.358> 1186 74<205.476 590.394>
AnchorPoint: "bottom" 941 0 basechar 0
AnchorPoint: "top" 599 955 basechar 0
LayerCount: 2
Fore
SplineSet
207 694 m 0
 211 694 221 693 221 681 c 0
 221 658 198 652 171 572 c 0
 145 494 129 394 129 301 c 0
 129 194 148 50 252 43 c 1
 313 45 423 291 586 291 c 0
 720 291 827 43 984 43 c 0
 1174 43 1186 308 1186 376 c 0
 1186 574 1099 779 936 779 c 0
 823 779 731 711 715 662 c 0
 707 638 677 612 656 612 c 0
 648 612 643 616 643 625 c 0
 643 675 779 853 983 853 c 0
 1166 853 1260 637 1260 424 c 0
 1260 147 1109 -30 938 -30 c 0
 763 -30 657 217 537 217 c 0
 421 217 333 -30 204 -30 c 0
 160 -30 55 -3 55 254 c 0
 55 482 140 694 207 694 c 0
EndSplineSet
Validated: 1
EndChar

StartChar: X
Encoding: 88 88 57
Width: 922
Flags: W
HStem: -22 74<577.29 834.432> 832 20G<90.5 104 684 700>
VStem: 41 72<764.863 842.068>
AnchorPoint: "top" 385 959 basechar 0
AnchorPoint: "bottom" 674 18 basechar 0
LayerCount: 2
Fore
SplineSet
41 792 m 0
 41 816 80 852 101 852 c 0
 107 852 111 849 113 844 c 0
 171 708 241 544 321 400 c 1
 637 846 672 853 696 853 c 0
 704 853 708 848 708 841 c 0
 708 825 708 825 669 786 c 0
 606 723 396 427 346 357 c 1
 456 172 573 52 693 52 c 0
 858 52 835 89 867 89 c 0
 876 89 881 84 881 75 c 0
 881 72 877 -22 647 -22 c 4
 557 -21 392 104 288 274 c 1
 199 146 126 38 108 9 c 0
 95 -12 69 -34 51 -34 c 0
 44 -34 39 -30 39 -22 c 0
 39 -2 176 193 263 317 c 1
 153 509 41 787 41 792 c 0
EndSplineSet
Validated: 1
EndChar

StartChar: Y
Encoding: 89 89 58
Width: 734
Flags: W
HStem: 833 20G<99.5 114.5>
VStem: 39 82<668.499 837.449>
AnchorPoint: "bottom" 75 -2 basechar 0
AnchorPoint: "top" 402 958 basechar 0
LayerCount: 2
Fore
SplineSet
699 850 m 0
 707 850 711 846 711 839 c 0
 711 823 711 823 671 783 c 0
 580 692 166 97 110 6 c 0
 97 -15 72 -37 54 -37 c 0
 47 -37 41 -33 41 -25 c 0
 41 0 295 357 347 430 c 1
 64 448 39 693 39 780 c 0
 39 804 87 853 112 853 c 0
 117 853 121 851 121 845 c 0
 131 615 246 525 407 513 c 1
 627 817 672 850 699 850 c 0
EndSplineSet
Validated: 1
EndChar

StartChar: Z
Encoding: 90 90 59
Width: 831
VWidth: 1748
Flags: W
HStem: -26 74<503.538 734.253> -26 43<39.0576 50> 80 74<170.838 383.791> 708 73<38.5938 380.224> 833 20G<605.5 670.5>
AnchorPoint: "bottom" 596 11 basechar 0
AnchorPoint: "top" 382 958 basechar 0
LayerCount: 2
Fore
SplineSet
573 -26 m 0xb8
 453 -26 374 80 263 80 c 0
 152 80 89 -26 51 -26 c 0
 39 -26 38 -16 38 -12 c 0
 38 -4 42 7 50 17 c 2x78
 50 17 194 207 337 402 c 0
 450 557 564 717 600 779 c 1
 470 771 260 708 129 708 c 0
 123 708 37 708 37 736 c 0
 37 760 73 795 97 795 c 0
 108 795 115 781 175 781 c 0
 303 781 545 853 666 853 c 0
 675 853 682 847 682 837 c 0
 682 782 353 343 186 121 c 1
 232 145 272 154 309 154 c 0
 433 154 513 48 620 48 c 0
 662 48 704 52 730 63 c 1
 744 82 765 95 779 95 c 0
 792 95 793 86 793 82 c 0
 793 79 785 -26 573 -26 c 0xb8
EndSplineSet
Validated: 1
EndChar

StartChar: bracketleft
Encoding: 91 91 60
Width: 393
Flags: W
HStem: -32 80<156 336.339> 778 74<157 330.249>
VStem: 82 263<-25.4062 43.987 786.206 847.212> 82 74<44 778>
LayerCount: 2
Fore
SplineSet
345 30 m 0xe0
 345 8 307 -32 284 -32 c 0
 283 -32 274 -26 224 -26 c 0
 175 -26 112 -30 97 -31 c 0
 87 -32 82 -27 82 -18 c 2xe0
 83 791 l 2
 83 815 119 852 143 852 c 2
 326 853 l 2
 335 853 340 847 340 840 c 0
 340 818 305 779 279 779 c 2
 157 778 l 1
 156 44 l 1xd0
 186 46 231 48 269 48 c 0
 332 48 345 44 345 30 c 0xe0
EndSplineSet
Validated: 1
EndChar

StartChar: backslash
Encoding: 92 92 61
Width: 690
Flags: W
HStem: -32 75<556.014 634.855> 834 20G<99 112.5>
VStem: 46 75<783.001 842.095>
LayerCount: 2
Fore
SplineSet
581 -32 m 0
 541 -32 506 -10 469 27 c 0
 360 136 282 296 48 783 c 0
 47 785 46 787 46 790 c 0
 46 814 88 854 110 854 c 0
 115 854 119 852 121 847 c 0
 138 812 155 776 172 741 c 0
 331 408 505 43 632 43 c 0
 640 43 645 38 645 31 c 0
 645 6 605 -32 581 -32 c 0
EndSplineSet
Validated: 1
EndChar

StartChar: bracketright
Encoding: 93 93 62
Width: 396
Flags: W
HStem: -32 75<61.6784 236> 773 80<56.0814 237>
VStem: 53 258<-26.2119 38.2119 777.205 846.562> 236 75<43 777>
LayerCount: 2
Fore
SplineSet
48 792 m 0xd0
 48 814 86 853 109 853 c 0
 110 853 119 847 169 847 c 0
 218 847 281 852 296 853 c 0
 306 854 311 848 311 839 c 2
 311 30 l 2
 311 6 274 -31 250 -31 c 2
 67 -32 l 2
 58 -32 53 -26 53 -18 c 0xe0
 53 6 90 43 114 43 c 2
 236 43 l 1
 237 777 l 1
 207 775 162 773 124 773 c 0
 51 773 48 782 48 792 c 0xd0
EndSplineSet
Validated: 1
EndChar

StartChar: asciicircum
Encoding: 94 94 63
Width: 520
Flags: W
HStem: 594 82<88.2722 152.859> 833 20G<263.5 283>
VStem: 78 361<610 667>
AnchorPoint: "mkmk" 255 945 mark 0
AnchorPoint: "mkmk" 238 572 basemark 0
AnchorPoint: "top" 241 640 mark 0
LayerCount: 2
Fore
SplineSet
153 674 m 1
 177 713 199 771 207 795 c 0
 216 822 254 853 273 853 c 0
 293 853 313 759 365 707 c 0
 408 664 439 688 439 667 c 0
 439 645 399 600 370 600 c 0
 306 600 267 655 235 722 c 1
 185 625 133 594 102 594 c 0
 85 594 78 600 78 610 c 0
 78 634 119 676 144 676 c 0
 147 676 150 676 153 674 c 1
EndSplineSet
Validated: 1
EndChar

StartChar: underscore
Encoding: 95 95 64
Width: 743
Flags: W
HStem: -29 86<75.0535 543.912> -18 81<241.193 654.805>
VStem: 67 598<-11.671 45.6597>
LayerCount: 2
Fore
SplineSet
67 -6 m 0xa0
 67 15 106 57 130 57 c 0xa0
 143 57 138 46 236 46 c 0
 346 46 507 63 597 63 c 0
 665 63 665 53 665 46 c 0
 665 25 626 -18 601 -18 c 0x60
 600 -18 588 -13 548 -13 c 0
 462 -13 298 -29 185 -29 c 0
 67 -29 67 -12 67 -6 c 0xa0
EndSplineSet
Validated: 1
EndChar

StartChar: grave
Encoding: 96 96 65
Width: 329
Flags: W
HStem: 634 219<114.441 185.953>
VStem: 87 157<655.125 732.314> 87 131<716.501 831.613>
AnchorPoint: "mkmk" 156 962 mark 0
AnchorPoint: "mkmk" 164 569 basemark 0
AnchorPoint: "top" 168 697 mark 0
LayerCount: 2
Fore
SplineSet
158 634 m 0xc0
 110 634 87 769 87 771 c 0
 87 794 145 853 169 853 c 0
 184 853 186 765 218 733 c 0xa0
 233 718 244 727 244 716 c 0
 244 696 193 634 158 634 c 0xc0
EndSplineSet
Validated: 1
EndChar

StartChar: a
Encoding: 97 97 66
Width: 762
VWidth: 1368
Flags: W
HStem: -22 74<182.501 364.792 556 654.368> 389 74<201.864 378.067 485.819 524.208>
VStem: 51 74<108.766 309.642> 477 125<398.364 457.063>
AnchorPoint: "ring-above" 297 428 basechar 0
AnchorPoint: "bottom" 685 72 basechar 0
AnchorPoint: "top" 321 643 basechar 0
LayerCount: 2
Fore
SplineSet
125 227 m 0
 125 145 169 52 285 52 c 0
 360 52 417 88 469 194 c 1
 446 266 399 389 279 389 c 0
 203 389 125 340 125 227 c 0
490 389 m 0
 481 389 477 394 477 402 c 0
 477 439 537 473 574 473 c 0
 584 473 602 467 602 443 c 0
 602 411 585 323 547 237 c 1
 553 218 558 199 563 182 c 0
 588 92 603 53 629 53 c 0
 634 53 639 54 644 56 c 1
 658 93 691 108 704 108 c 0
 712 108 717 104 717 95 c 0
 717 61 650 -22 581 -22 c 0
 531 -22 516 30 488 130 c 1
 394 -3 290 -22 239 -22 c 0
 97 -22 51 85 51 181 c 0
 51 334 194 463 326 463 c 0
 446 463 496 365 515 323 c 1
 530 382 526 392 530 393 c 1
 527 396 527 396 525 398 c 0
 508 394 498 389 490 389 c 0
EndSplineSet
Validated: 1
EndChar

StartChar: b
Encoding: 98 98 67
Width: 649
Flags: W
HStem: -31 74<224.276 448.666> 388 74<197.957 472.974> 833 20G<153 171.5>
VStem: 68 74<128.107 352.981> 105 75<405.761 781 784.141 844.551> 513 74<103.512 348.933>
AnchorPoint: "top" 413 956 basechar 0
AnchorPoint: "bottom" 325 8 basechar 0
LayerCount: 2
Fore
SplineSet
310 388 m 0xf4
 170 388 142 333 142 235 c 0
 142 130 241 43 318 43 c 0
 341 43 441 45 480 84 c 0
 502 106 513 152 513 222 c 0
 513 330 496 388 310 388 c 0xf4
180 817 m 0xec
 180 765 174 689 152 392 c 1
 219 453 298 462 357 462 c 0
 561 462 587 393 587 265 c 0
 587 13 402 -31 270 -31 c 0
 225 -31 179 -10 142 24 c 1
 139 0 104 -34 81 -34 c 0
 73 -34 68 -29 68 -20 c 2
 68 187 l 2xf4
 68 242 105 674 105 771 c 2
 105 781 l 1
 106 784 l 1
 104 787 103 790 103 793 c 0
 103 816 142 853 164 853 c 0
 179 853 180 838 180 817 c 0xec
EndSplineSet
Validated: 1
EndChar

StartChar: c
Encoding: 99 99 68
Width: 629
Flags: W
HStem: -30 74<213.757 441.976> 388 75<238.885 490>
VStem: 48 74<131.501 311.717>
AnchorPoint: "top" 321 643 basechar 0
AnchorPoint: "bottom" 290 -1 basechar 0
LayerCount: 2
Fore
SplineSet
555 137 m 0
 564 137 569 131 569 123 c 0
 569 112 561 96 543 80 c 0
 479 23 410 -30 290 -30 c 0
 156 -30 48 64 48 187 c 0
 48 245 66 302 118 354 c 0
 209 445 352 463 557 463 c 0
 565 463 569 457 569 448 c 0
 569 415 510 317 469 317 c 0
 450 317 452 340 472 363 c 0
 481 374 486 382 490 388 c 1
 151 386 122 320 122 238 c 0
 122 126 224 44 338 44 c 0
 489 44 513 137 555 137 c 0
EndSplineSet
Validated: 1
EndChar

StartChar: d
Encoding: 100 100 69
Width: 639
Flags: W
HStem: -31 74<198.744 433.048> 388 73<266.075 490> 833 20G<539 555>
VStem: 43 74<127.546 299.662> 490 74<95.5194 388 461 843.686>
AnchorPoint: "bottom" 296 0 basechar 0
AnchorPoint: "top" 291 962 basechar 0
LayerCount: 2
Fore
SplineSet
43 186 m 0
 43 237 63 290 111 338 c 0
 152 379 244 451 490 461 c 1
 490 792 l 2
 490 816 527 853 551 853 c 0
 559 853 564 849 564 840 c 2
 564 235 l 2
 564 200 561 118 492 49 c 0
 414 -29 313 -31 252 -31 c 0
 132 -31 43 81 43 186 c 0
292 43 m 0
 435 43 490 65 490 187 c 2
 490 388 l 1
 288 386 179 344 142 307 c 0
 126 291 117 264 117 235 c 0
 117 130 215 43 292 43 c 0
EndSplineSet
Validated: 1
EndChar

StartChar: e
Encoding: 101 101 70
Width: 639
Flags: W
HStem: -30 74<212.795 442.043> 197 75<218.355 473.322> 388 75<263.134 506.999>
VStem: 47 74<129.824 302.564> 507 75<306.176 440>
AnchorPoint: "bottom" 296 2 basechar 0
AnchorPoint: "top" 331 644 basechar 0
LayerCount: 2
Fore
SplineSet
337 44 m 0
 432 44 472 78 519 117 c 0
 535 130 548 135 556 135 c 0
 565 135 569 129 569 122 c 0
 569 109 557 90 540 76 c 0
 478 24 411 -30 289 -30 c 0
 147 -30 47 73 47 187 c 0
 47 239 67 293 115 341 c 0
 175 401 287 463 552 463 c 0
 561 463 582 463 582 417 c 0
 582 333 501 197 345 197 c 0
 290 197 236 213 189 232 c 0
 184 234 182 239 182 244 c 0
 182 265 213 304 244 304 c 0
 276 304 311 272 395 272 c 0
 486 272 507 322 507 369 c 0
 507 377 506 383 504 388 c 1
 284 388 180 343 147 310 c 0
 131 294 121 267 121 236 c 0
 121 133 217 44 337 44 c 0
EndSplineSet
Validated: 1
EndChar

StartChar: f
Encoding: 102 102 71
Width: 430
Flags: W
HStem: -846 73<12.0641 131.681> -21 104<261.1 415.717> 8 75<56.8721 165 259 361.859> 779 74<296.625 412.719>
VStem: 141 74<87.6693 642.171> 222 73<-625.049 -42.4812>
LayerCount: 2
Fore
SplineSet
55 52 m 0xbc
 95 62 131 70 165 75 c 1
 152 159 141 264 141 369 c 0
 141 532 168 695 260 787 c 0
 308 834 360 853 408 853 c 0
 418 853 422 848 422 840 c 0
 422 819 389 779 362 779 c 0
 329 779 245 779 220 534 c 0
 217 497 215 457 215 415 c 0
 215 312 226 198 246 83 c 1xbc
 254 83 262 83 270 83 c 0
 339 83 390 70 417 51 c 0
 420 48 422 44 422 39 c 0
 422 17 385 -21 362 -21 c 0xdc
 359 -21 356 -20 353 -18 c 0
 336 -6 304 5 259 8 c 1
 280 -110 295 -238 295 -358 c 0
 295 -530 264 -686 173 -777 c 0
 122 -827 67 -846 17 -846 c 0
 7 -846 3 -841 3 -834 c 0
 3 -813 35 -773 63 -773 c 0
 98 -773 185 -773 214 -541 c 0
 219 -496 222 -450 222 -403 c 0
 222 -281 205 -149 177 8 c 1
 85 0 37 -20 16 -20 c 0
 12 -20 9 -19 7 -17 c 0
 4 -14 3 -11 3 -7 c 0
 3 13 30 45 55 52 c 0xbc
EndSplineSet
Validated: 1
EndChar

StartChar: g
Encoding: 103 103 72
Width: 661
Flags: W
HStem: -846 73<216.959 373.176> -194 82<200.512 396.695> -30 73<196.918 384.246> 389 73<175.019 352.433 477.481 572>
VStem: 49 74<-648.865 -302.18 119.763 331.223> 499 73<-544.961 96.0796> 523 74<298.615 391>
AnchorPoint: "top" 297 643 basechar 0
AnchorPoint: "bottom" 314 -148 basechar 0
LayerCount: 2
Fore
SplineSet
404 -132 m 0xfc
 404 -153 369 -194 344 -194 c 0
 343 -194 311 -186 283 -186 c 0
 251 -186 217 -193 192 -218 c 0
 125 -285 123 -434 123 -452 c 0
 123 -610 188 -773 299 -773 c 0
 348 -773 374 -755 390 -739 c 0
 490 -639 499 -340 499 -240 c 0xfc
 499 -214 499 -215 498 -17 c 2
 498 -16 l 2
 498 18 494 57 486 98 c 1
 402 -13 305 -30 253 -30 c 0
 111 -30 51 93 51 188 c 0
 51 352 165 462 299 462 c 0
 409 462 476 372 512 296 c 1
 520 334 523 367 523 385 c 0
 523 387 523 389 523 391 c 2
 524 394 l 1
 519 398 515 399 514 399 c 0
 513 399 464 362 464 396 c 0
 464 427 523 473 562 473 c 0
 582 473 597 462 597 430 c 0xfa
 597 385 583 292 546 205 c 1
 569 124 572 112 572 -189 c 0
 572 -382 552 -530 505 -642 c 0
 444 -786 344 -846 253 -846 c 0
 120 -846 49 -673 49 -500 c 0
 49 -255 186 -112 328 -112 c 0
 354 -112 404 -114 404 -132 c 0xfc
125 234 m 0
 125 158 174 43 299 43 c 0
 375 43 427 78 469 164 c 1
 427 298 350 389 253 389 c 0
 198 389 125 375 125 234 c 0
EndSplineSet
Validated: 1
EndChar

StartChar: h
Encoding: 104 104 73
Width: 646
VWidth: 1748
Flags: W
HStem: 379 74<299.864 428.688> 833 20G<120.5 146>
VStem: 87 74<205.152 793.859>
AnchorPoint: "bottom" 551 0 basechar 0
AnchorPoint: "top" 381 957 basechar 0
LayerCount: 2
Fore
SplineSet
87 556 m 0
 87 789 71 791 71 794 c 0
 71 817 110 853 131 853 c 0
 161 853 161 711 161 602 c 0
 161 474 156 319 152 203 c 1
 234 405 334 453 411 453 c 0
 597 453 540 74 579 35 c 0
 581 33 585 35 589 31 c 0
 591 28 593 25 593 21 c 0
 593 -1 557 -40 532 -40 c 0
 497 -40 493 9 486 101 c 0
 477 217 465 379 363 379 c 0
 320 379 300 359 293 352 c 0
 229 288 185 113 142 17 c 0
 132 -10 101 -30 84 -30 c 0
 76 -30 71 -26 71 -18 c 0
 71 -12 87 295 87 556 c 0
EndSplineSet
Validated: 1
EndChar

StartChar: j
Encoding: 106 106 75
Width: 621
VWidth: 1013
Flags: W
HStem: -849 74<195.177 351.873> -196 82<178.368 374.656> 548 125<121.386 212.908>
VStem: 27 74<-651.178 -302.376> 107 120<560.497 660.503> 477 73<-547.785 192.296>
LayerCount: 2
Fore
SplineSet
107 589 m 0
 107 624 150 673 187 673 c 0
 208 673 227 657 227 632 c 0
 227 597 185 548 148 548 c 0
 126 548 107 564 107 589 c 0
382 -135 m 0
 382 -157 347 -196 322 -196 c 0
 316 -196 294 -188 261 -188 c 0
 228 -188 194 -196 170 -221 c 0
 103 -288 101 -437 101 -454 c 0
 101 -613 167 -775 277 -775 c 0
 326 -775 352 -758 368 -742 c 0
 468 -641 477 -343 477 -242 c 0
 477 -217 477 -217 476 -19 c 0
 476 133 444 240 311 390 c 0
 308 393 307 396 307 400 c 0
 307 423 344 460 367 460 c 0
 371 460 375 459 378 456 c 0
 514 303 550 187 550 27 c 0
 550 -116 550 -189 550 -191 c 0
 550 -384 530 -533 483 -645 c 0
 423 -789 322 -849 231 -849 c 0
 98 -849 27 -675 27 -502 c 0
 27 -257 164 -114 306 -114 c 0
 314 -114 382 -115 382 -135 c 0
EndSplineSet
Validated: 1
EndChar

StartChar: k
Encoding: 107 107 76
Width: 631
VWidth: 1748
Flags: W
HStem: -31 75<459.35 583.857> 443 20G<435 446.5> 833 20G<120.5 146>
VStem: 71 90<99 408.487 566.754 848.133> 87 74<124.704 822.619> 299 74<129.374 294.289>
AnchorPoint: "bottom" 558 10 basechar 0
AnchorPoint: "top" 370 958 basechar 0
LayerCount: 2
Fore
SplineSet
87 556 m 0xec
 87 789 71 791 71 794 c 0
 71 817 110 853 131 853 c 0
 161 853 161 711 161 602 c 0
 161 430 153 210 148 99 c 1
 393 430 l 2
 407 449 428 463 442 463 c 0
 451 463 455 457 455 450 c 0
 455 420 373 351 373 238 c 0
 373 120 473 44 579 44 c 0
 588 44 593 38 593 30 c 0
 593 8 557 -31 531 -31 c 0
 410 -31 299 54 299 190 c 0
 299 203 299 216 301 229 c 1
 137 7 l 1
 123 -16 99 -30 84 -30 c 0
 76 -30 71 -26 71 -17 c 0xf4
 71 -12 87 300 87 556 c 0xec
EndSplineSet
Validated: 1
EndChar

StartChar: l
Encoding: 108 108 77
Width: 327
Flags: W
HStem: -23 76<163.525 228.572> 833 20G<152.5 168>
VStem: 65 76<61.4873 714.945>
AnchorPoint: "top" 154 958 basechar 0
AnchorPoint: "bottom" 145 24 basechar 0
LayerCount: 2
Fore
SplineSet
293 79 m 0
 293 69 252 -23 147 -23 c 0
 143 -23 140 -23 136 -23 c 0
 65 -23 65 204 65 274 c 0
 65 485 94 736 100 792 c 0
 103 816 141 853 164 853 c 0
 172 853 176 849 176 841 c 0
 176 836 141 570 141 329 c 0
 141 75 180 53 188 53 c 0
 202 53 220 53 229 56 c 1
 246 79 268 91 281 91 c 0
 291 91 293 83 293 79 c 0
EndSplineSet
Validated: 1
EndChar

StartChar: m
Encoding: 109 109 78
Width: 1067
Flags: W
HStem: -28 165<58.4424 121.996> 389 74<683.993 815.606>
AnchorPoint: "top" 509 646 basechar 0
AnchorPoint: "bottom" 972 11 basechar 0
LayerCount: 2
Fore
SplineSet
792 463 m 0
 977 463 953 92 997 48 c 0
 1000 45 1003 48 1008 43 c 0
 1011 40 1012 37 1012 33 c 0
 1012 11 977 -28 951 -28 c 0
 867 -28 915 389 744 389 c 0
 705 389 688 372 683 367 c 0
 594 278 572 -33 478 -33 c 0
 472 -33 466 -31 461 -26 c 0
 422 13 330 322 263 362 c 1
 229 278 218 103 190 37 c 0
 171 -8 133 -28 115 -28 c 0
 49 -28 48 66 48 76 c 0
 48 100 85 137 109 137 c 0
 117 137 122 133 122 124 c 1
 122 124 123 90 135 67 c 1
 179 308 179 308 201 355 c 0
 242 439 300 440 301 440 c 0
 357 440 407 322 467 173 c 0
 481 139 493 108 504 84 c 1
 558 258 627 463 792 463 c 0
EndSplineSet
Validated: 1
EndChar

StartChar: n
Encoding: 110 110 79
Width: 691
Flags: W
HStem: -30 165<58.4424 121.996>
VStem: 48 596<31 74>
AnchorPoint: "bottom" 595 8 basechar 0
AnchorPoint: "top" 371 645 basechar 0
LayerCount: 2
Fore
SplineSet
576 -33 m 0
 563 -33 554 -25 551 -22 c 0
 494 35 426 372 343 388 c 1
 268 287 217 -30 115 -30 c 0
 49 -30 48 64 48 74 c 0
 48 98 85 135 109 135 c 0
 117 135 122 131 122 122 c 2
 122 122 123 73 144 52 c 1
 155 76 170 119 183 155 c 0
 232 290 294 463 388 463 c 0
 501 463 569 80 622 43 c 1
 626 44 628 44 631 44 c 0
 640 44 644 39 644 31 c 0
 644 5 605 -33 576 -33 c 0
EndSplineSet
Validated: 1
EndChar

StartChar: o
Encoding: 111 111 80
Width: 634
Flags: W
HStem: -31 74<206.478 429.231> 389 74<181.21 454.974>
VStem: 50 74<127.714 335.528> 495 74<103.925 349.695>
AnchorPoint: "bottom" 306 -1 basechar 0
AnchorPoint: "top" 325 645 basechar 0
LayerCount: 2
Fore
SplineSet
569 266 m 0
 569 14 384 -31 252 -31 c 0
 156 -31 50 65 50 188 c 0
 50 227 53 312 125 384 c 0
 193 452 277 463 339 463 c 0
 543 463 569 394 569 266 c 0
292 389 m 0
 152 389 124 333 124 235 c 0
 124 130 222 43 299 43 c 0
 322 43 423 45 462 84 c 0
 484 106 495 152 495 222 c 0
 495 330 478 389 292 389 c 0
EndSplineSet
Validated: 1
EndChar

StartChar: p
Encoding: 112 112 81
Width: 641
Flags: W
HStem: -31 74<215.399 438.231> 389 74<189.989 463.974>
VStem: 59 74<126.496 335.325> 94 74<-786.562 -167.355> 504 74<103.925 349.695>
AnchorPoint: "top" 325.185 644 basechar 0
AnchorPoint: "bottom" 327.185 1 basechar 0
LayerCount: 2
Fore
SplineSet
133 232 m 1xe8
 135 128 232 43 308 43 c 0
 331 43 432 45 471 84 c 0
 493 106 504 152 504 222 c 0
 504 330 487 389 301 389 c 0
 160 389 133 332 133 236 c 2
 133 232 l 1xe8
578 266 m 0
 578 14 393 -31 261 -31 c 0
 220 -31 177 -13 142 16 c 1
 168 -432 168 -438 168 -552 c 0
 168 -659 161 -732 144 -775 c 0
 126 -820 91 -846 72 -846 c 0
 53 -846 55 -821 75 -798 c 1
 88 -764 94 -692 94 -600 c 0xd8
 94 -354 59 31 59 188 c 0
 59 228 62 312 134 384 c 0
 202 452 286 463 348 463 c 0
 552 463 578 394 578 266 c 0
EndSplineSet
Validated: 1
EndChar

StartChar: q
Encoding: 113 113 82
Width: 651
Flags: W
HStem: -26 74<198.14 385.029> 386 91<177.375 371.316 481.049 514.983>
VStem: 52 74<122.331 339.55> 488 74<-845.539 100.126> 524 74<302.615 395>
AnchorPoint: "top" 260.08 646 basechar 0
AnchorPoint: "bottom" 275.08 7 basechar 0
LayerCount: 2
Fore
SplineSet
515 404 m 1xe8
 515 404 492 386 479 386 c 0
 470 386 465 391 465 400 c 0
 465 431 523 477 563 477 c 0
 583 477 598 466 598 434 c 0xe8
 598 389 584 296 547 209 c 1
 571 124 573 51 573 35 c 0
 573 -311 562 -683 562 -690 c 0
 562 -790 576 -767 576 -787 c 0
 576 -811 537 -848 515 -848 c 0
 493 -848 488 -793 488 -743 c 0xf0
 488 -736 499 -347 499 -78 c 2
 499 -9 l 2
 499 24 495 62 487 102 c 1
 402 -9 306 -26 254 -26 c 0
 112 -26 52 97 52 192 c 0
 52 356 166 467 300 467 c 0
 411 467 477 376 513 300 c 1
 521 338 524 371 524 389 c 2
 524 395 l 1
 525 398 l 1
 520 402 516 403 515 404 c 1xe8
126 238 m 0
 126 163 176 48 300 48 c 0
 376 48 428 82 470 168 c 1
 427 302 351 393 254 393 c 0
 219 393 126 393 126 238 c 0
EndSplineSet
Validated: 1
EndChar

StartChar: r
Encoding: 114 114 83
Width: 609
Flags: W
HStem: -30 165<58.4424 121.996> 320 74<449.69 552.072> 388 75<292.273 398.522>
VStem: 48 521
AnchorPoint: "bottom" 115 9 basechar 0
AnchorPoint: "top" 301 643 basechar 0
LayerCount: 2
Fore
SplineSet
478 320 m 0xd0
 423 320 384 380 306 388 c 1
 245 258 218 -30 115 -30 c 0
 49 -30 48 64 48 74 c 0
 48 98 85 135 109 135 c 0
 117 135 122 131 122 122 c 1
 122 122 123 78 141 56 c 1
 151 86 163 129 175 173 c 0
 214 315 236 389 280 433 c 0
 308 461 332 463 338 463 c 0xb0
 434 463 485 394 525 394 c 0
 527 394 528 395 530 395 c 0
 551 409 569 407 569 391 c 0
 569 363 523 320 478 320 c 0xd0
EndSplineSet
Validated: 1
EndChar

StartChar: s
Encoding: 115 115 84
Width: 638
Flags: W
HStem: -30 74<179.31 455.127> 388 75<219.668 490>
VStem: 48 75<94.7554 160.203> 94 75<235.5 353.11> 495 75<68.8785 160.449>
AnchorPoint: "bottom" 292 0 basechar 0
AnchorPoint: "top" 329 643 basechar 0
LayerCount: 2
Fore
SplineSet
338 44 m 0xe8
 398 44 459 62 495 85 c 1
 495 90 l 2
 495 116 494 132 478 148 c 0
 405 221 94 183 94 288 c 0
 94 329 124 363 137 376 c 0
 195 434 292 463 557 463 c 0
 566 463 569 457 569 448 c 0
 569 415 510 317 469 317 c 0
 451 317 452 340 472 363 c 0
 481 374 487 382 490 388 c 1
 383 387 226 381 170 346 c 1
 169 343 169 341 169 339 c 0xd8
 169 267 470 291 546 215 c 0
 567 194 570 175 570 122 c 0
 570 60 440 -30 290 -30 c 0
 158 -30 48 18 48 107 c 0
 48 131 85 169 109 169 c 0
 117 169 123 165 123 156 c 0
 123 91 217 44 338 44 c 0xe8
EndSplineSet
Validated: 1
EndChar

StartChar: t
Encoding: 116 116 85
Width: 600
Flags: W
HStem: -32 76<184.606 354.263> 344 123<49.5089 122.969 316.02 442.073> 344 77<206 428.153> 553 20G<224.5 238.5>
VStem: 88 76<60.3576 343.358>
AnchorPoint: "bottom" 219 0 basechar 0
AnchorPoint: "top" 238 644 basechar 0
LayerCount: 2
Fore
SplineSet
40 399 m 0xb8
 40 421 82 464 105 464 c 0
 115 464 116 455 148 442 c 1
 158 475 167 502 173 519 c 0
 181 544 214 573 235 573 c 0
 242 573 247 569 247 561 c 0
 247 560 212 449 206 427 c 1
 229 423 255 421 280 421 c 0xb8
 415 421 475 467 495 467 c 0xd8
 500 467 503 463 503 455 c 0
 503 399 373 344 226 344 c 0
 213 344 199 344 186 345 c 1
 172 282 164 226 164 180 c 0
 164 96 190 44 248 44 c 0
 365 44 470 121 476 145 c 0
 483 172 519 202 539 202 c 0
 549 202 551 196 551 190 c 0
 551 126 380 -32 196 -32 c 0
 115 -32 88 37 88 127 c 0
 88 198 104 282 123 355 c 1
 89 363 40 383 40 399 c 0xb8
EndSplineSet
Validated: 1
EndChar

StartChar: u
Encoding: 117 117 86
Width: 702
Flags: W
HStem: -30 74<167.696 361.5 568.869 611.133> 443 20G<558 574.5>
VStem: 62 75<68.4519 405.45> 508 75<179.525 453.754>
AnchorPoint: "ring-above" 338 444 basechar 0
AnchorPoint: "bottom" 622 53 basechar 0
AnchorPoint: "top" 349 643 basechar 0
LayerCount: 2
Fore
SplineSet
583 430 m 0
 583 427 567 245 567 139 c 0
 567 99 569 58 575 44 c 0
 578 44 580 45 582 45 c 0
 593 70 622 91 639 91 c 0
 649 91 653 84 653 76 c 0
 653 38 597 -30 522 -30 c 0
 505 -30 492 -20 492 92 c 0
 492 100 492 108 492 116 c 1
 385 -29 238 -30 179 -30 c 0
 178 -30 178 -30 177 -30 c 0
 75 -30 62 96 62 162 c 0
 62 228 73 311 98 406 c 0
 104 430 137 460 159 460 c 0
 167 460 172 456 172 447 c 0
 172 445 137 316 137 211 c 0
 137 104 170 44 225 44 c 0
 369 44 469 83 500 282 c 1
 504 347 508 399 508 404 c 0
 511 430 547 463 569 463 c 0
 580 463 583 459 583 430 c 0
EndSplineSet
Validated: 1
EndChar

StartChar: v
Encoding: 118 118 87
Width: 642
Flags: W
HStem: -30 74<166.252 359.727> 443 20G<558 574>
VStem: 62 75<68.4519 405.45> 508 75<218.313 453.686>
AnchorPoint: "top" 354 643 basechar 0
AnchorPoint: "bottom" 203 6 basechar 0
LayerCount: 2
Fore
SplineSet
508 402 m 0
 508 426 546 463 570 463 c 0
 578 463 583 459 583 450 c 0
 583 331 563 181 456 74 c 0
 352 -30 231 -30 177 -30 c 0
 75 -30 62 96 62 162 c 0
 62 228 73 311 98 406 c 0
 104 430 137 460 159 460 c 0
 167 460 172 456 172 447 c 0
 172 445 137 316 137 211 c 0
 137 104 170 44 225 44 c 0
 338 44 508 53 508 402 c 0
EndSplineSet
Validated: 1
EndChar

StartChar: w
Encoding: 119 119 88
Width: 1038
Flags: W
HStem: -37 75<168.919 293.252 662.057 827.916> 443 20G<145 160 941 956.5>
VStem: 60 75<70.2484 408.685> 403 75<287.083 427.686> 897 74<138.331 456.703>
AnchorPoint: "bottom" 723 0 basechar 0
AnchorPoint: "top" 438 644 basechar 0
LayerCount: 2
Fore
SplineSet
953 463 m 0
 960 463 965 460 966 452 c 0
 969 417 971 383 971 352 c 0
 971 50 808 -37 718 -37 c 0
 556 -37 466 166 450 204 c 1
 382 -15 217 -30 175 -30 c 0
 72 -30 60 101 60 165 c 0
 60 232 71 314 96 409 c 0
 102 433 134 463 156 463 c 0
 164 463 170 459 170 450 c 0
 170 448 135 321 135 215 c 0
 135 106 168 44 223 44 c 0
 306 44 344 80 371 152 c 0
 390 201 403 274 403 376 c 0
 403 400 441 437 465 437 c 0
 472 437 477 434 478 427 c 0
 518 173 655 38 766 38 c 0
 794 38 819 47 834 62 c 0
 894 122 897 272 897 306 c 0
 897 351 892 398 892 402 c 0
 892 425 929 463 953 463 c 0
EndSplineSet
Validated: 1
EndChar

StartChar: x
Encoding: 120 120 89
Width: 618
Flags: W
HStem: -30 74<55.314 173.281 397.118 532.454> 389 74<55.314 210.085 452.501 569.686>
VStem: 272 76<124.387 302.68>
AnchorPoint: "top" 323 642 basechar 0
AnchorPoint: "bottom" 502 8 basechar 0
LayerCount: 2
Fore
SplineSet
480 -30 m 0
 351 -30 290 26 276 101 c 1
 182 -25 78 -30 59 -30 c 0
 50 -30 46 -25 46 -17 c 0
 46 7 83 44 107 44 c 0
 203 44 272 154 272 239 c 0
 272 317 217 389 59 389 c 0
 50 389 46 394 46 402 c 0
 46 426 83 463 107 463 c 0
 257 463 327 403 343 325 c 1
 404 409 490 463 566 463 c 0
 575 463 579 458 579 450 c 0
 579 426 542 389 518 389 c 0
 416 389 348 269 348 184 c 0
 348 110 396 44 529 44 c 0
 538 44 542 39 542 31 c 0
 542 7 504 -30 480 -30 c 0
EndSplineSet
Validated: 1
EndChar

StartChar: y
Encoding: 121 121 90
Width: 671
Flags: W
HStem: -845 73<227.959 384.176> -193 82<211.775 407.695> -29 74<162.842 360.957> 443 20G<557 573>
VStem: 60 74<-647.865 -301.18 71.008 400.842> 509 74<-544.281 139 188.043 454.874>
AnchorPoint: "bottom" 333 -152 basechar 0
AnchorPoint: "top" 335 643 basechar 0
LayerCount: 2
Fore
SplineSet
415 -131 m 0
 415 -152 380 -193 355 -193 c 0
 354 -193 322 -185 293 -185 c 0
 261 -185 227 -192 202 -217 c 0
 135 -284 134 -433 134 -451 c 0
 134 -609 199 -772 310 -772 c 0
 359 -772 385 -754 401 -738 c 0
 501 -638 510 -339 510 -239 c 0
 510 -213 510 -214 509 -16 c 1
 509 139 l 1
 403 -29 238 -29 178 -29 c 0
 71 -29 59 105 59 163 c 0
 59 230 71 313 99 409 c 0
 106 433 137 460 158 460 c 0
 166 460 172 455 172 446 c 0
 172 444 133 315 133 210 c 0
 133 104 168 45 224 45 c 0
 329 45 509 47 509 404 c 0
 509 428 545 463 569 463 c 0
 577 463 583 459 583 450 c 2
 583 -188 l 2
 583 -381 563 -529 516 -641 c 0
 455 -785 355 -845 264 -845 c 0
 131 -845 60 -672 60 -499 c 0
 60 -254 197 -111 339 -111 c 0
 365 -111 415 -113 415 -131 c 0
EndSplineSet
Validated: 1
EndChar

StartChar: z
Encoding: 122 122 91
Width: 633
Flags: W
HStem: -845 74<202.959 359.712> -193 83<186.512 382.36> 7 73<217.409 483.978> 389 74<83.3966 460.384>
VStem: 35 74<-647.661 -301.064> 484 74<-544.281 3.21136 231.718 361.317>
AnchorPoint: "top" 303 645 basechar 0
AnchorPoint: "bottom" 348 -146 basechar 0
LayerCount: 2
Fore
SplineSet
390 -131 m 0
 390 -152 355 -193 330 -193 c 0
 329 -193 297 -185 269 -185 c 0
 237 -185 203 -192 178 -217 c 0
 111 -284 109 -433 109 -451 c 0
 109 -609 174 -771 285 -771 c 0
 334 -771 360 -754 376 -738 c 0
 476 -638 485 -339 485 -239 c 0
 485 -215 484 -154 484 -15 c 0
 480 5 419 7 390 7 c 0
 303 7 172 -11 55 -29 c 0
 54 -29 52 -29 51 -29 c 0
 42 -29 37 -23 37 -15 c 0
 37 5 64 38 90 44 c 0
 484 142 484 266 484 306 c 0
 484 377 381 389 250 389 c 0
 167 389 102 387 101 387 c 0
 73 387 73 390 73 400 c 0
 73 422 107 460 133 460 c 0
 135 460 257 463 298 463 c 0
 446 463 558 448 558 352 c 0
 558 209 413 113 345 76 c 1
 379 79 408 80 434 80 c 0
 476 80 558 78 558 34 c 0
 558 33 558 33 558 32 c 1
 558 -187 l 2
 558 -380 538 -529 491 -641 c 0
 430 -785 330 -845 239 -845 c 0
 106 -845 35 -672 35 -499 c 0
 35 -254 172 -110 314 -110 c 0
 319 -110 390 -110 390 -131 c 0
EndSplineSet
Validated: 1
EndChar

StartChar: braceleft
Encoding: 123 123 92
Width: 303
Flags: W
HStem: -83 74<138.091 228.686> 336 102<88.7642 149.775> 779 74<143.331 228.686>
VStem: 57 74<0.763607 133.812 646.335 776.284> 62 182<-70.3829 -7.76172 336.051 371.313>
LayerCount: 2
Fore
SplineSet
67 705 m 0xe8
 67 785 132 853 222 853 c 0
 228 853 238 853 238 840 c 0
 238 815 201 779 177 779 c 0
 161 779 150 777 143 775 c 1
 141 768 141 761 141 753 c 0
 141 650 244 515 244 484 c 0
 244 447 208 408 177 386 c 1
 228 357 244 331 244 308 c 0xe8
 244 262 131 150 131 58 c 0
 131 18 156 -9 225 -9 c 0
 234 -9 238 -14 238 -22 c 0
 238 -46 201 -83 177 -83 c 0
 84 -83 57 -40 57 10 c 0xf0
 57 95 131 205 170 262 c 1
 167 298 72 336 71 336 c 0
 64 337 62 343 62 349 c 0
 62 367 85 398 113 408 c 0
 148 421 169 438 170 438 c 1
 169 448 67 597 67 705 c 0xe8
EndSplineSet
Validated: 1
EndChar

StartChar: bar
Encoding: 124 124 93
Width: 242
Flags: W
HStem: 833 20G<132 147>
VStem: 81 81<-82.3442 845.517>
LayerCount: 2
Fore
SplineSet
88 46 m 0
 88 214 76 494 76 664 c 0
 76 729 77 778 82 798 c 0
 88 822 121 853 143 853 c 0
 151 853 156 849 156 840 c 0
 156 839 150 828 150 722 c 0
 150 707 162 89 162 83 c 0
 162 -43 155 -51 134 -72 c 0
 120 -86 105 -94 95 -94 c 0
 87 -94 81 -90 81 -81 c 0
 81 -80 88 -25 88 46 c 0
EndSplineSet
Validated: 1
EndChar

StartChar: braceright
Encoding: 125 125 94
Width: 311
Flags: W
HStem: -83 74<76.314 172.574> 779 74<76.3871 154.407>
VStem: 61 74<443.025 516.032> 174 74<-4.55023 121.644 636.789 764.817>
LayerCount: 2
Fore
SplineSet
248 58 m 0
 248 0 201 -83 80 -83 c 0
 71 -83 67 -78 67 -70 c 0
 67 -46 104 -9 128 -9 c 0
 149 -9 164 -6 173 -3 c 1
 174 1 174 5 174 10 c 0
 174 104 61 225 61 261 c 0
 61 308 118 351 128 359 c 1
 78 386 61 412 61 437 c 0
 61 476 164 602 164 706 c 0
 164 768 120 779 82 779 c 2
 80 779 l 2
 71 779 67 784 67 792 c 0
 67 814 100 853 130 853 c 0
 224 853 239 795 239 754 c 0
 239 655 153 513 135 484 c 1
 137 442 244 416 244 397 c 0
 244 378 219 347 193 338 c 0
 185 335 157 323 136 307 c 1
 139 290 248 159 248 58 c 0
EndSplineSet
Validated: 1
EndChar

StartChar: asciitilde
Encoding: 126 126 95
Width: 530
Flags: W
HStem: 705 78<296.921 393.162> 775 78<135.249 236.859>
VStem: 86 357<776.34 782.553>
AnchorPoint: "top" 253 774 mark 0
LayerCount: 2
Fore
SplineSet
443 807 m 0xa0
 443 777 361 705 305 705 c 0xa0
 247 705 215 775 169 775 c 0
 157 775 146 770 134 759 c 0
 110 738 86 733 86 750 c 0
 86 784 171 853 226 853 c 0x60
 288 853 318 783 362 783 c 0
 388 783 413 819 431 819 c 0
 436 819 443 815 443 807 c 0xa0
EndSplineSet
Validated: 1
EndChar

StartChar: exclamdown
Encoding: 161 161 97
Width: 249
Flags: W
HStem: 724 125<74.0915 164.908>
VStem: 60 119<736.665 836.567> 91 75<-40.375 637.598>
LayerCount: 2
Fore
SplineSet
91 175 m 0xa0
 91 345 82 547 82 578 c 0
 82 605 121 642 144 642 c 0
 157 642 157 632 157 628 c 0
 157 624 166 360 166 221 c 0
 166 120 163 42 154 -2 c 0
 149 -27 114 -60 92 -60 c 0
 84 -60 79 -55 79 -47 c 0
 79 -45 91 -8 91 175 c 0xa0
139 849 m 0
 161 849 179 833 179 809 c 0
 179 774 137 724 100 724 c 0
 79 724 60 740 60 765 c 0xc0
 60 800 102 849 139 849 c 0
EndSplineSet
Validated: 1
EndChar

StartChar: cent
Encoding: 162 162 98
Width: 472
Flags: W
HStem: 105 118<291.765 339.336> 553 20G<277 291.5>
VStem: 67 76<204.459 358.124>
LayerCount: 2
Fore
SplineSet
413 354 m 0
 413 331 372 290 349 290 c 0
 345 290 342 292 340 294 c 2
 340 294 329 313 314 328 c 0
 285 357 246 372 211 372 c 0
 176 372 159 358 159 358 c 2
 159 357 143 340 143 294 c 0
 143 207 208 175 263 175 c 0
 335 175 333 223 371 223 c 0
 379 223 383 219 383 212 c 0
 383 186 331 125 259 105 c 1
 253 67 245 29 245 29 c 2
 240 4 205 -29 182 -29 c 0
 175 -29 170 -25 170 -17 c 0
 170 -15 171 -14 171 -12 c 2
 171 -12 185 61 190 100 c 1
 73 114 67 221 67 242 c 0
 67 353 150 419 205 438 c 1
 214 477 225 517 225 517 c 2
 232 542 266 573 288 573 c 0
 295 573 300 569 300 561 c 0
 300 559 300 557 299 554 c 2
 299 554 282 489 273 447 c 1
 369 441 413 364 413 354 c 0
EndSplineSet
Validated: 1
EndChar

StartChar: sterling
Encoding: 163 163 99
Width: 611
Flags: W
HStem: -27 74<86 177.183> 232 87<149.574 241> 241 81<331 460.499> 389 75<402 476.994> 409 109<231.858 310.955> 498 75<403.311 501.5>
VStem: 62 75<5.04497 127.002>
LayerCount: 2
Fore
SplineSet
469 303 m 0xb6
 469 282 432 241 407 241 c 0xb6
 399 241 394 247 364 247 c 0
 346 247 326 244 304 240 c 1
 293 211 283 183 271 156 c 1
 297 127 321 90 344 67 c 0
 368 43 380 49 385 44 c 0
 387 42 388 39 388 35 c 0
 388 13 353 -28 325 -28 c 0
 297 -28 269 6 223 64 c 1
 181 -1 133 -27 102 -27 c 0
 70 -27 62 4 62 37 c 0
 62 129 133 203 191 203 c 0
 204 203 216 199 226 194 c 1
 231 207 236 220 241 233 c 1
 236 233 230 232 225 232 c 0
 224 232 142 232 142 255 c 0
 142 277 180 319 204 319 c 0
 211 319 235 307 269 307 c 1
 282 342 296 377 311 409 c 1
 272 423 232 444 230 446 c 0
 228 448 226 452 226 456 c 0
 226 478 266 518 289 518 c 0xca
 299 518 303 509 356 488 c 1
 389 535 435 573 483 573 c 0
 520 573 554 549 554 510 c 0
 554 465 501 389 407 389 c 0
 392 389 377 391 363 394 c 1
 352 369 342 341 331 312 c 1
 368 318 394 322 416 322 c 0
 429 322 469 320 469 303 c 0xb6
150 47 m 0
 162 47 181 88 188 103 c 1
 172 118 156 127 144 128 c 1
 139 115 137 100 137 87 c 0
 137 67 143 47 150 47 c 0
402 472 m 1
 422 467 439 464 455 464 c 0
 463 464 471 466 478 467 c 1
 473 490 449 498 432 498 c 0
 422 498 418 498 402 472 c 1
EndSplineSet
Validated: 1
EndChar

StartChar: currency
Encoding: 164 164 100
Width: 597
Flags: W
HStem: 142 74<240.762 381.111> 411 75<222.302 368.975> 553 20G<510.5 523>
VStem: 131 75<249.298 403.172> 399 75<232.692 381.078>
LayerCount: 2
Fore
SplineSet
373 172 m 1
 335 148 298 142 271 142 c 0
 238 142 211 152 190 168 c 1
 136 121 120 61 80 61 c 0
 72 61 66 65 66 74 c 0
 66 98 124 167 160 200 c 1
 142 226 131 261 131 297 c 0
 131 331 141 367 164 400 c 1
 129 437 95 498 95 498 c 2
 94 500 93 503 93 506 c 0
 93 529 133 568 155 568 c 0
 159 568 163 566 165 564 c 0
 166 563 202 497 235 464 c 1
 263 479 294 486 323 486 c 0
 358 486 390 477 413 462 c 1
 440 493 467 535 467 535 c 1
 479 554 502 573 519 573 c 0
 527 573 533 569 533 560 c 0
 533 533 447 432 446 431 c 0
 465 406 474 377 474 345 c 0
 474 310 462 273 441 240 c 1
 487 189 515 139 515 139 c 2
 516 137 517 135 517 132 c 0
 517 109 477 70 455 70 c 0
 439 70 433 106 373 172 c 1
206 346 m 0
 206 285 246 216 321 216 c 0
 387 216 399 257 399 294 c 0
 399 360 353 411 276 411 c 0
 217 411 206 393 206 346 c 0
EndSplineSet
Validated: 1
EndChar

StartChar: yen
Encoding: 165 165 101
Width: 559
Flags: W
HStem: 49 99<129.736 238.597 320.162 432.625> 185 99<129.736 237.75 318.254 432.625> 206 74<172.618 240> 553 20G<471 495>
VStem: 241 76<-17.9754 69 148 205 284 324.781>
LayerCount: 2
Fore
SplineSet
54 509 m 0xb8
 54 533 96 570 117 570 c 0
 122 570 126 567 128 562 c 0
 144 516 270 395 288 378 c 1
 317 408 351 433 384 466 c 0
 439 521 451 573 491 573 c 0
 499 573 504 568 504 560 c 0
 504 506 318 346 317 345 c 0
 316 341 315 317 315 284 c 1
 320 284 325 284 330 284 c 0
 440 284 440 260 440 251 c 0
 440 224 397 185 375 185 c 0xd8
 355 185 386 200 315 205 c 1
 315 186 316 167 316 148 c 1
 330 148 l 2
 440 148 440 124 440 115 c 0
 440 88 397 49 375 49 c 0
 355 49 386 64 317 69 c 1
 317 35 l 2
 317 11 280 -27 255 -27 c 0
 242 -27 242 -27 241 70 c 1
 193 68 144 62 129 58 c 0
 117 55 112 61 112 69 c 0
 112 89 145 127 172 134 c 0
 185 137 210 141 240 144 c 1
 240 206 l 1
 192 204 144 198 129 194 c 0
 117 191 112 197 112 205 c 0
 112 225 145 263 172 270 c 0
 185 273 210 277 241 280 c 0
 241 284 242 286 242 289 c 0
 223 307 54 465 54 509 c 0xb8
EndSplineSet
Validated: 1
EndChar

StartChar: brokenbar
Encoding: 166 166 102
Width: 241
Flags: W
HStem: 833 20G<132 147>
VStem: 87 74<-10.0617 291.387 494.938 796.387>
LayerCount: 2
Fore
SplineSet
87 540 m 0
 87 602 78 685 78 745 c 0
 78 766 79 784 82 797 c 0
 87 821 121 853 143 853 c 0
 151 853 156 849 156 840 c 0
 156 838 155 836 155 834 c 0
 153 826 153 812 153 796 c 0
 153 739 161 644 161 587 c 0
 161 535 154 514 134 494 c 0
 120 480 104 473 94 473 c 0
 86 473 81 478 81 486 c 0
 81 491 87 501 87 540 c 0
87 35 m 0
 87 97 78 180 78 240 c 0
 78 261 79 279 82 292 c 0
 87 316 121 348 143 348 c 0
 151 348 156 344 156 335 c 0
 156 333 155 331 155 329 c 0
 153 321 153 307 153 291 c 0
 153 234 161 139 161 82 c 0
 161 30 154 9 134 -11 c 0
 120 -25 104 -32 94 -32 c 0
 86 -32 81 -27 81 -19 c 0
 81 -14 87 -4 87 35 c 0
EndSplineSet
Validated: 1
EndChar

StartChar: section
Encoding: 167 167 103
Width: 414
Flags: W
HStem: 276 74<162.919 277.289> 472 74<132.543 248.797> 833 20G<312 351>
VStem: 48 75<389.883 471.999> 289 74<353.121 431.639>
LayerCount: 2
Fore
SplineSet
289 352 m 1
 287 421 225 472 149 472 c 0
 140 472 132 471 123 470 c 1
 125 401 186 350 262 350 c 0
 271 350 280 351 289 352 c 1
53 -18 m 0
 53 1 80 34 106 42 c 1
 138 62 244 173 278 285 c 1
 256 279 235 276 214 276 c 0
 119 276 48 338 48 425 c 0
 48 610 279 853 345 853 c 0
 357 853 358 844 358 840 c 0
 358 820 330 787 304 780 c 1
 277 767 166 655 132 537 c 1
 155 543 177 546 198 546 c 0
 293 546 363 484 363 397 c 0
 363 214 127 -31 66 -31 c 0
 54 -31 53 -21 53 -18 c 0
EndSplineSet
Validated: 1
EndChar

StartChar: dieresis
Encoding: 168 168 104
Width: 452
Flags: W
HStem: 727 125<103.386 194.614 258.959 350.875>
VStem: 89 120<739.894 839.425> 243 120<736.665 836.789>
AnchorPoint: "mkmk" 223 643 mark 0
AnchorPoint: "mkmk" 228 957 basemark 0
AnchorPoint: "top" 222 765 mark 0
LayerCount: 2
Fore
SplineSet
243 765 m 0
 243 800 286 850 323 850 c 0
 344 850 363 834 363 809 c 0
 363 774 321 724 284 724 c 0
 262 724 243 740 243 765 c 0
169 852 m 0
 192 852 209 834 209 811 c 0
 209 776 166 727 129 727 c 0
 106 727 89 744 89 768 c 0
 89 804 132 852 169 852 c 0
EndSplineSet
Validated: 1
EndChar

StartChar: copyright
Encoding: 169 169 105
Width: 651
Flags: W
HStem: -35 58<231.096 429.82> 75 59<294.284 410.975> 288 60<253.427 351.722> 405 58<229.179 421.48>
VStem: 73 58<123.735 306.553> 190 60<177.189 285.688> 520 58<113.574 304.859>
LayerCount: 2
Fore
SplineSet
453 268 m 0
 453 251 420 216 402 216 c 0
 393 216 344 288 274 288 c 0
 267 288 261 287 255 285 c 1
 251 273 250 259 250 253 c 0
 250 170 326 134 379 134 c 0
 389 134 398 136 405 138 c 1
 426 161 450 168 450 154 c 0
 450 134 411 75 335 75 c 0
 269 75 190 118 190 210 c 0
 190 292 259 348 318 348 c 0
 391 348 453 277 453 268 c 0
311 -35 m 0
 155 -35 73 73 73 190 c 0
 73 322 180 463 352 463 c 0
 498 463 578 353 578 235 c 0
 578 102 475 -35 311 -35 c 0
520 195 m 0
 520 303 449 405 314 405 c 0
 180 405 131 320 131 231 c 0
 131 132 197 23 349 23 c 0
 503 23 520 142 520 195 c 0
EndSplineSet
Validated: 1
EndChar

StartChar: ordfeminine
Encoding: 170 170 106
Width: 447
Flags: W
HStem: 476 59<58.125 404.448> 564 59<185.899 246.015 330.284 355.637> 796 57<265.492 289.298>
VStem: 79 60<670.445 779.551> 310 60<679.86 784.632>
LayerCount: 2
Fore
SplineSet
318 463 m 0
 266 463 191 476 122 476 c 0
 74 476 60 469 52 469 c 0
 47 469 44 473 44 478 c 0
 44 493 67 521 88 527 c 0
 109 533 136 535 165 535 c 0
 236 535 318 522 363 522 c 0
 374 522 383 523 389 525 c 0
 393 527 395 527 398 527 c 0
 404 527 408 524 408 518 c 0
 408 517 404 463 318 463 c 0
305 679 m 1
 309 692 310 706 310 719 c 0
 310 745 303 769 290 782 c 0
 275 797 262 792 258 796 c 0
 257 797 256 799 256 802 c 0
 256 818 281 853 311 853 c 0
 343 853 370 815 370 762 c 0
 370 724 357 681 330 644 c 1
 336 637 346 626 355 623 c 0
 356 623 l 0
 362 623 365 620 365 615 c 0
 365 599 337 564 313 564 c 0
 299 564 287 576 274 591 c 1
 248 575 222 568 197 568 c 0
 116 568 79 668 79 711 c 0
 79 768 140 840 186 840 c 0
 203 840 203 840 305 679 c 1
247 628 m 1
 155 774 155 774 145 780 c 1
 141 772 139 763 139 752 c 0
 139 701 181 627 241 627 c 0
 243 627 245 628 247 628 c 1
EndSplineSet
Validated: 1
EndChar

StartChar: guillemotleft
Encoding: 171 171 107
Width: 492
Flags: W
HStem: 38 375
VStem: 67 362
LayerCount: 2
Fore
SplineSet
406 360 m 0
 385 339 341 287 311 253 c 1
 374 209 407 173 407 146 c 0
 407 118 363 81 342 81 c 0
 323 81 349 113 227 192 c 0
 217 198 224 217 240 236 c 0
 268 264 377 413 416 413 c 0
 424 413 429 408 429 400 c 0
 429 390 422 376 406 360 c 0
246 318 m 0
 225 297 180 245 150 211 c 1
 213 167 246 131 246 104 c 0
 246 76 202 38 181 38 c 0
 162 38 189 70 67 149 c 0
 57 155 63 175 79 194 c 0
 80 195 168 300 215 347 c 0
 231 363 245 370 255 370 c 0
 263 370 269 365 269 357 c 0
 269 348 262 334 246 318 c 0
EndSplineSet
Validated: 1
EndChar

StartChar: logicalnot
Encoding: 172 172 108
Width: 471
VWidth: 1988
Flags: W
HStem: 272 78<84.7248 308>
VStem: 303 84<140.907 275>
LayerCount: 2
Fore
SplineSet
387 197 m 0
 387 174 343 130 320 130 c 0
 312 130 303 131 303 187 c 0
 303 221 307 260 308 275 c 1
 83 272 l 2
 76 272 72 275 72 282 c 0
 72 306 115 350 139 350 c 2
 376 353 l 2
 387 353 387 344 387 340 c 2
 387 340 382 289 382 250 c 0
 382 200 387 205 387 197 c 0
EndSplineSet
Validated: 1
EndChar

StartChar: registered
Encoding: 174 174 110
Width: 651
Flags: W
HStem: -35 58<231.096 429.82> 79 59<376.131 425.226> 405 58<229.179 421.48>
VStem: 73 58<123.735 306.553> 214 68<88.7162 142.098> 232 202<219.883 347.215> 232 58<244 300> 520 58<113.574 304.859>
LayerCount: 2
Fore
SplineSet
520 195 m 0xf1
 520 303 449 405 314 405 c 0
 180 405 131 320 131 231 c 0
 131 132 197 23 349 23 c 0
 503 23 520 142 520 195 c 0xf1
311 -35 m 0
 155 -35 73 73 73 190 c 0
 73 322 180 463 352 463 c 0
 498 463 578 353 578 235 c 0
 578 102 475 -35 311 -35 c 0
309 361 m 0
 360 361 432 348 432 290 c 0
 432 262 407 216 340 197 c 1
 356 183 403 142 422 138 c 0
 423 138 424 138 425 138 c 0
 431 138 434 135 434 130 c 0xf5
 434 114 408 79 384 79 c 0
 364 79 337 97 282 145 c 1
 271 93 233 77 223 77 c 0
 217 77 214 80 214 86 c 0xf9
 214 107 232 77 232 238 c 0xf5
 232 277 231 307 231 308 c 0
 231 311 233 361 309 361 c 0
373 255 m 1
 367 287 326 297 291 300 c 1
 291 283 290 264 290 244 c 1xf3
 320 244 353 249 373 255 c 1
EndSplineSet
Validated: 1
EndChar

StartChar: macron
Encoding: 175 175 111
Width: 470
Flags: W
HStem: 793 60<140.516 376.496>
VStem: 90 295<793 847.641>
AnchorPoint: "mkmk" 240 922 basemark 0
AnchorPoint: "mkmk" 240 742 mark 0
AnchorPoint: "top" 236 821 mark 0
LayerCount: 2
Fore
SplineSet
132 793 m 0
 118 793 100 791 99 791 c 0
 91 791 90 798 90 800 c 0
 90 816 120 848 140 851 c 0
 151 852 163 853 176 853 c 0
 219 853 271 848 319 848 c 0
 354 848 376 851 377 851 c 0
 384 851 385 845 385 843 c 0
 385 827 357 794 336 791 c 0
 317 788 295 788 274 788 c 0
 224 788 172 793 132 793 c 0
EndSplineSet
Validated: 1
EndChar

StartChar: degree
Encoding: 176 176 112
Width: 399
Flags: W
HStem: 629 81<134.5 227.966> 772 81<167.477 226.608>
VStem: 85 81<711.476 771.209> 229 81<710.981 800>
AnchorPoint: "ring-above" 183 674 mark 0
LayerCount: 2
Fore
SplineSet
229 718 m 0
 227 769 173 772 167 772 c 1
 167 769 166 767 166 764 c 0
 166 736 185 710 220 710 c 0
 230 710 229 710 229 718 c 0
158 629 m 0
 111 629 85 661 85 702 c 0
 85 772 161 853 226 853 c 0
 278 853 310 822 310 778 c 0
 310 714 234 629 158 629 c 0
EndSplineSet
Validated: 1
EndChar

StartChar: plusminus
Encoding: 177 177 113
Width: 474
VWidth: 2078
Flags: W
HStem: 75 77<93.2295 195 271 332.235> 212 99<278.3 393.625> 221 76<83.8828 197>
VStem: 198 79<152.618 232 311 430.899>
LayerCount: 2
Fore
SplineSet
233 75 m 0xd0
 148 75 103 63 83 63 c 0
 74 63 70 65 70 73 c 0
 70 93 103 131 130 138 c 0
 143 141 166 144 195 147 c 1
 196 174 196 195 197 233 c 1
 150 231 105 225 90 221 c 0
 78 218 72 224 72 232 c 0
 72 252 105 290 132 297 c 0xb0
 145 300 169 303 198 306 c 1
 198 360 l 2
 198 430 265 443 266 443 c 0
 277 443 277 439 277 416 c 0
 277 389 276 351 276 311 c 1
 281 311 286 311 291 311 c 0
 401 311 401 287 401 278 c 0
 401 251 358 212 336 212 c 0
 316 212 347 227 275 232 c 1
 274 190 273 165 271 152 c 1
 288 152 l 2
 398 152 399 129 399 119 c 0
 399 92 355 53 333 53 c 0
 316 53 344 75 233 75 c 0xd0
EndSplineSet
Validated: 1
EndChar

StartChar: uni00B2
Encoding: 178 178 114
Width: 384
Flags: W
HStem: 542 75<161 201.354 204.901 313.04> 558 59<130.042 292.646> 795 58<145.813 233.948>
VStem: 236 59<731.098 811.5>
LayerCount: 2
Fore
SplineSet
271 542 m 0xb0
 257 542 244 558 203 558 c 0x70
 168 558 126 547 84 535 c 0
 62 529 63 553 85 575 c 0
 87 577 236 727 236 755 c 0
 236 779 212 795 179 795 c 0
 169 795 160 793 152 790 c 1
 133 770 108 763 108 779 c 0
 108 801 154 853 220 853 c 0
 264 853 295 829 295 794 c 0
 295 775 280 731 161 605 c 1
 189 612 216 617 242 617 c 0
 243 617 315 617 315 587 c 0
 315 571 286 542 271 542 c 0xb0
EndSplineSet
Validated: 1
EndChar

StartChar: uni00B3
Encoding: 179 179 115
Width: 337
Flags: W
HStem: 533 59<100.608 190.682> 794 59<116.062 233.333>
VStem: 202 59<604.88 681.5 747.967 824>
LayerCount: 2
Fore
SplineSet
75 777 m 0
 75 802 142 853 207 853 c 0
 239 853 262 839 262 809 c 0
 262 774 218 732 201 717 c 1
 249 707 261 691 261 672 c 0
 261 622 184 533 122 533 c 0
 85 533 76 568 76 574 c 0
 76 593 109 623 126 623 c 0
 138 623 131 613 144 600 c 0
 150 594 157 592 163 592 c 0
 182 592 202 613 202 628 c 0
 202 656 140 662 119 664 c 0
 114 664 111 668 111 673 c 0
 111 681 117 693 129 705 c 0
 141 717 204 755 204 769 c 0
 204 786 188 794 167 794 c 0
 124 794 100 766 85 766 c 0
 79 766 75 771 75 777 c 0
EndSplineSet
Validated: 1
EndChar

StartChar: acute
Encoding: 180 180 116
Width: 404
Flags: W
HStem: 644 84<97.4809 213.419>
VStem: 80 240
AnchorPoint: "top" 149 690 mark 0
LayerCount: 2
Fore
SplineSet
158 728 m 0
 183 728 205 733 218 740 c 1
 226 752 232 768 238 786 c 0
 247 813 291 853 312 853 c 0
 317 853 320 851 320 845 c 0
 320 821 246 644 94 644 c 0
 85 644 80 645 80 653 c 0
 80 674 126 728 158 728 c 0
EndSplineSet
Validated: 1
EndChar

StartChar: mu
Encoding: 181 181 117
Width: 796
Flags: W
HStem: -29 74<182.732 403.748 652.037 692.774> 443 20G<638 656.5>
VStem: 81 76<-834.828 -622.485 -250.798 411.181> 120 75<-788.759 -118.343> 575 75<46.4085 140>
LayerCount: 2
Fore
SplineSet
605 -30 m 0xe8
 589 -30 575 -24 575 102 c 0
 575 114 576 126 576 140 c 1
 451 -29 259 -29 196 -29 c 0
 187 -29 178 -29 169 -26 c 1
 195 -405 195 -404 195 -507 c 0
 195 -625 185 -725 156 -794 c 0
 146 -817 118 -842 98 -842 c 0
 90 -842 85 -838 85 -829 c 0
 85 -809 120 -779 120 -556 c 0xd8
 120 -348 81 60 81 163 c 0
 81 434 151 461 178 461 c 0
 186 461 191 457 191 448 c 0
 191 439 157 325 157 232 c 0
 157 174 157 45 244 45 c 0
 335 45 555 53 582 304 c 0
 588 363 589 404 589 404 c 0
 591 428 626 463 650 463 c 0
 663 463 663 453 663 446 c 0
 663 443 650 244 650 149 c 0
 650 108 650 75 659 45 c 1
 660 45 661 45 662 45 c 0
 673 70 703 92 720 92 c 0
 733 92 733 79 733 76 c 0
 733 39 680 -30 605 -30 c 0xe8
EndSplineSet
Validated: 1
EndChar

StartChar: paragraph
Encoding: 182 182 118
Width: 590
Flags: W
HStem: 419 78<195.198 301> 779 74<192.795 300 374 430>
VStem: 44 73<570.314 717.794> 301 74<7.20999 419 497 779> 432 74<205.76 776.139>
LayerCount: 2
Fore
SplineSet
359 853 m 1
 489 853 l 2
 505 853 506 853 506 646 c 0
 506 466 503 194 499 -55 c 0
 489 -655 483 -661 457 -687 c 0
 443 -701 429 -708 419 -708 c 0
 410 -708 404 -703 404 -694 c 0
 404 -689 407 -682 411 -674 c 1
 411 -637 l 1
 423 -436 432 262 432 606 c 0
 432 687 431 749 430 779 c 1
 374 779 l 1
 374 745 375 699 375 646 c 0
 375 466 373 194 369 -55 c 0
 359 -655 353 -661 327 -687 c 0
 313 -701 298 -708 288 -708 c 0
 279 -708 274 -703 274 -694 c 0
 274 -689 276 -682 280 -674 c 1
 280 -637 l 1
 290 -468 299 53 301 419 c 1
 131 426 44 515 44 611 c 0
 44 712 147 851 359 853 c 1
301 497 m 1
 301 536 301 573 301 606 c 0
 301 687 301 748 300 779 c 1
 135 772 117 692 117 658 c 0
 117 594 171 517 301 497 c 1
EndSplineSet
Validated: 1
EndChar

StartChar: periodcentered
Encoding: 183 183 119
Width: 276
Flags: W
HStem: 178 125<92.0915 182.908>
VStem: 78 119<190.433 290.769>
LayerCount: 2
Fore
SplineSet
157 303 m 4
 180 303 197 285 197 262 c 4
 197 227 155 178 118 178 c 4
 95 178 78 195 78 219 c 4
 78 255 120 303 157 303 c 4
EndSplineSet
Validated: 1
EndChar

StartChar: cedilla
Encoding: 184 184 120
Width: 482
Flags: W
HStem: -550 75<69.5459 266.573> -207 41<61.418 72>
VStem: 146 75<-78.4894 24.3108> 346 75<-423.03 -296.188>
AnchorPoint: "bottom" 184 0 mark 0
LayerCount: 2
Fore
SplineSet
209 35 m 4
 220 35 221 26 221 22 c 4
 221 -27 167 -109 151 -133 c 5
 319 -143 421 -233 421 -327 c 4
 421 -422 311 -550 73 -550 c 4
 65 -550 60 -545 60 -537 c 4
 60 -513 98 -475 122 -475 c 4
 248 -473 312 -440 331 -421 c 4
 340 -412 346 -397 346 -378 c 4
 346 -298 243 -208 72 -207 c 4
 64 -207 60 -203 60 -195 c 4
 60 -187 64 -177 72 -166 c 5
 72 -166 95 -134 117 -97 c 4
 134 -67 146 -40 146 -28 c 4
 146 -4 185 35 209 35 c 4
EndSplineSet
Validated: 1
EndChar

StartChar: uni00B9
Encoding: 185 185 121
Width: 317
Flags: W
HStem: 552 57<189 246.43> 748 59<82.7368 137.741> 834 20G<184 195.5>
VStem: 131 122<568.971 603.906> 131 58<609 775>
LayerCount: 2
Fore
SplineSet
175 552 m 0xf0
 126 552 88 533 83 533 c 0
 77 533 74 537 74 543 c 0
 74 544 77 579 131 597 c 1xf0
 139 775 l 1
 112 755 94 748 84 748 c 0
 77 748 74 751 74 757 c 0
 74 774 103 806 123 807 c 0
 130 807 175 854 193 854 c 0
 198 854 200 851 200 843 c 2
 189 609 l 1xe8
 238 615 251 604 251 604 c 2
 253 602 253 600 253 597 c 0
 253 580 221 547 203 547 c 0
 196 547 198 552 175 552 c 0xf0
EndSplineSet
Validated: 1
EndChar

StartChar: ordmasculine
Encoding: 186 186 122
Width: 447
Flags: W
HStem: 480 58<56.9178 402.413> 577 59<178.304 302.958> 794 59<189.611 309.801>
VStem: 101 59<655.347 763.858> 328 60<663.567 775.468>
LayerCount: 2
Fore
SplineSet
388 752 m 0
 388 672 309 577 212 577 c 0
 136 577 101 621 101 675 c 0
 101 757 183 853 278 853 c 0
 336 853 388 818 388 752 c 0
160 716 m 0
 160 639 240 636 251 636 c 0
 310 636 328 670 328 711 c 0
 328 766 287 794 238 794 c 0
 170 794 160 744 160 716 c 0
316 467 m 0
 264 467 189 480 120 480 c 0
 72 480 58 472 50 472 c 0
 45 472 42 476 42 481 c 0
 42 496 65 524 86 530 c 0
 107 536 134 538 163 538 c 0
 234 538 316 526 361 526 c 0
 372 526 381 526 387 528 c 0
 399 533 406 530 406 522 c 0
 406 521 402 467 316 467 c 0
EndSplineSet
Validated: 1
EndChar

StartChar: guillemotright
Encoding: 187 187 123
Width: 518
Flags: W
HStem: 50 363
VStem: 70 376
LayerCount: 2
Fore
SplineSet
93 102 m 0
 114 123 158 175 188 209 c 1
 125 253 93 289 93 316 c 0
 93 344 136 382 157 382 c 0
 176 382 150 350 272 271 c 0
 282 265 276 245 260 226 c 0
 259 225 171 120 124 73 c 0
 108 57 93 50 83 50 c 0
 75 50 70 55 70 63 c 0
 70 72 77 86 93 102 c 0
268 134 m 0
 289 155 333 207 363 241 c 1
 300 285 267 321 267 348 c 0
 267 376 311 413 332 413 c 0
 351 413 324 381 446 302 c 0
 456 296 450 277 434 258 c 0
 433 257 345 152 298 105 c 0
 282 89 267 82 257 82 c 0
 249 82 245 86 245 94 c 0
 245 103 252 118 268 134 c 0
EndSplineSet
Validated: 1
EndChar

StartChar: onequarter
Encoding: 188 188 124
Width: 562
Flags: W
HStem: 60 59<321 362 422.382 503.766> 272 57<179 236.43> 468 59<72.7368 127.741> 554 20G<174 185.5>
VStem: 68 59<-46.4812 18.4929> 121 122<288.971 323.906> 121 58<329 495> 362 59<-3.89196 56 119 180>
LayerCount: 2
Fore
SplineSet
506 98 m 0xf1
 506 80 473 47 455 47 c 0
 448 47 451 53 421 56 c 1
 421 38 l 2
 421 17 386 -14 370 -14 c 0
 365 -14 362 -11 362 -5 c 2
 362 60 l 1
 359 60 l 2
 346 60 286 59 264 52 c 0
 248 46 243 59 255 77 c 2
 368 258 l 2
 380 278 401 291 413 291 c 0
 418 291 422 289 422 283 c 2
 421 119 l 1
 445 118 506 117 506 98 c 0xf1
362 119 m 1
 362 180 l 1
 321 115 l 1
 333 117 350 118 362 119 c 1
68 -47 m 0xf9
 68 17 381 425 428 478 c 0
 441 493 454 499 462 499 c 0
 468 499 472 496 472 490 c 0
 472 484 468 474 457 462 c 0
 453 458 177 111 127 -6 c 1
 127 -27 92 -56 76 -56 c 0
 71 -56 68 -54 68 -47 c 0xf9
165 272 m 0
 116 272 78 253 73 253 c 0
 67 253 64 257 64 263 c 0
 64 264 67 299 121 317 c 1xf5
 129 495 l 1
 102 475 84 468 74 468 c 0
 67 468 64 471 64 477 c 0
 64 494 93 526 113 527 c 0
 120 527 165 574 183 574 c 0
 188 574 190 571 190 563 c 2
 179 329 l 1xf3
 228 335 241 324 241 324 c 2
 243 322 243 320 243 317 c 0xf5
 243 300 211 267 193 267 c 0
 186 267 188 272 165 272 c 0
EndSplineSet
Validated: 1
EndChar

StartChar: onehalf
Encoding: 189 189 125
Width: 590
Flags: W
HStem: -6 75<373 413.354 416.901 524.244> 10 59<342.546 503.647> 247 59<357.313 446.107> 272 57<179 236.43> 468 59<72.7368 127.741> 554 20G<174 185.5>
VStem: 68 59<-46.4812 18.4929> 121 122<288.971 323.906> 121 58<329 495> 448 58<183.098 263.5>
LayerCount: 2
Fore
SplineSet
482 -6 m 0xac40
 468 -6 456 10 415 10 c 0x4c40
 380 10 337 -1 295 -13 c 0
 273 -19 275 5 297 27 c 0
 299 29 448 179 448 207 c 0
 448 231 424 247 391 247 c 0
 381 247 371 245 363 242 c 1
 343 221 320 216 320 232 c 0
 320 254 366 306 432 306 c 0
 476 306 506 281 506 246 c 0
 506 227 492 183 373 57 c 1
 401 64 428 69 454 69 c 0
 455 69 526 68 526 39 c 0
 526 22 497 -6 482 -6 c 0xac40
165 272 m 0x1d40
 116 272 78 253 73 253 c 0
 67 253 64 257 64 263 c 0
 64 264 67 299 121 317 c 1x1d40
 129 495 l 1
 102 475 84 468 74 468 c 0
 67 468 64 471 64 477 c 0
 64 494 93 526 113 527 c 0
 120 527 165 574 183 574 c 0
 188 574 190 571 190 563 c 2
 179 329 l 1x1cc0
 228 335 241 324 241 324 c 2
 243 322 243 320 243 317 c 0
 243 300 211 267 193 267 c 0
 186 267 188 272 165 272 c 0x1d40
68 -47 m 0x8e40
 68 17 381 425 428 478 c 0
 441 493 454 499 462 499 c 0
 468 499 472 496 472 490 c 0
 472 484 468 474 457 462 c 0
 453 458 177 111 127 -6 c 1
 127 -27 92 -56 76 -56 c 0
 71 -56 68 -54 68 -47 c 0x8e40
EndSplineSet
Validated: 1
EndChar

StartChar: threequarters
Encoding: 190 190 126
Width: 558
Flags: W
HStem: 65 59<317 357 418.428 499.319> 253 59<94.6083 185.278> 514 59<110.996 227.787>
VStem: 64 59<-42.2226 23.4929> 197 59<325.023 401.5 469.289 544> 357 60<1.81341 62 125 185>
LayerCount: 2
Fore
SplineSet
70 497 m 0
 70 522 136 573 201 573 c 0
 233 573 257 559 257 529 c 0
 257 494 212 452 195 437 c 1
 243 427 256 411 256 392 c 0
 256 342 178 253 116 253 c 0
 79 253 70 288 70 294 c 0
 70 313 103 343 120 343 c 0
 132 343 125 333 138 320 c 0
 144 314 150 312 157 312 c 0
 177 312 197 332 197 348 c 0
 197 376 134 382 113 384 c 0
 108 384 105 388 105 393 c 0
 105 401 111 413 123 425 c 0
 135 437 198 475 198 489 c 0
 198 506 182 514 161 514 c 0
 118 514 94 486 80 486 c 0
 74 486 70 491 70 497 c 0
502 104 m 0
 502 86 469 52 451 52 c 0
 444 52 448 58 417 62 c 1
 417 43 l 2
 417 22 381 -8 365 -8 c 0
 360 -8 357 -5 357 1 c 2
 357 65 l 1
 355 65 l 2
 342 65 282 64 260 57 c 0
 257 56 255 56 253 56 c 0
 248 56 244 58 244 64 c 0
 244 69 246 75 251 82 c 2
 364 263 l 2
 376 283 397 297 409 297 c 0
 414 297 417 294 417 288 c 2
 417 125 l 1
 441 124 502 123 502 104 c 0
357 124 m 1
 357 185 l 1
 317 121 l 1
 329 123 345 123 357 124 c 1
64 -41 m 0
 64 23 376 431 423 484 c 0
 436 498 448 505 457 505 c 0
 464 505 468 500 468 494 c 0
 468 487 463 478 453 467 c 0
 449 463 173 116 123 -1 c 1
 123 -22 89 -51 73 -51 c 0
 68 -51 64 -48 64 -41 c 0
EndSplineSet
Validated: 1
EndChar

StartChar: questiondown
Encoding: 191 191 127
Width: 506
Flags: W
HStem: -46 75<178.5 371.368> 324 71<188.457 285> 557 90<211.943 240.439> 725 125<249.092 339.908>
VStem: 54 75<76.4209 263.781> 235 119<737.433 837.567> 288 75<388.385 568.185> 386 75<53.6922 128.454>
LayerCount: 2
Fore
SplineSet
241 571 m 1xfb
 229 561 219 557 211 557 c 0
 203 557 197 563 197 571 c 0
 197 594 240 647 289 647 c 0
 314 647 335 633 346 622 c 0
 358 610 363 604 363 540 c 0
 363 475 356 387 356 383 c 0
 354 358 317 323 294 323 c 2
 292 323 l 1
 292 323 288 324 281 324 c 0
 235 324 185 309 163 287 c 0
 131 255 129 183 129 169 c 0
 129 71 214 29 291 29 c 0
 341 29 374 47 380 53 c 1
 385 68 386 68 386 76 c 0
 386 100 424 138 448 138 c 0
 456 138 461 134 461 125 c 0
 461 44 366 -46 240 -46 c 0
 144 -46 54 9 54 120 c 0
 54 292 177 378 285 395 c 1
 286 411 288 456 288 494 c 0
 288 530 288 568 241 571 c 1xfb
354 809 m 0xfd
 354 774 312 725 275 725 c 0
 253 725 235 742 235 766 c 0
 235 801 277 850 314 850 c 0
 336 850 354 833 354 809 c 0xfd
EndSplineSet
Validated: 1
EndChar

StartChar: Aring
Encoding: 197 197 133
Width: 713
Flags: W
HStem: 919 81<325.477 384.608>
VStem: 93 74<230.323 610.275> 243 81<858.476 918.209> 387 81<857.601 947> 566 74<-15.686 377.537>
AnchorPoint: "top" 363 1079 basechar 0
AnchorPoint: "bottom" 602 10 basechar 0
LayerCount: 2
Fore
SplineSet
387 865 m 0
 385 916 331 919 325 919 c 1
 325 916 324 914 324 911 c 0
 324 883 343 857 378 857 c 0
 388 857 387 857 387 865 c 0
614 390 m 0
 615 387 640 61 640 36 c 0
 640 12 604 -25 579 -25 c 0
 572 -25 566 -20 566 -12 c 0
 563 53 545 289 537 382 c 1
 279 362 167 219 116 22 c 0
 108 -11 70 -35 50 -35 c 0
 43 -35 38 -31 38 -23 c 0
 38 -18 40 -11 46 -1 c 0
 86 142 93 341 93 344 c 0
 102 644 181 768 249 818 c 1
 245 828 243 838 243 849 c 0
 243 919 319 1000 384 1000 c 0
 436 1000 468 969 468 925 c 0
 468 896 452 863 428 835 c 1
 571 770 601 549 609 459 c 1
 626 460 641 460 646 460 c 0
 654 460 658 455 658 448 c 0
 658 430 637 403 614 390 c 0
293 779 m 0
 180 776 168 415 167 390 c 0
 166 346 161 285 154 225 c 1
 268 380 417 434 531 451 c 1
 513 581 463 754 326 776 c 0
 322 776 319 776 316 776 c 0
 308 776 300 777 293 779 c 0
EndSplineSet
Validated: 1
EndChar

StartChar: AE
Encoding: 198 198 134
Width: 940
Flags: W
HStem: -1 74<502.044 796.188> 422 74<514.391 829.98> 772 74<720.694 906.026> 788 73<535.458 880.824> 803 74<285.873 425.711>
VStem: 96 74<241.002 603.276> 426 74<52 395.903> 436 72<56.6371 399 482 638.107> 456 74<485.52 766.746>
AnchorPoint: "top" 484 960 basechar 0
AnchorPoint: "bottom" 466 15 basechar 0
LayerCount: 2
Fore
SplineSet
590 -1 m 0xd6
 466 -1 461 -36 441 -36 c 0
 426 -36 426 -10 426 30 c 0xd6
 426 137 432 335 436 399 c 1
 135 311 150 -8 56 -8 c 0
 48 -8 42 -3 42 5 c 0
 42 9 90 150 96 371 c 0
 108 796 321 877 387 877 c 0xcd
 452 877 488 849 507 811 c 1
 560 840 627 861 717 861 c 0xd5
 796 861 863 846 896 846 c 0
 905 846 915 846 915 832 c 0
 915 818 891 772 850 772 c 0xe5
 811 772 747 788 671 788 c 0
 623 788 572 781 524 761 c 1
 528 740 530 715 530 686 c 0xd480
 530 618 518 544 512 482 c 1
 563 492 614 496 665 496 c 0
 718 496 770 492 821 486 c 0
 829 485 833 480 833 472 c 0
 833 448 796 412 773 412 c 0
 768 412 698 422 619 422 c 0
 580 422 543 420 508 415 c 1xd5
 505 333 500 165 500 74 c 0
 500 66 500 58 500 52 c 1
 552 73 619 73 636 73 c 0
 711 73 785 60 816 52 c 0
 823 51 826 46 826 40 c 0
 826 19 792 -21 767 -21 c 0
 763 -21 682 -1 590 -1 c 0xd6
155 238 m 1
 241 362 343 429 441 462 c 1
 456 599 456 599 456 640 c 0
 456 732 433 803 340 803 c 0xcc80
 304 803 280 779 272 772 c 0xe480
 186 685 172 490 170 417 c 0
 169 369 163 302 155 238 c 1
EndSplineSet
Validated: 1
EndChar

StartChar: Ccedilla
Encoding: 199 199 135
Width: 758
Flags: W
HStem: -551 75<221.546 418.573> -208 41<213.418 224> 779 74<419 705.321>
VStem: 49 74<173.508 531.009> 498 75<-424.03 -296.966>
LayerCount: 2
Fore
SplineSet
49 309 m 0
 49 814 486 849 700 853 c 0
 713 853 714 842 714 839 c 0
 714 817 680 779 654 779 c 0
 511 777 316 756 217 657 c 0
 142 582 123 460 123 355 c 0
 123 195 190 38 380 38 c 0
 535 38 665 133 703 133 c 0
 710 133 714 129 714 121 c 0
 714 105 695 78 672 66 c 0
 548 1 444 -29 359 -34 c 1
 342 -75 314 -118 303 -134 c 1
 471 -144 573 -234 573 -328 c 0
 573 -423 463 -551 225 -551 c 0
 216 -551 212 -546 212 -538 c 0
 212 -514 250 -476 274 -476 c 0
 400 -474 464 -441 483 -422 c 0
 492 -413 498 -397 498 -379 c 0
 498 -298 396 -209 224 -208 c 0
 216 -208 212 -203 212 -196 c 0
 212 -188 216 -178 224 -167 c 2
 224 -167 247 -135 269 -98 c 0
 284 -72 295 -47 298 -33 c 1
 70 -11 49 222 49 309 c 0
EndSplineSet
Validated: 1
EndChar

StartChar: Eth
Encoding: 208 208 144
Width: 769
VWidth: 1748
Flags: W
HStem: -37 74<257.548 456.966> 392 72<167 307.235> 779 74<220.249 462.577>
VStem: 46 122<385.201 391 654 719.145> 79 73<-33.1499 -27 -26.8492 40 140 385 592.434 741.335 783 831.89> 642 74<245.666 576.672>
LayerCount: 2
Fore
SplineSet
208 392 m 0xf4
 191 392 172 391 165 391 c 1
 163 298 160 208 157 140 c 1
 168 147 178 151 186 151 c 0
 203 151 195 132 234 92 c 0
 283 44 342 37 371 37 c 0
 453 37 642 105 642 396 c 0
 642 642 483 779 324 779 c 0
 269 779 214 762 166 728 c 1
 167 689 168 642 168 590 c 0
 168 550 168 508 167 464 c 1
 196 467 231 469 263 469 c 0
 373 469 374 446 374 436 c 0
 374 409 330 370 308 370 c 0
 291 370 319 392 208 392 c 0xf4
162 783 m 1
 230 830 303 853 372 853 c 0
 555 853 716 700 716 443 c 0
 716 99 451 -37 324 -37 c 0
 230 -37 177 12 153 40 c 1
 153 26 152 18 152 17 c 0
 151 -7 116 -42 92 -42 c 0
 84 -42 79 -38 79 -28 c 0
 79 -28 79 -28 79 -27 c 0xec
 79 -27 89 180 93 385 c 1
 62 381 62 379 56 379 c 0
 46 379 45 387 45 390 c 0
 45 408 70 439 94 451 c 1
 94 486 94 516 94 544 c 0
 94 591 94 629 93 660 c 1
 81 650 69 644 60 644 c 0
 47 644 46 654 46 657 c 0xf4
 46 668 50 681 90 721 c 1
 85 781 79 770 79 781 c 0xec
 79 805 115 841 139 841 c 0
 149 841 156 838 162 783 c 1
EndSplineSet
Validated: 1
EndChar

StartChar: multiply
Encoding: 215 215 151
Width: 482
Flags: W
VStem: 71 350<350 398>
LayerCount: 2
Fore
SplineSet
390 128 m 0
 390 104 348 65 326 65 c 0
 322 65 319 66 317 68 c 0
 316 69 302 92 227 179 c 1
 147 90 133 70 125 62 c 0
 99 36 71 32 71 51 c 0
 71 67 98 102 198 212 c 1
 85 342 71 337 71 350 c 0
 71 373 111 414 134 414 c 0
 150 414 230 323 264 284 c 1
 360 387 387 412 408 412 c 0
 416 412 421 406 421 398 c 0
 421 388 414 373 399 358 c 0
 390 349 391 353 367 329 c 0
 348 310 322 282 293 251 c 1
 389 136 390 137 390 128 c 0
EndSplineSet
Validated: 1
EndChar

StartChar: Oslash
Encoding: 216 216 152
Width: 779
VWidth: 1748
Flags: W
HStem: -22 71<305.026 515.409> 769 75<313.422 488.882> 833 20G<698.5 715>
VStem: 56 75<-20.0939 71.9075 224.323 530.594> 648 74<219.067 560.37>
LayerCount: 2
Fore
SplineSet
434 844 m 0xd8
 507 844 565 800 605 753 c 1
 677 840 687 853 710 853 c 0xb8
 720 853 725 844 725 841 c 0
 725 830 706 807 632 717 c 1
 689 635 722 528 722 448 c 0
 722 129 552 -22 382 -22 c 0
 300 -22 218 13 154 81 c 1
 132 43 131 33 131 32 c 0
 131 4 87 -32 66 -32 c 0
 59 -32 55 -29 55 -20 c 0
 55 0 68 36 123 121 c 1
 76 186 56 264 56 343 c 0
 56 606 269 844 434 844 c 0xd8
648 401 m 0
 648 469 619 564 571 641 c 1
 447 487 297 296 207 164 c 1
 261 98 348 49 430 49 c 0
 543 49 648 141 648 401 c 0
179 204 m 1
 284 352 435 543 544 678 c 1
 494 742 440 769 388 769 c 0xd8
 251 769 131 578 131 391 c 0
 131 325 145 260 179 204 c 1
EndSplineSet
Validated: 1
EndChar

StartChar: Thorn
Encoding: 222 222 158
Width: 631
Flags: W
HStem: 122 74<152 339.566> 609 75<160.318 402.956>
VStem: 78 74<5.55285 122 196.222 604.293> 514 75<342.415 518.368>
LayerCount: 2
Fore
SplineSet
153 122 m 2
 152 122 l 1
 152 96 153 79 152 75 c 0
 145 26 90 -31 56 -31 c 0
 44 -31 43 -23 43 -18 c 0
 43 -4 57 18 78 33 c 1
 78 43 l 2
 78 46 75 236 75 312 c 0
 75 762 111 808 134 831 c 0
 149 846 163 853 173 853 c 0
 181 853 186 849 186 840 c 0
 186 824 170 821 159 677 c 1
 196 681 230 684 262 684 c 0
 492 684 589 581 589 467 c 0
 589 317 418 122 153 122 c 2
514 419 m 0
 514 515 429 609 215 609 c 0
 196 609 176 609 155 607 c 1
 151 528 150 440 150 359 c 0
 150 300 150 245 151 199 c 1
 167 198 183 196 198 196 c 0
 383 196 514 296 514 419 c 0
EndSplineSet
Validated: 1
EndChar

StartChar: germandbls
Encoding: 223 223 159
Width: 728
Flags: W
HStem: -33 74<237.281 325.625> 779 74<443.341 596.826>
VStem: 35 74<-107.614 115.085> 471 74<203.651 376.707> 619 74<594.258 755.608>
LayerCount: 2
Fore
SplineSet
244 -33 m 0
 228 -33 228 -23 228 -20 c 0
 228 1 261 41 288 41 c 0
 323 41 471 169 471 283 c 0
 471 386 355 438 353 439 c 0
 348 441 346 446 346 451 c 0
 346 472 378 510 405 512 c 0
 407 512 488 519 554 556 c 0
 590 576 619 602 619 667 c 0
 619 768 544 779 514 779 c 0
 462 779 416 747 381 712 c 0
 205 536 134 140 109 -59 c 0
 106 -83 72 -116 49 -116 c 0
 41 -116 35 -112 35 -103 c 0
 35 -94 90 484 349 743 c 0
 448 842 529 853 561 853 c 0
 680 853 693 754 693 713 c 0
 693 548 517 478 481 465 c 1
 523 426 545 381 545 330 c 0
 545 168 326 -33 244 -33 c 0
EndSplineSet
Validated: 1
EndChar

StartChar: aring
Encoding: 229 229 165
Width: 757
Flags: W
HStem: -22 74<180.501 362.792 554 652.368> 389 84<487.392 522.208> 526 81<285.477 344.608>
VStem: 49 74<108.766 312.034> 203 81<465.476 525.209> 347 81<464.497 554> 475 125<398.364 457.063>
AnchorPoint: "top" 335 680 basechar 0
AnchorPoint: "bottom" 242 15 basechar 0
LayerCount: 2
Fore
SplineSet
347 472 m 0
 345 523 291 526 285 526 c 1
 285 523 284 521 284 518 c 0
 284 490 303 464 338 464 c 0
 348 464 347 464 347 472 c 0
488 389 m 0
 479 389 475 394 475 402 c 0
 475 439 535 473 572 473 c 0
 582 473 600 467 600 443 c 0
 600 411 583 323 545 237 c 1
 551 218 556 199 561 182 c 0
 586 92 601 53 627 53 c 0
 632 53 637 54 642 56 c 0
 656 93 689 108 702 108 c 0
 710 108 715 104 715 95 c 0
 715 61 648 -22 579 -22 c 0
 529 -22 514 30 486 130 c 1
 392 -3 288 -22 237 -22 c 0
 95 -22 49 85 49 181 c 0
 49 288 119 384 207 431 c 1
 204 439 203 447 203 456 c 0
 203 526 279 607 344 607 c 0
 396 607 428 576 428 532 c 0
 428 506 415 476 395 450 c 1
 465 422 498 356 513 323 c 1
 528 382 524 392 528 393 c 1
 525 396 525 396 523 398 c 0
 506 394 496 389 488 389 c 0
123 227 m 0
 123 145 167 52 283 52 c 0
 358 52 415 88 467 194 c 1
 446 260 404 370 304 387 c 0
 295 384 285 383 276 383 c 0
 266 383 258 384 250 387 c 0
 183 376 123 326 123 227 c 0
EndSplineSet
Validated: 1
EndChar

StartChar: ae
Encoding: 230 230 166
Width: 1029
Flags: W
HStem: -54 74<182.164 361.049 605.919 829.649> 145 74<548.043 781.502> 365 74<160.776 312.707> 384 89<680.366 899.95>
VStem: 55 75<79.312 327.432> 900 74<321.59 419.5>
LayerCount: 2
Fore
SplineSet
951 117 m 0xdc
 960 117 964 111 964 102 c 0
 964 91 956 75 938 59 c 4
 854 -14 778 -54 676 -54 c 4
 548 -54 497 20 477 74 c 5
 382 -37 269 -54 211 -54 c 4
 79 -54 55 109 55 185 c 4
 55 334 153 439 281 439 c 4xec
 335 439 369 409 404 374 c 4
 471 307 471 307 483 297 c 5
 487 335 491 371 492 391 c 5
 483 385 472 378 470 376 c 4
 457 364 442 357 432 357 c 0
 420 357 419 367 419 371 c 0
 419 405 515 473 550 473 c 4
 567 473 567 459 567 449 c 4
 567 435 565 410 559 359 c 5
 642 431 752 459 842 459 c 4
 883 459 922 453 957 442 c 4
 969 438 974 427 974 412 c 4
 974 337 834 145 640 145 c 4
 598 145 563 154 541 161 c 5
 569 35 675 20 724 20 c 4
 871 20 913 117 951 117 c 0xdc
794 384 m 4xdc
 742 384 560 364 547 256 c 5
 580 239 632 219 690 219 c 4
 829 219 900 335 900 365 c 4xec
 900 374 842 384 794 384 c 4xdc
259 20 m 4
 381 20 443 90 462 139 c 5
 461 146 461 154 461 161 c 0
 461 174 462 185 464 197 c 5
 345 267 317 365 233 365 c 4
 184 365 162 347 159 344 c 4
 130 315 130 235 130 234 c 4
 130 181 147 20 259 20 c 4
EndSplineSet
Validated: 1
EndChar

StartChar: ccedilla
Encoding: 231 231 167
Width: 622
Flags: W
HStem: -551 75<171.546 368.573> -208 41<163.418 174> 388 75<234.885 486>
VStem: 44 74<131.672 311.717> 448 75<-424.03 -296.966>
LayerCount: 2
Fore
SplineSet
551 137 m 0
 560 137 565 131 565 123 c 0
 565 112 557 96 539 80 c 0
 480 27 416 -22 311 -29 c 1
 294 -72 264 -117 253 -134 c 1
 421 -144 523 -234 523 -328 c 0
 523 -423 413 -551 175 -551 c 0
 166 -551 162 -546 162 -538 c 0
 162 -514 200 -476 224 -476 c 0
 350 -474 414 -441 433 -422 c 0
 442 -413 448 -397 448 -379 c 0
 448 -298 346 -209 174 -208 c 0
 166 -208 162 -203 162 -196 c 0
 162 -188 166 -178 174 -167 c 2
 174 -167 197 -135 219 -98 c 0
 236 -69 248 -41 248 -29 c 0
 248 -28 248 -28 248 -27 c 0
 132 -12 44 76 44 187 c 0
 44 245 62 302 114 354 c 0
 205 445 348 463 553 463 c 0
 561 463 565 457 565 448 c 0
 565 415 506 317 465 317 c 0
 446 317 448 340 468 363 c 0
 477 374 482 382 486 388 c 1
 147 386 118 320 118 238 c 0
 118 126 220 44 334 44 c 0
 485 44 509 137 551 137 c 0
EndSplineSet
Validated: 1
EndChar

StartChar: eth
Encoding: 240 240 176
Width: 597
Flags: W
HStem: -30 73<145.02 312.233> 779 73<438.877 565.502>
VStem: 60 74<56.1207 204.248 397.051 509.155> 390 73<136.311 422.277>
LayerCount: 2
Fore
SplineSet
136 448 m 0
 136 424 98 389 75 389 c 0
 64 389 56 396 56 416 c 0
 56 474 151 599 265 699 c 1
 223 770 204 781 204 793 c 0
 204 816 243 853 265 853 c 0
 281 853 329 772 338 756 c 1
 428 820 513 852 553 852 c 0
 567 852 575 848 575 839 c 0
 575 818 541 780 515 779 c 0
 498 779 444 770 361 715 c 1
 453 534 463 378 463 318 c 0
 463 89 329 -30 177 -30 c 0
 95 -30 60 14 60 77 c 0
 60 196 184 383 360 475 c 1
 342 538 318 600 288 658 c 1
 188 572 130 484 130 463 c 0
 130 458 136 458 136 448 c 0
390 272 m 0
 390 332 380 388 372 424 c 1
 230 360 134 214 134 124 c 0
 134 77 161 43 224 43 c 0
 286 43 320 64 335 79 c 0
 386 130 390 242 390 272 c 0
EndSplineSet
Validated: 1
EndChar

StartChar: divide
Encoding: 247 247 183
Width: 462
VWidth: 2088
Flags: W
HStem: 68 126<174.594 265.614> 222 77<88.2295 327.235> 328 125<188.386 279.614>
VStem: 160 120<81.2106 180.789 333.138 428.679>
LayerCount: 2
Fore
SplineSet
174 369 m 0
 174 404 217 453 254 453 c 0
 275 453 294 437 294 412 c 0
 294 377 251 328 214 328 c 0
 192 328 174 345 174 369 c 0
200 68 m 0
 178 68 160 84 160 109 c 0
 160 144 203 194 240 194 c 0
 261 194 280 178 280 153 c 0
 280 118 237 68 200 68 c 0
228 222 m 0
 143 222 98 210 78 210 c 0
 69 210 65 212 65 220 c 0
 65 240 98 278 125 285 c 0
 150 291 221 299 283 299 c 0
 393 299 394 275 394 266 c 0
 394 239 350 200 328 200 c 0
 311 200 339 222 228 222 c 0
EndSplineSet
Validated: 1
EndChar

StartChar: oslash
Encoding: 248 248 184
Width: 645
Flags: W
HStem: -32 74<210.861 434.601> 387 75<186.857 435.472>
VStem: 55 75<123.942 332.37> 500 74<102.925 338.311>
LayerCount: 2
Fore
SplineSet
54 -11 m 0
 54 7 83 36 101 54 c 1
 56 114 55 173 55 187 c 0
 55 226 59 311 131 383 c 0
 199 451 283 462 345 462 c 0
 413 462 470 455 511 430 c 1
 536 450 554 463 566 463 c 0
 572 463 578 461 578 452 c 0
 578 438 563 416 544 401 c 1
 574 362 574 312 574 265 c 0
 574 13 390 -32 258 -32 c 0
 213 -32 166 -11 129 23 c 1
 103 -3 82 -24 67 -24 c 0
 61 -24 54 -19 54 -11 c 0
472 340 m 1
 397 274 280 167 198 89 c 1
 230 60 270 42 305 42 c 0
 328 42 428 44 467 83 c 0
 489 105 500 151 500 221 c 0
 500 263 500 307 472 340 c 1
437 366 m 1
 404 382 357 387 297 387 c 0
 157 387 130 331 130 234 c 0
 130 177 158 136 170 120 c 1
 263 208 376 311 437 366 c 1
EndSplineSet
Validated: 1
EndChar

StartChar: thorn
Encoding: 254 254 190
Width: 713
Flags: W
HStem: -13 73<167 395.864> 407 75<206 415.217> 795 70<49.3467 99.1113>
VStem: 38 73<-749.197 -179.829> 135 73<482 757.028> 587 75<166.416 294.197>
LayerCount: 2
Fore
SplineSet
38 -613 m 0
 38 -316 135 223 135 540 c 0
 135 655 122 741 87 776 c 0
 67 797 51 787 43 795 c 0
 40 797 39 801 39 805 c 0
 39 827 73 865 99 865 c 0
 179 865 208 763 208 584 c 0
 208 552 207 518 206 482 c 1
 508 481 662 378 662 266 c 0
 662 183 564 3 159 -13 c 1
 135 -222 111 -426 111 -569 c 0
 111 -660 121 -726 147 -751 c 0
 161 -766 171 -758 179 -765 c 0
 181 -768 182 -771 182 -775 c 0
 182 -797 148 -835 122 -835 c 0
 62 -835 38 -759 38 -613 c 0
201 407 m 1
 194 299 181 180 167 60 c 1
 377 63 587 117 587 216 c 0
 587 255 560 286 547 299 c 0
 492 354 376 400 201 407 c 1
EndSplineSet
Validated: 1
EndChar

StartChar: dotlessi
Encoding: 305 305 192
Width: 343
Flags: W
HStem: -32 76<163.888 233.525>
VStem: 67 76<52.141 437.605>
AnchorPoint: "bottom" 160 0 basechar 0
AnchorPoint: "top" 137 642 basechar 0
LayerCount: 2
Fore
SplineSet
297 70 m 0
 297 60 257 -32 152 -32 c 0
 148 -32 145 -32 141 -32 c 0
 110 -32 67 -8 67 228 c 0
 67 288 70 347 73 390 c 0
 75 415 113 453 137 453 c 0
 144 453 149 449 149 441 c 0
 149 439 143 363 143 283 c 0
 143 124 165 44 193 44 c 0
 206 44 224 44 234 47 c 1
 251 70 272 82 285 82 c 0
 296 82 297 74 297 70 c 0
EndSplineSet
Validated: 1
EndChar

StartChar: Lslash
Encoding: 321 321 193
Width: 706
Flags: W
HStem: 59 78<358.638 653.554> 833 20G<196 209.5>
VStem: 147 72<53 348.943 611.618 843.103> 163 74<55.7887 357 379.877 448.188 473 793.859>
LayerCount: 2
Fore
SplineSet
599 59 m 0xd0
 437 59 277 18 182 -23 c 0
 173 -29 164 -32 157 -32 c 0
 150 -32 145 -29 145 -21 c 0
 145 -18 146 -15 147 -10 c 1xe0
 149 20 156 185 160 357 c 1
 100 306 61 294 39 294 c 0
 33 294 30 297 30 303 c 0
 30 312 39 328 54 344 c 0
 100 390 84 339 161 407 c 1
 162 462 163 512 163 556 c 0xd0
 163 735 154 777 149 785 c 0
 148 788 147 791 147 794 c 0
 147 817 185 853 207 853 c 0
 212 853 216 852 219 847 c 0xe0
 225 837 237 810 237 602 c 0
 237 561 236 517 235 473 c 1
 272 502 313 527 353 527 c 0
 360 527 363 524 363 518 c 0
 363 508 353 491 339 477 c 0
 294 432 297 476 234 423 c 1
 231 265 224 111 222 53 c 1
 333 99 492 137 653 137 c 0
 661 137 665 132 665 125 c 0
 665 101 623 59 599 59 c 0xd0
EndSplineSet
Validated: 1
EndChar

StartChar: lslash
Encoding: 322 322 194
Width: 414
Flags: W
HStem: -23 76<185.5 322.56> 833 20G<237.5 253>
VStem: 150 76<63.6455 324 345.811 417.462 442 789.649>
LayerCount: 2
Fore
SplineSet
273 53 m 0
 287 53 305 53 314 56 c 1
 331 79 352 91 365 91 c 0
 374 91 377 86 377 79 c 0
 377 71 373 60 364 49 c 0
 310 -23 259 -23 221 -23 c 0
 150 -23 150 204 150 274 c 0
 150 290 150 307 150 324 c 1
 92 275 55 266 36 266 c 0
 30 266 27 269 27 275 c 0
 27 285 36 301 51 316 c 0
 95 360 85 316 152 374 c 1
 158 558 180 744 185 792 c 0
 188 816 226 853 249 853 c 0
 257 853 261 849 261 841 c 0
 261 837 236 647 229 442 c 1
 266 472 309 499 350 499 c 0
 357 499 360 496 360 490 c 0
 360 480 350 463 336 449 c 0
 289 403 296 451 227 392 c 1
 227 370 226 349 226 329 c 0
 226 75 265 53 273 53 c 0
EndSplineSet
Validated: 1
EndChar

StartChar: Eng
Encoding: 330 330 195
Width: 1015
Flags: W
HStem: -837 74<578.177 734.873> -184 82<561.368 758.435> -31 74<606.129 764.101> 774 75<674.732 781.595> 833 20G<117.5 338.5>
VStem: 70 73<-22.1499 389.126> 85 74<187.917 766.839> 410 74<-639.441 -292.843> 859 74<-536.281 110 154.8 655.022>
LayerCount: 2
Fore
SplineSet
933 424 m 0xf380
 933 414 933 405 933 395 c 2
 933 41 l 2
 933 40 933 40 933 39 c 0
 933 -104 934 -177 934 -179 c 0
 934 -373 913 -521 866 -633 c 0
 806 -777 705 -837 614 -837 c 0
 481 -837 410 -663 410 -491 c 0
 410 -245 547 -102 689 -102 c 0
 710 -102 732 -105 755 -111 c 0
 762 -113 765 -117 765 -124 c 0
 765 -145 730 -184 705 -184 c 0
 703 -184 702 -184 700 -184 c 0
 684 -180 664 -177 644 -177 c 0
 612 -177 577 -184 553 -209 c 0
 486 -276 484 -425 484 -443 c 0
 484 -601 550 -763 660 -763 c 0
 709 -763 735 -746 751 -730 c 0
 851 -630 860 -331 860 -231 c 0
 860 -229 859 -92 859 -32 c 0
 859 -17 859 -7 859 -5 c 2
 859 110 l 1
 808 21 731 -31 655 -31 c 0
 321 -31 449 671 155 767 c 1
 158 724 159 666 159 602 c 0xf380
 159 364 144 36 143 28 c 0
 142 4 107 -31 83 -31 c 0
 75 -31 69 -26 70 -16 c 0xf580
 70 -10 85 314 85 555 c 0
 85 718 78 768 73 782 c 1
 70 784 69 788 69 792 c 0
 69 814 104 853 131 853 c 0xeb80
 546 853 375 43 703 43 c 0
 752 43 777 66 798 102 c 0
 855 198 859 340 859 375 c 0
 859 531 824 774 724 774 c 0
 674 774 633 707 606 707 c 0
 603 707 599 708 596 711 c 0
 593 714 592 717 592 721 c 0
 592 757 699 849 772 849 c 0
 928 849 933 477 933 424 c 0xf380
EndSplineSet
Validated: 1
EndChar

StartChar: eng
Encoding: 331 331 196
Width: 716
Flags: W
HStem: -846 73<284.177 441.081> -193 81<267.512 463.695> -40 165<54.0853 116.996> 379 74<317.477 447.55>
VStem: 116 74<-648.645 -301.959> 566 74<-545.281 225.134>
LayerCount: 2
Fore
SplineSet
639 30 m 0
 639 29 639 28 639 27 c 0
 639 -175 640 -186 640 -189 c 0
 640 -382 619 -531 572 -642 c 0
 512 -786 412 -846 320 -846 c 0
 187 -846 116 -672 116 -500 c 0
 116 -254 253 -112 395 -112 c 0
 417 -112 438 -115 461 -120 c 0
 468 -122 471 -127 471 -133 c 0
 471 -154 436 -193 411 -193 c 0
 409 -193 408 -193 406 -193 c 0
 390 -189 370 -186 350 -186 c 0
 318 -186 284 -193 259 -218 c 0
 192 -285 190 -434 190 -452 c 0
 190 -610 256 -773 366 -773 c 0
 415 -773 441 -755 457 -739 c 0
 557 -639 566 -340 566 -240 c 0
 566 -238 565 -43 565 -17 c 0
 565 304 445 377 338 379 c 1
 263 278 212 -40 110 -40 c 0
 45 -40 43 54 43 64 c 0
 43 88 80 125 104 125 c 0
 112 125 117 121 117 112 c 0
 117 112 117 64 139 42 c 1
 172 118 218 279 273 367 c 0
 324 449 372 453 382 453 c 0
 584 453 639 250 639 30 c 0
EndSplineSet
Validated: 1
EndChar

StartChar: OE
Encoding: 338 338 197
Width: 1162
Flags: W
HStem: -42 74<290.291 512.161> 55 77<743.351 1032.55> 411 75<737.543 1046.58> 751 73<310.131 478.904> 777 76<745.573 1128.95>
VStem: 49 74<209.569 510.961> 525 71<45.2048 319.198> 537 74<47.6094 349.843 384 697.899>
LayerCount: 2
Fore
SplineSet
606 766 m 1xf6
 769 839 913 853 1016 853 c 0
 1050 853 1079 851 1103 850 c 0
 1136 848 1137 848 1137 837 c 0
 1137 812 1098 773 1074 773 c 0
 1073 773 989 777 965 777 c 0
 749 777 610 709 609 706 c 0
 610 673 611 637 611 597 c 0xed
 611 530 609 456 608 384 c 1
 716 461 852 486 951 486 c 0
 977 486 1078 482 1078 456 c 0
 1078 434 1041 395 1017 395 c 0
 1016 395 981 411 904 411 c 0
 727 411 626 340 606 325 c 1
 602 201 598 91 596 45 c 1
 707 93 868 132 1033 132 c 0
 1041 132 1044 128 1044 121 c 0
 1044 96 1002 55 978 55 c 0
 810 55 644 10 551 -33 c 0
 527 -44 521 -28 521 -20 c 0
 521 -20 521 -13 522 0 c 1
 453 -42 388 -42 371 -42 c 0
 192 -42 49 132 49 306 c 0
 49 604 270 824 426 824 c 0
 463 824 495 814 523 798 c 1
 531 824 563 848 581 848 c 0
 593 848 601 839 606 766 c 1xf6
123 353 m 0
 123 198 255 32 419 32 c 0
 459 32 495 42 525 59 c 1xf6
 533 260 537 432 537 551 c 0
 537 596 536 632 535 661 c 1
 473 738 414 751 380 751 c 0xf5
 258 751 123 576 123 353 c 0
EndSplineSet
Validated: 1
EndChar

StartChar: oe
Encoding: 339 339 198
Width: 1082
Flags: W
HStem: -3 74<203.695 424.451 660.011 880.352> 227 75<662.832 917.322> 417 74<178.425 452.158 704.846 950.999>
VStem: 47 74<155.891 360.348> 492 73<215.02 347.927> 951 75<335.483 470>
LayerCount: 2
Fore
SplineSet
1026 447 m 0
 1026 363 945 227 789 227 c 0
 734 227 680 243 634 262 c 0
 629 264 627 268 627 274 c 0
 627 295 657 334 688 334 c 0
 720 334 755 302 839 302 c 0
 930 302 951 353 951 399 c 0
 951 407 950 414 948 418 c 1
 728 418 624 373 591 340 c 0
 568 317 565 281 565 266 c 0
 565 163 661 74 781 74 c 0
 876 74 917 108 964 147 c 0
 997 175 1013 166 1013 152 c 0
 1013 140 1002 120 984 106 c 0
 922 54 855 0 733 0 c 0
 636 0 558 48 519 115 c 1
 440 1 304 -3 249 -3 c 0
 153 -3 47 94 47 216 c 0
 47 255 51 340 122 412 c 0
 191 480 274 491 336 491 c 0
 453 491 540 472 561 372 c 1
 621 431 733 493 996 493 c 0
 1005 493 1026 493 1026 447 c 0
492 254 m 0
 492 364 466 417 289 417 c 0
 149 417 121 361 121 263 c 0
 121 158 220 71 296 71 c 0
 319 71 420 73 459 112 c 0
 483 136 489 186 491 215 c 0
 491 215 492 243 492 254 c 0
EndSplineSet
Validated: 1
EndChar

StartChar: caron
Encoding: 711 711 199
Width: 429
Flags: W
HStem: 901 214
VStem: 97 133<1007.01 1074.43>
AnchorPoint: "mkmk" 219 1154 mark 0
AnchorPoint: "mkmk" 215 855 basemark 0
AnchorPoint: "top" 219 958 mark 0
LayerCount: 2
Fore
SplineSet
333 1094 m 0
 333 1081 318 1061 300 1050 c 1
 283 1022 261 964 254 942 c 0
 247 922 221 901 207 901 c 0
 204 901 201 902 199 904 c 0
 198 905 146 1013 107 1053 c 0
 97 1062 97 1062 97 1066 c 0
 97 1085 127 1115 145 1115 c 0
 169 1115 230 1003 230 1001 c 1
 271 1091 305 1104 322 1104 c 0
 331 1104 333 1098 333 1094 c 0
EndSplineSet
Validated: 1
EndChar

StartChar: breve
Encoding: 728 728 200
Width: 511
Flags: W
HStem: 915 77<187.71 348.131>
VStem: 73 77<1029.41 1081.04>
AnchorPoint: "mkmk" 238 1153 mark 0
AnchorPoint: "mkmk" 236 858 basemark 0
AnchorPoint: "top" 239.422 962 mark 0
LayerCount: 2
Fore
SplineSet
294 992 m 0
 323 992 345 1001 352 1008 c 0
 357 1013 392 1094 433 1094 c 0
 440 1094 443 1090 443 1084 c 0
 443 1063 370 915 237 915 c 0
 156 915 73 971 73 1027 c 0
 73 1050 116 1094 140 1094 c 0
 146 1094 150 1091 150 1084 c 0
 150 1047 221 992 294 992 c 0
EndSplineSet
Validated: 1
EndChar

StartChar: ogonek
Encoding: 731 731 201
Width: 438
Flags: W
HStem: -541 74<228.689 360.985>
VStem: 62 74<-382.42 -185.536>
AnchorPoint: "bottom" 298 1 mark 0
LayerCount: 2
Fore
SplineSet
361 -467 m 0
 369 -467 372 -471 372 -478 c 0
 372 -499 336 -541 307 -541 c 0
 157 -541 62 -445 62 -322 c 0
 62 -129 282 22 308 22 c 0
 316 22 320 18 320 11 c 0
 320 1 313 -14 297 -29 c 0
 281 -46 253 -58 214 -97 c 0
 161 -150 136 -212 136 -269 c 0
 136 -375 219 -467 359 -467 c 0
 360 -467 361 -467 361 -467 c 0
EndSplineSet
Validated: 1
EndChar

StartChar: hungarumlaut
Encoding: 733 733 202
Width: 606
Flags: W
HStem: 910 83<113.402 224.856 287.666 399.204>
VStem: 96 414
AnchorPoint: "mkmk" 322 1182 mark 0
AnchorPoint: "mkmk" 272 854 basemark 0
AnchorPoint: "top" 272.104 960 mark 0
LayerCount: 2
Fore
SplineSet
171 993 m 0
 171 993 173 993 174 993 c 0
 199 993 220 998 234 1006 c 1
 241 1017 248 1034 254 1051 c 0
 263 1078 307 1118 328 1118 c 0
 333 1118 336 1116 336 1110 c 0
 336 1086 262 910 110 910 c 0
 101 910 96 910 96 918 c 0
 96 942 147 993 171 993 c 0
345 993 m 0
 346 993 347 993 348 993 c 0
 373 993 395 998 408 1006 c 1
 416 1017 422 1034 428 1051 c 0
 438 1078 481 1118 502 1118 c 0
 507 1118 510 1116 510 1110 c 0
 510 1086 436 910 285 910 c 0
 275 910 270 910 270 918 c 0
 270 942 322 993 345 993 c 0
EndSplineSet
Validated: 1
EndChar

StartChar: uni1E9E
Encoding: 7838 7838 203
Width: 1085
Flags: W
HStem: -39 74<80.1361 298.762 561.197 745.984> 779 74<391.777 588.991 838.963 1035.99>
VStem: 101 74<449.9 598.866> 482 74<160.655 283.484> 521 87<734.083 778.755> 548 74<449.9 598.866> 929 74<160.655 283.484> 968 87<734.083 778.755>
LayerCount: 2
Fore
SplineSet
631 35 m 0xe6
 724 35 929 109 929 215 c 0xe6
 929 390 548 264 548 471 c 0
 548 666 794 853 1017 853 c 0
 1029 853 1055 846 1055 816 c 0
 1055 778 1015 721 982 721 c 0
 973 721 968 725 968 734 c 0xe5
 968 754 997 774 969 779 c 1
 823 778 622 679 622 518 c 0
 622 344 1003 466 1003 263 c 0
 1003 104 745 -39 586 -39 c 0
 526 -39 485 -18 485 30 c 0
 485 56 524 91 546 91 c 0
 572 91 538 35 631 35 c 0xe6
184 35 m 0
 276 35 482 109 482 215 c 0xf0
 482 390 101 264 101 471 c 0
 101 666 347 853 570 853 c 0
 582 853 608 846 608 816 c 0
 608 778 568 721 535 721 c 0
 526 721 521 725 521 734 c 0
 521 754 549 774 521 779 c 1xe8
 376 778 175 679 175 518 c 0
 175 344 556 466 556 263 c 0xf0
 556 104 298 -39 139 -39 c 0
 51 -39 38 4 38 30 c 0
 38 56 77 91 99 91 c 0
 125 91 91 35 184 35 c 0
EndSplineSet
Validated: 1
EndChar

StartChar: endash
Encoding: 8211 8211 204
Width: 821
Flags: W
HStem: 198 82<83.8947 729.027>
VStem: 77 665<211.778 270.686>
LayerCount: 2
Fore
SplineSet
138 280 m 0
 140 280 198 271 349 271 c 0
 506 271 675 280 730 280 c 0
 738 280 742 275 742 267 c 0
 742 244 705 207 681 207 c 0
 677 207 404 198 300 198 c 0
 222 198 145 200 87 207 c 0
 80 208 77 212 77 219 c 0
 77 243 114 280 138 280 c 0
EndSplineSet
Validated: 1
EndChar

StartChar: emdash
Encoding: 8212 8212 205
Width: 1100
Flags: W
HStem: 189 73<112.105 792.457> 209 72<85.314 353.851 595.547 1006.76>
LayerCount: 2
Fore
SplineSet
137 281 m 0x40
 139 281 200 262 406 262 c 0
 651 262 952 287 1008 287 c 0
 1017 287 1021 282 1021 275 c 0
 1021 251 983 214 960 214 c 0
 893 214 601 189 359 189 c 0x80
 249 189 149 194 84 209 c 0
 79 210 76 215 76 221 c 0
 76 244 113 281 137 281 c 0x40
EndSplineSet
Validated: 1
EndChar

StartChar: Aogonek
Encoding: 260 260 210
Width: 710
Flags: W
HStem: -540 74<520.689 652.985> 779 74<244.352 396.758>
VStem: 90 74<230.323 611.465> 354 74<-381.42 -185.167> 562 75<-16.8965 377.878>
LayerCount: 2
Fore
SplineSet
653 -466 m 2
 661 -466 664 -470 664 -477 c 0
 664 -498 628 -540 599 -540 c 0
 449 -540 354 -444 354 -321 c 0
 354 -168 492 -42 562 4 c 1
 558 85 541 296 534 382 c 1
 276 362 164 219 113 22 c 0
 105 -11 67 -35 47 -35 c 0
 40 -35 35 -31 35 -23 c 0
 35 -18 37 -11 43 -1 c 0
 83 142 90 341 90 344 c 0
 104 833 306 853 338 853 c 0
 557 853 597 565 606 459 c 1
 623 460 638 460 643 460 c 0
 651 460 655 455 655 448 c 0
 655 430 634 403 611 390 c 0
 612 387 637 61 637 36 c 0
 637 19 619 -4 600 -17 c 0
 597 -20 593 -24 589 -28 c 0
 573 -45 545 -57 506 -96 c 0
 453 -149 428 -211 428 -268 c 0
 428 -374 511 -466 651 -466 c 0
 652 -466 653 -466 653 -466 c 2
528 451 m 1
 509 591 452 779 291 779 c 0
 177 779 165 415 164 390 c 0
 163 346 158 285 151 225 c 1
 265 380 414 434 528 451 c 1
EndSplineSet
Validated: 1
EndChar

StartChar: aogonek
Encoding: 261 261 211
Width: 779
Flags: W
HStem: -470 74<613.689 745.985> -22 74<180.501 362.792> -17 125<639.322 675.607> 389 74<199.864 376.067 483.819 522.208>
VStem: 49 74<108.766 309.642> 447 74<-311.42 -113.792> 475 125<398.364 457.063>
LayerCount: 2
Fore
SplineSet
746 -396 m 6xbc
 754 -396 757 -400 757 -407 c 4
 757 -428 721 -470 692 -470 c 4
 542 -470 447 -374 447 -251 c 4xbc
 447 -159 497 -77 552 -15 c 5
 522 1 508 51 486 130 c 5
 392 -3 288 -22 237 -22 c 4
 95 -22 49 85 49 181 c 4
 49 334 192 463 324 463 c 4
 444 463 494 365 513 323 c 5
 528 382 524 392 528 393 c 5
 525 396 525 396 523 398 c 4
 506 394 496 389 488 389 c 4
 479 389 475 394 475 402 c 4
 475 439 535 473 572 473 c 4
 582 473 600 467 600 443 c 4xda
 600 411 583 323 545 237 c 5
 551 218 556 199 561 182 c 4
 586 94 600 54 626 53 c 5
 634 59 642 65 649 70 c 4
 665 97 691 108 702 108 c 4
 710 108 715 104 715 95 c 4
 715 66 666 0 608 -17 c 4
 605 -20 602 -23 599 -26 c 4
 546 -79 521 -141 521 -198 c 4
 521 -304 604 -396 744 -396 c 4
 745 -396 746 -396 746 -396 c 6xbc
123 227 m 4
 123 145 167 52 283 52 c 4xd8
 358 52 415 88 467 194 c 5
 444 266 397 389 277 389 c 4
 201 389 123 340 123 227 c 4
EndSplineSet
Validated: 1
EndChar

StartChar: Eogonek
Encoding: 280 280 228
Width: 871
Flags: W
HStem: -541 74<195.689 327.985> 55 77<452.691 741.372> 395 73<662.523 775.815> 411 75<445.569 751.429> 773 80<446.555 836.889>
VStem: 29 74<-382.42 -185.181> 229 72<45 319.198 766.907 838.851> 245 74<141.351 349.843 384 722.529>
LayerCount: 2
Fore
SplineSet
328 -467 m 2xdd
 336 -467 339 -471 339 -478 c 0
 339 -499 303 -541 274 -541 c 0
 124 -541 29 -445 29 -322 c 0
 29 -174 158 -51 230 -2 c 1
 233 71 245 342 245 551 c 0xdd
 245 730 236 772 231 780 c 0
 230 783 229 786 229 789 c 0
 229 812 267 849 289 849 c 0
 294 849 298 847 301 842 c 0xde
 310 827 313 785 314 766 c 1
 477 839 621 853 725 853 c 0
 758 853 787 851 811 850 c 0
 844 848 846 848 846 837 c 0
 846 812 806 773 782 773 c 2
 782 773 782 773 781 773 c 0
 689 777 689 777 674 777 c 0
 547 777 431 755 317 708 c 1
 318 675 319 638 319 597 c 0
 319 530 317 456 316 384 c 1
 424 461 560 486 660 486 c 0xdd
 714 486 757 479 779 468 c 0
 784 465 786 461 786 456 c 0
 786 434 749 395 725 395 c 0xed
 723 395 720 395 718 397 c 0
 701 405 661 411 612 411 c 0
 435 411 334 340 314 325 c 1
 311 201 306 91 304 45 c 1
 415 93 576 132 741 132 c 0
 749 132 753 128 753 121 c 0
 753 96 711 55 686 55 c 0
 519 55 354 11 261 -32 c 1
 244 -48 218 -60 181 -97 c 0
 128 -150 103 -212 103 -269 c 0
 103 -375 186 -467 326 -467 c 0
 327 -467 328 -467 328 -467 c 2xdd
EndSplineSet
Validated: 1
EndChar

StartChar: eogonek
Encoding: 281 281 229
Width: 635
Flags: W
HStem: -540 74<225.689 357.985> -30 74<244.409 440.909> 197 75<217.355 472.322> 388 75<262.134 505.999>
VStem: 59 74<-381.42 -184.789 115.808 319.983> 506 75<306.176 440>
LayerCount: 2
Fore
SplineSet
358 -466 m 2
 366 -466 369 -470 369 -477 c 0
 369 -498 333 -540 304 -540 c 0
 154 -540 59 -444 59 -321 c 0
 59 -193 156 -83 229 -24 c 1
 119 0 46 90 46 187 c 0
 46 239 66 293 114 341 c 0
 174 401 286 463 551 463 c 0
 560 463 581 463 581 417 c 0
 581 333 500 197 344 197 c 0
 289 197 235 213 188 232 c 0
 183 234 181 239 181 244 c 0
 181 265 212 304 243 304 c 0
 275 304 310 272 394 272 c 0
 485 272 506 322 506 369 c 0
 506 377 505 383 503 388 c 1
 283 388 179 343 146 310 c 0
 130 294 120 267 120 236 c 0
 120 133 216 44 336 44 c 0
 431 44 471 78 518 117 c 0
 534 130 547 135 555 135 c 0
 564 135 568 129 568 122 c 0
 568 109 556 90 539 76 c 0
 478 25 411 -29 292 -30 c 1
 276 -46 248 -59 211 -96 c 0
 158 -149 133 -211 133 -268 c 0
 133 -374 216 -466 356 -466 c 0
 357 -466 358 -466 358 -466 c 2
EndSplineSet
Validated: 1
EndChar

StartChar: Iogonek
Encoding: 302 302 247
Width: 607
Flags: W
HStem: -544 74<197.689 329.985> -46 21G<52 63> 46 77<319.52 554.554> 776 77<327.627 554.554>
VStem: 31 74<-385.42 -189.167> 240 73<0.188229 14 98 489.952> 255 73<98 744.481>
LayerCount: 2
Fore
SplineSet
330 -470 m 2xfa
 338 -470 341 -474 341 -481 c 0
 341 -502 305 -544 276 -544 c 0
 126 -544 31 -448 31 -325 c 0
 31 -172 169 -46 239 0 c 0
 240 4 240 9 240 14 c 1xfc
 119 -15 71 -46 55 -46 c 0
 49 -46 47 -42 47 -34 c 0
 47 7 111 44 243 80 c 1
 251 273 255 438 255 554 c 0
 255 656 252 714 248 746 c 1
 122 717 72 684 55 684 c 0
 49 684 47 687 47 696 c 0
 47 733 101 771 245 810 c 1
 253 825 277 851 296 851 c 0
 305 851 313 845 317 828 c 1
 392 843 473 853 555 853 c 0
 563 853 566 849 566 842 c 0
 566 817 524 776 500 776 c 0
 440 776 381 770 325 761 c 1
 327 718 328 662 328 601 c 0xfa
 328 428 320 209 316 98 c 1
 391 113 472 123 555 123 c 0
 563 123 566 119 566 112 c 0
 566 87 524 46 500 46 c 0
 436 46 372 39 313 29 c 1xfc
 312 7 291 -16 272 -26 c 0
 270 -28 268 -30 266 -32 c 0
 250 -49 222 -61 183 -100 c 0
 130 -153 105 -215 105 -272 c 0
 105 -378 188 -470 328 -470 c 0
 329 -470 330 -470 330 -470 c 2xfa
EndSplineSet
Validated: 1
EndChar

StartChar: iogonek
Encoding: 303 303 248
Width: 447
Flags: W
HStem: -525 74<195.689 327.985> -32 76<276.888 346.525> 585 125<176.386 266.908>
VStem: 29 74<-366.42 -169.252> 162 119<597.497 697.425> 180 76<49.8556 437.605>
LayerCount: 2
Fore
SplineSet
328 -451 m 2xf4
 336 -451 339 -455 339 -462 c 0
 339 -483 303 -525 274 -525 c 0
 124 -525 29 -429 29 -306 c 0
 29 -171 136 -57 210 0 c 1
 193 33 180 98 180 228 c 0
 180 288 183 347 186 390 c 0
 188 415 226 453 250 453 c 0
 257 453 262 449 262 441 c 0
 262 439 256 363 256 283 c 0
 256 124 278 44 306 44 c 0
 319 44 337 44 347 47 c 1
 364 70 385 82 398 82 c 0
 409 82 410 74 410 70 c 0
 410 60 370 -32 265 -32 c 0
 261 -32 258 -32 254 -32 c 0
 250 -32 246 -32 242 -31 c 0
 227 -42 206 -56 181 -81 c 0
 128 -134 103 -196 103 -253 c 0
 103 -359 186 -451 326 -451 c 0
 327 -451 328 -451 328 -451 c 2xf4
242 710 m 0
 265 710 281 692 281 669 c 0
 281 634 239 585 202 585 c 0
 180 585 162 601 162 626 c 0xf8
 162 662 205 710 242 710 c 0
EndSplineSet
Validated: 1
EndChar

StartChar: dotaccent
Encoding: 729 729 252
Width: 314
Flags: W
HStem: 902 125<110.386 200.908>
VStem: 96 119<914.497 1014.43>
AnchorPoint: "mkmk" 157 1118 mark 0
AnchorPoint: "mkmk" 153 857 basemark 0
AnchorPoint: "top" 150.115 956 mark 0
LayerCount: 2
Fore
SplineSet
176 1027 m 0
 199 1027 215 1009 215 986 c 0
 215 951 173 902 136 902 c 0
 114 902 96 918 96 943 c 0
 96 979 139 1027 176 1027 c 0
EndSplineSet
Validated: 1
EndChar

StartChar: uni0237
Encoding: 567 567 265
Width: 628
Flags: W
HStem: -786 74<197.177 353.873> -133 82<180.368 376.695>
VStem: 29 74<-588.178 -239.376> 479 73<-484.785 255.296>
AnchorPoint: "bottom" 334 -89 basechar 0
AnchorPoint: "top" 207 647 basechar 0
LayerCount: 2
Fore
SplineSet
308 -51 m 0
 329 -51 351 -54 374 -60 c 0
 381 -61 384 -66 384 -72 c 0
 384 -93 349 -133 324 -133 c 0
 322 -133 321 -133 319 -132 c 0
 303 -128 283 -125 263 -125 c 0
 230 -125 196 -133 172 -158 c 0
 105 -225 103 -374 103 -391 c 0
 103 -550 169 -712 279 -712 c 0
 328 -712 354 -695 370 -679 c 0
 470 -578 479 -280 479 -179 c 0
 479 -153 479 -153 478 44 c 0
 478 196 446 303 313 453 c 0
 310 456 309 460 309 463 c 0
 309 486 346 523 369 523 c 0
 373 523 377 522 380 519 c 0
 516 366 552 250 552 90 c 0
 552 -53 552 -126 552 -128 c 0
 552 -321 532 -470 485 -582 c 0
 425 -726 324 -786 233 -786 c 0
 100 -786 29 -612 29 -439 c 0
 29 -194 166 -51 308 -51 c 0
EndSplineSet
Validated: 1
EndChar

StartChar: Scedilla
Encoding: 350 350 288
Width: 639
Flags: W
HStem: -548 75<46.5459 243.573> -205 242<94 220> -205 41<38.418 49> -38 129<44.3581 120.248> 779 74<393.345 590.99>
VStem: 103 74<449.672 603.179> 323 75<-421.03 -294.188> 484 74<159.062 283.439> 523 87<734.083 778.755>
LayerCount: 2
Fore
SplineSet
176 35 m 0xbf
 180 36 183 37 186 37 c 0
 189 37 191 36 193 35 c 0
 288 39 484 112 484 215 c 0xcf
 484 390 103 264 103 471 c 0
 103 666 348 853 572 853 c 0
 583 853 610 846 610 816 c 0
 610 778 570 721 537 721 c 0
 528 721 523 725 523 734 c 0
 523 754 551 774 523 779 c 1xce80
 377 779 177 679 177 518 c 0
 177 343 558 465 558 263 c 0
 558 117 341 -15 182 -36 c 1
 165 -76 138 -115 128 -131 c 1
 296 -141 398 -231 398 -325 c 0
 398 -420 288 -548 50 -548 c 0
 42 -548 37 -543 37 -535 c 0
 37 -511 75 -473 99 -473 c 0
 225 -471 289 -438 308 -419 c 0
 317 -410 323 -395 323 -376 c 0
 323 -296 220 -206 49 -205 c 0
 41 -205 37 -201 37 -193 c 0
 37 -185 41 -175 49 -164 c 2
 49 -164 72 -132 94 -95 c 0
 107 -73 116 -52 121 -38 c 1
 51 -32 40 6 40 30 c 0
 40 56 79 91 101 91 c 0
 126 91 94 39 176 35 c 0xbf
EndSplineSet
Validated: 1
EndChar

StartChar: scedilla
Encoding: 351 351 289
Width: 631
Flags: W
HStem: -550 75<173.546 370.573> -207 41<165.418 176> 388 75<215.668 486>
VStem: 44 75<92.2122 160.203> 90 75<235.5 353.11> 450 75<-423.03 -296.188> 491 75<69.3101 160.449>
LayerCount: 2
Fore
SplineSet
334 44 m 4xf4
 394 44 455 62 491 85 c 5
 491 90 l 6
 491 116 490 132 474 148 c 4
 401 221 90 183 90 288 c 4
 90 329 120 363 133 376 c 4
 191 434 288 463 553 463 c 4
 562 463 565 457 565 448 c 4
 565 415 506 317 465 317 c 4
 447 317 448 340 468 363 c 4
 477 374 483 382 486 388 c 5
 379 387 222 381 166 346 c 4
 165 343 165 341 165 339 c 4
 165 267 466 291 542 215 c 4
 563 194 566 175 566 122 c 4xea
 566 64 451 -19 313 -29 c 5
 296 -71 266 -116 255 -133 c 5
 423 -143 525 -233 525 -327 c 4
 525 -422 415 -550 177 -550 c 4
 169 -550 164 -545 164 -537 c 4
 164 -513 202 -475 226 -475 c 4
 352 -473 416 -440 435 -421 c 4
 444 -412 450 -397 450 -378 c 4
 450 -298 347 -208 176 -207 c 4
 168 -207 164 -203 164 -195 c 4
 164 -187 168 -177 176 -166 c 6
 176 -166 199 -134 221 -97 c 4
 238 -68 249 -41 250 -29 c 5
 135 -21 44 26 44 107 c 4
 44 131 81 169 105 169 c 4
 113 169 119 165 119 156 c 4
 119 91 213 44 334 44 c 4xf4
EndSplineSet
Validated: 1
EndChar

StartChar: uni0162
Encoding: 354 354 292
Width: 716
Flags: W
HStem: -523 75<235.546 432.573> -180 41<227.418 238> 810 76<399.671 687.222>
VStem: 313 73<-0.859375 418.996> 329 74<181.794 793.763> 512 75<-396.03 -269.188>
LayerCount: 2
Fore
SplineSet
386 34 m 0xf4
 377 -15 331 -84 317 -106 c 1
 485 -116 587 -206 587 -300 c 0
 587 -395 477 -523 239 -523 c 0
 231 -523 226 -518 226 -510 c 0
 226 -486 264 -448 288 -448 c 0
 414 -446 478 -413 497 -394 c 0
 506 -385 512 -370 512 -351 c 0
 512 -271 409 -181 238 -180 c 0
 230 -180 226 -176 226 -168 c 0
 226 -160 230 -150 238 -139 c 2
 238 -139 261 -107 283 -70 c 0
 300 -40 312 -13 312 -1 c 0
 312 2 313 5 313 8 c 0xf4
 316 66 329 350 329 569 c 0
 329 730 322 780 317 795 c 1
 129 767 56 712 34 712 c 0
 28 712 25 716 25 725 c 0
 25 742 46 770 71 782 c 0
 238 867 436 886 611 886 c 0
 697 886 697 885 697 872 c 0
 697 848 658 810 634 810 c 0
 611 810 587 811 561 811 c 0
 510 811 454 809 397 804 c 1
 401 760 403 692 403 615 c 0xec
 403 377 387 50 387 42 c 0
 387 39 386 37 386 34 c 0xf4
EndSplineSet
Validated: 1
EndChar

StartChar: uni0163
Encoding: 355 355 293
Width: 594
Flags: W
HStem: -550 75<101.546 298.573> -207 41<93.418 104> 344 123<46.5089 119.969 313.02 439.073> 344 77<203 425.153> 553 20G<221.5 235.5>
VStem: 85 76<60.6879 343.358> 378 75<-423.03 -296.188>
LayerCount: 2
Fore
SplineSet
37 399 m 4xde
 37 421 79 464 102 464 c 4
 112 464 113 455 145 442 c 5
 155 475 164 502 170 519 c 4
 178 544 211 573 232 573 c 4
 239 573 244 569 244 561 c 4
 244 560 209 449 203 427 c 5
 226 423 252 421 277 421 c 4xde
 412 421 472 467 492 467 c 4xee
 497 467 500 463 500 455 c 4
 500 399 370 344 223 344 c 4
 210 344 196 344 183 345 c 5
 169 282 161 226 161 180 c 4
 161 96 187 44 245 44 c 4
 362 44 467 121 473 145 c 4
 480 172 516 202 536 202 c 4
 546 202 548 196 548 190 c 4
 548 132 406 -5 241 -29 c 5
 224 -71 194 -116 183 -133 c 5
 351 -143 453 -233 453 -327 c 4
 453 -422 343 -550 105 -550 c 4
 97 -550 92 -545 92 -537 c 4
 92 -513 130 -475 154 -475 c 4
 280 -473 344 -440 363 -421 c 4
 372 -412 378 -397 378 -378 c 4
 378 -298 275 -208 104 -207 c 4
 96 -207 92 -203 92 -195 c 4
 92 -187 96 -177 104 -166 c 6
 104 -166 127 -134 149 -97 c 4
 165 -69 176 -44 178 -31 c 5
 109 -23 85 43 85 127 c 4
 85 198 101 282 120 355 c 5
 86 363 37 383 37 399 c 4xde
EndSplineSet
Validated: 1
EndChar

StartChar: tcaron
Encoding: 357 357 295
Width: 599
Flags: W
HStem: -32 76<184.606 354.263> 344 77<206 320> 355 109<47.7469 122.969> 553 20G<224.5 238.5 431 445.5>
VStem: 88 76<60.3576 343.358> 369 83<445.346 556.23>
LayerCount: 2
Fore
SplineSet
40 399 m 0xbc
 40 421 82 464 105 464 c 0xbc
 115 464 116 455 148 442 c 1
 158 475 167 502 173 519 c 0
 181 544 214 573 235 573 c 0
 242 573 247 569 247 561 c 0
 247 560 212 449 206 427 c 1
 229 423 255 421 280 421 c 0
 309 421 335 423 358 427 c 1
 364 453 369 481 369 500 c 0
 370 524 419 573 443 573 c 0
 448 573 452 570 452 564 c 0
 452 546 445 493 429 443 c 1
 464 455 485 467 495 467 c 0
 500 467 503 463 503 455 c 0
 503 422 459 390 393 369 c 1
 365 330 330 310 313 310 c 0
 306 310 304 314 304 319 c 0
 304 327 310 339 320 352 c 1
 290 347 259 344 226 344 c 0xdc
 213 344 199 344 186 345 c 1
 172 282 164 226 164 180 c 0
 164 96 190 44 248 44 c 0
 365 44 470 121 476 145 c 0
 483 172 519 202 539 202 c 0
 549 202 551 196 551 190 c 0
 551 126 380 -32 196 -32 c 0
 115 -32 88 37 88 127 c 0
 88 198 104 282 123 355 c 1
 89 363 40 383 40 399 c 0xbc
EndSplineSet
Validated: 1
EndChar

StartChar: Uogonek
Encoding: 370 370 306
Width: 910
Flags: W
HStem: -470 74<745.689 877.985> -21 74<181.54 336.447> 833 20G<659.5 673.5>
VStem: 53 75<112.858 521.614> 579 74<-311.42 -112.189> 608 74<78.5493 402 556.731 843.624>
LayerCount: 2
Fore
SplineSet
878 -396 m 2xf8
 886 -396 889 -400 889 -407 c 0
 889 -428 853 -470 824 -470 c 0
 674 -470 579 -374 579 -251 c 0xf8
 579 -162 625 -82 679 -21 c 1
 645 -11 601 50 598 402 c 1
 479 26 292 -21 206 -21 c 0
 68 -21 53 178 53 263 c 0
 53 478 136 703 205 703 c 0
 214 703 220 698 220 689 c 0
 220 682 216 673 207 661 c 0
 163 602 128 447 128 308 c 0
 128 173 161 54 250 53 c 0
 251 53 252 53 253 53 c 0
 330 53 373 93 390 110 c 0
 566 287 608 787 608 794 c 0
 610 823 649 853 670 853 c 0
 677 853 682 849 682 840 c 0
 682 839 682 839 682 838 c 0xf4
 682 833 672 669 672 490 c 0
 672 293 684 51 746 51 c 0
 750 51 753 52 757 53 c 0
 762 57 767 61 772 64 c 1
 776 89 811 121 832 121 c 0
 848 121 848 102 848 100 c 0
 848 66 804 10 745 -13 c 0
 740 -17 735 -21 731 -26 c 0
 678 -79 653 -141 653 -198 c 0
 653 -304 736 -396 876 -396 c 0
 877 -396 878 -396 878 -396 c 2xf8
EndSplineSet
Validated: 1
EndChar

StartChar: uogonek
Encoding: 371 371 307
Width: 714
Flags: W
HStem: -489 74<549.689 681.985> -30 74<164.696 358.5> -24 115<577.284 623.093> 443 20G<555 571.5>
VStem: 59 75<68.4519 405.45> 383 74<-330.42 -131.684> 505 75<179.525 453.754>
LayerCount: 2
Fore
SplineSet
682 -415 m 2xbe
 690 -415 693 -419 693 -426 c 0
 693 -447 657 -489 628 -489 c 0
 478 -489 383 -393 383 -270 c 0
 383 -171 441 -82 502 -20 c 1
 494 -7 489 23 489 92 c 0
 489 100 489 108 489 116 c 1
 382 -29 235 -30 176 -30 c 0
 175 -30 175 -30 174 -30 c 0
 72 -30 59 96 59 162 c 0
 59 228 70 311 95 406 c 0
 101 430 134 460 156 460 c 0
 164 460 169 456 169 447 c 0
 169 445 134 316 134 211 c 0
 134 104 167 44 222 44 c 0
 366 44 466 83 497 282 c 1
 501 347 505 399 505 404 c 0
 508 430 544 463 566 463 c 0
 577 463 580 459 580 430 c 0
 580 427 564 245 564 139 c 0
 564 99 566 58 572 44 c 0
 573 44 574 44 575 44 c 0xde
 577 46 579 47 580 48 c 0
 592 72 620 91 636 91 c 0
 646 91 650 84 650 76 c 0
 650 45 613 -6 558 -24 c 0
 551 -30 543 -37 535 -45 c 0
 482 -98 457 -160 457 -217 c 0
 457 -323 540 -415 680 -415 c 0
 681 -415 682 -415 682 -415 c 2xbe
EndSplineSet
Validated: 1
EndChar

StartChar: longs
Encoding: 383 383 319
Width: 461
Flags: W
HStem: -851 74<29.2779 151.747> 775 73<316.031 430.764>
VStem: 159 74<44.2492 633.192> 239 74<-632.263 -44.6391>
LayerCount: 2
Fore
SplineSet
81 -777 m 0
 123 -777 146 -763 159 -750 c 0
 234 -675 239 -467 239 -410 c 0
 239 -111 159 61 159 363 c 0
 159 817 368 848 426 848 c 0
 435 848 439 843 439 834 c 0
 439 810 403 775 380 775 c 0
 340 775 320 761 310 750 c 0
 237 677 233 459 233 410 c 0
 233 111 313 -62 313 -363 c 0
 313 -824 87 -851 35 -851 c 0
 25 -851 21 -845 21 -837 c 0
 21 -813 57 -777 81 -777 c 0
EndSplineSet
Validated: 1
EndChar

StartChar: uni01EA
Encoding: 490 490 343
Width: 765
Flags: W
HStem: -522 74<313.689 445.985> -14 74<330.052 504.312> 779 74<307.974 476.602>
VStem: 46 74<238.348 533.74> 147 74<-363.42 -165.168> 638 74<229.042 567.33>
LayerCount: 2
Fore
SplineSet
446 -448 m 2
 454 -448 457 -452 457 -459 c 0
 457 -480 421 -522 392 -522 c 0
 242 -522 147 -426 147 -303 c 0
 147 -177 241 -68 314 -9 c 1
 161 22 46 177 46 334 c 0
 46 636 270 853 424 853 c 0
 595 853 712 606 712 456 c 0
 712 94 504 -9 378 -14 c 1
 362 -29 335 -42 299 -78 c 0
 246 -131 221 -193 221 -250 c 0
 221 -356 304 -448 444 -448 c 0
 445 -448 446 -448 446 -448 c 2
638 410 m 0
 638 543 527 779 377 779 c 0
 255 779 120 604 120 380 c 0
 120 225 252 60 416 60 c 0
 604 60 638 263 638 410 c 0
EndSplineSet
Validated: 1
EndChar

StartChar: uni01EB
Encoding: 491 491 344
Width: 630
Flags: W
HStem: -543 74<234.689 366.985> 389 74<179.21 452.974>
VStem: 48 74<126.885 335.528> 68 74<-384.42 -186.308> 493 74<102.857 349.695>
LayerCount: 2
Fore
SplineSet
367 -469 m 2xd8
 375 -469 378 -473 378 -480 c 0
 378 -501 342 -543 313 -543 c 0
 163 -543 68 -447 68 -324 c 0xd8
 68 -198 162 -90 234 -30 c 1
 143 -20 48 72 48 188 c 0xe8
 48 227 51 312 123 384 c 0
 191 452 275 463 337 463 c 0
 541 463 567 394 567 266 c 0
 567 48 429 -15 306 -28 c 0
 305 -29 304 -30 303 -31 c 0
 287 -48 259 -60 220 -99 c 0
 167 -152 142 -214 142 -271 c 0
 142 -377 225 -469 365 -469 c 0
 366 -469 367 -469 367 -469 c 2xd8
290 389 m 0
 150 389 122 333 122 235 c 0xe8
 122 130 220 43 297 43 c 0
 320 43 421 45 460 84 c 0
 482 106 493 152 493 222 c 0
 493 330 476 389 290 389 c 0
EndSplineSet
Validated: 1
EndChar

StartChar: uniA768
Encoding: 42856 42856 359
Width: 614
Flags: W
HStem: 79 58<151 205.841> 833 20G<121 147>
VStem: 72 74<-21.9104 77.6018> 88 74<141.481 793.859> 510 68<513.492 737.607>
LayerCount: 2
Fore
SplineSet
72 794 m 0xe8
 72 817 110 853 132 853 c 0
 162 853 162 711 162 602 c 0xd8
 162 448 155 256 151 137 c 1
 350 186 510 464 510 632 c 0
 510 744 445 754 445 771 c 0
 445 792 480 827 501 827 c 0
 508 827 578 796 578 675 c 0
 578 470 380 157 148 79 c 1
 147 49 146 30 146 29 c 0
 145 5 110 -30 86 -30 c 0
 77 -30 72 -25 72 -15 c 0xe8
 72 -10 88 315 88 556 c 0xd8
 88 789 72 791 72 794 c 0xe8
EndSplineSet
Validated: 1
EndChar

StartChar: uniA769
Encoding: 42857 42857 360
Width: 429
Flags: W
HStem: 369 66<249.261 299.644>
VStem: 82 70<14.625 121.031 158.753 471.612> 306 70<259.261 359.605>
LayerCount: 2
Fore
SplineSet
143 151 m 1
 235 195 306 254 306 310 c 0
 306 364 247 365 242 369 c 0
 240 371 239 374 239 377 c 0
 239 397 268 435 305 435 c 0
 342 435 376 400 376 357 c 0
 376 218 155 104 141 97 c 1
 140 82 140 68 140 53 c 0
 140 28 100 -5 80 -5 c 0
 74 -5 70 -2 70 6 c 0
 70 101 82 210 82 294 c 0
 82 373 70 415 70 416 c 0
 70 440 110 475 129 475 c 0
 135 475 138 472 140 466 c 0
 149 428 152 386 152 341 c 0
 152 319 152 319 143 151 c 1
EndSplineSet
Validated: 1
EndChar

StartChar: uni01F7
Encoding: 503 503 361
Width: 614
Flags: W
HStem: 79 58<151 205.841> 779 69<256.402 469.811> 833 20G<121 138.5>
VStem: 72 74<-21.9104 91.4762 137 390.014 773.317 843.948> 88 74<141.481 732.906> 510 68<513.725 737.272>
LayerCount: 2
Fore
SplineSet
72 794 m 0xd4
 72 817 110 853 132 853 c 0xb4
 145 853 152 842 157 772 c 1
 266 825 351 848 415 848 c 0
 530 848 578 776 578 675 c 0
 578 469 380 157 148 79 c 1
 147 49 146 30 146 29 c 0
 145 5 110 -30 86 -30 c 0
 77 -30 72 -25 72 -15 c 0xd4
 72 -10 88 315 88 556 c 0xcc
 88 789 72 791 72 794 c 0xd4
151 137 m 1
 350 186 510 465 510 633 c 0
 510 718 470 779 372 779 c 0
 319 779 250 761 160 719 c 1
 161 685 162 645 162 602 c 0xcc
 162 448 155 256 151 137 c 1
EndSplineSet
Validated: 1
EndChar

StartChar: uni01BF
Encoding: 447 447 362
Width: 429
Flags: W
HStem: 359 70<153.675 300.368>
VStem: 82 70<6.625 112.625 150.753 351.725 393 463.322> 306 70<252.122 352.332>
LayerCount: 2
Fore
SplineSet
149 393 m 1
 201 418 246 429 281 429 c 0
 340 429 376 398 376 350 c 0
 376 210 154 95 141 89 c 1
 140 74 140 60 140 45 c 0
 140 20 100 -13 80 -13 c 0
 74 -13 70 -10 70 -2 c 0
 70 93 82 202 82 286 c 0
 82 365 70 407 70 408 c 0
 70 432 110 467 129 467 c 0
 144 467 147 422 149 393 c 1
143 143 m 1
 192 167 306 230 306 302 c 0
 306 335 280 359 234 359 c 0
 211 359 184 353 152 340 c 1
 152 338 152 335 152 333 c 0
 152 311 152 311 143 143 c 1
EndSplineSet
Validated: 1
EndChar

StartChar: uni021C
Encoding: 540 540 363
Width: 492
Flags: W
HStem: 417 69<182.671 346.586> 785 68<103.809 348.144>
VStem: 369 68<271.756 392.008 642.915 758.939>
LayerCount: 2
Fore
SplineSet
271 853 m 0
 365 853 441 818 441 745 c 0
 441 648 317 539 245 483 c 1
 259 485 272 486 284 486 c 0
 367 486 437 449 437 375 c 0
 437 231 207 67 82 -11 c 0
 63 -23 48 -20 48 -6 c 0
 48 8 63 30 82 42 c 0
 197 114 369 238 369 332 c 0
 369 387 311 417 239 417 c 0
 138 417 77 365 56 365 c 0
 51 365 48 368 48 378 c 0
 48 392 63 414 83 426 c 0
 199 497 373 618 373 702 c 0
 373 756 307 785 226 785 c 0
 132 785 78 750 57 750 c 0
 51 750 48 753 48 762 c 0
 48 820 186 853 271 853 c 0
EndSplineSet
Validated: 1
EndChar

StartChar: uni021D
Encoding: 541 541 364
Width: 510
Flags: W
HStem: 30 68<179.991 346.23> 394 69<96.3763 342.142>
VStem: 366 68<259.833 367.598> 399 68<-252.209 -22.1072>
LayerCount: 2
Fore
SplineSet
264 463 m 0xe0
 358 463 434 428 434 354 c 0xe0
 434 259 313 151 242 96 c 1
 256 97 269 98 283 98 c 0
 386 98 467 44 467 -88 c 0
 467 -288 281 -582 98 -823 c 0
 85 -839 66 -851 54 -851 c 0
 42 -851 41 -841 41 -838 c 0
 41 -831 45 -821 53 -811 c 0
 310 -473 399 -258 399 -130 c 0xd0
 399 -14 325 30 239 30 c 0
 137 30 72 -25 54 -25 c 0
 46 -25 41 -20 41 -12 c 0
 41 2 56 24 76 36 c 0
 192 107 366 227 366 312 c 0
 366 366 300 394 220 394 c 0
 125 394 67 359 54 359 c 0
 45 359 41 364 41 371 c 0
 41 429 179 463 264 463 c 0xe0
EndSplineSet
Validated: 1
EndChar

StartChar: Euro
Encoding: 8364 8364 370
Width: 731
Flags: W
HStem: -9 68<348.732 546.247> 174 69<296 503.307> 295 84<286 385.356 390.986 548.656> 310 69<287.852 525.111> 496 69<421.302 659.856>
VStem: 206 69<234 296>
LayerCount: 2
Fore
SplineSet
554 352 m 0xec
 554 332 519 295 498 295 c 0xec
 497 295 473 310 387 310 c 0xdc
 352 310 313 308 275 304 c 0
 275 301 275 298 275 295 c 0
 275 276 276 255 280 234 c 1
 328 240 379 243 419 243 c 0
 508 243 508 231 508 223 c 0
 508 203 473 167 452 167 c 0
 448 167 439 174 379 174 c 0
 350 174 320 173 296 171 c 1
 319 108 365 59 446 59 c 0
 547 59 633 130 660 130 c 0
 666 130 670 126 670 118 c 0
 670 65 498 -9 402 -9 c 0
 260 -9 225 115 215 163 c 1
 140 153 104 140 95 134 c 0
 76 123 62 125 62 139 c 0
 62 189 151 213 207 224 c 1
 207 233 206 242 206 251 c 0
 206 266 207 281 209 296 c 1
 174 290 144 285 107 269 c 1
 88 257 72 259 72 273 c 0
 72 321 154 347 226 360 c 1
 289 516 463 565 656 565 c 0
 665 565 669 560 669 554 c 0
 669 534 637 496 612 496 c 0
 327 496 296 400 286 370 c 1
 333 376 384 379 429 379 c 0
 456 379 554 377 554 352 c 0xec
EndSplineSet
Validated: 1
EndChar

StartChar: uni266D
Encoding: 9837 9837 371
Width: 488
Flags: W
HStem: 343 70<186.817 332.306>
VStem: 91 69<73 328.986 362 571.07> 352 69<191.894 324.738>
LayerCount: 2
Fore
SplineSet
159 309 m 1
 159 307 152 101 152 73 c 1
 185 92 247 126 283 150 c 0
 346 191 352 212 352 242 c 0
 352 314 309 343 259 343 c 0
 225 343 188 330 159 309 c 1
83 26 m 0
 83 80 91 254 91 380 c 0
 91 507 82 508 82 518 c 0
 82 540 117 575 139 575 c 0
 143 575 146 574 148 572 c 0
 158 563 160 484 160 418 c 0
 160 397 160 377 160 362 c 1
 207 395 260 413 305 413 c 0
 370 413 421 374 421 287 c 0
 421 189 315 119 284 98 c 0
 282 97 112 -8 96 -8 c 0
 83 -8 83 2 83 26 c 0
EndSplineSet
Validated: 1
EndChar

StartChar: uni266E
Encoding: 9838 9838 372
Width: 522
Flags: W
HStem: 142 70<138 332.236> 381 69<174 422.379>
VStem: 119 70<441.254 563.473> 332 70<-5.70688 44 44.0139 140.405>
LayerCount: 2
Fore
SplineSet
332 54 m 0
 332 76 332 103 333 136 c 1
 317 140 282 142 244 142 c 0
 173 142 81 135 80 135 c 0
 79 135 78 135 78 135 c 0
 70 135 66 140 66 147 c 0
 66 148 66 149 66 151 c 2
 66 151 116 448 119 516 c 0
 121 542 159 573 178 573 c 0
 184 573 189 569 189 561 c 0
 189 541 175 445 174 441 c 1
 217 448 261 450 300 450 c 0
 387 450 456 439 456 439 c 0
 463 438 465 433 465 428 c 0
 465 422 463 416 462 414 c 2
 462 414 405 283 403 192 c 0
 402 154 401 123 401 100 c 0
 401 63 402 44 402 44 c 2
 402 43 402 43 402 43 c 0
 402 18 363 -15 344 -15 c 0
 332 -15 332 -11 332 54 c 0
165 376 m 1
 154 306 143 236 138 205 c 1
 195 209 251 212 296 212 c 0
 313 212 328 211 341 211 c 1
 353 274 377 339 390 372 c 1
 365 375 313 381 253 381 c 0
 225 381 195 379 165 376 c 1
EndSplineSet
Validated: 1
EndChar

StartChar: hookabovecomb
Encoding: 777 777 389
Width: 324
Flags: W
HStem: 766 144<122.064 178.929> 1048 59<105.805 182.253>
VStem: 106 80<768.602 906.839> 192 59<928.416 1040.15>
AnchorPoint: "mkmk" 171 1156 mark 0
AnchorPoint: "mkmk" 149 739 basemark 0
AnchorPoint: "top" 149.812 820 mark 0
LayerCount: 2
Fore
SplineSet
134 1048 m 0
 112 1048 107 1023 85 1023 c 0
 77 1023 76 1029 76 1032 c 0
 76 1051 118 1107 176 1107 c 0
 217 1107 251 1079 251 1023 c 0
 251 947 204 901 175 879 c 1
 181 862 186 839 186 816 c 0
 186 798 155 766 136 766 c 0
 120 766 134 795 107 856 c 0
 106 857 106 859 106 860 c 0
 106 876 131 905 152 910 c 0
 192 921 192 966 192 980 c 0
 192 1031 159 1048 134 1048 c 0
EndSplineSet
Validated: 1
EndChar

StartChar: uni030D
Encoding: 781 781 390
Width: 277
Flags: W
HStem: 903 218<111.835 165.165>
VStem: 100 78<920.9 1104.34>
AnchorPoint: "mkmk" 125 855 basemark 0
AnchorPoint: "mkmk" 139 1156 mark 0
AnchorPoint: "top" 131.006 959.838 mark 0
LayerCount: 2
Fore
SplineSet
178 1110 m 1
 177 974 l 2
 177 952 129 903 106 903 c 0
 102 903 99 906 99 911 c 2
 100 1050 l 2
 100 1072 148 1121 171 1121 c 0
 175 1121 178 1119 178 1114 c 0
 178 1110 l 1
EndSplineSet
Validated: 1
EndChar

StartChar: uni0311
Encoding: 785 785 395
Width: 565
Flags: W
HStem: 1017 77<190.869 351.29>
VStem: 389 77<927.957 979.593>
AnchorPoint: "mkmk" 285 1153 mark 0
AnchorPoint: "mkmk" 279 857 basemark 0
AnchorPoint: "top" 298.578 911 mark 0
LayerCount: 2
Fore
SplineSet
245 1017 m 0
 216 1017 194 1008 187 1001 c 0
 182 996 147 915 106 915 c 0
 99 915 96 919 96 925 c 0
 96 946 169 1094 302 1094 c 0
 383 1094 466 1038 466 982 c 0
 466 959 423 915 399 915 c 0
 393 915 389 918 389 925 c 0
 389 962 318 1017 245 1017 c 0
EndSplineSet
Validated: 1
EndChar

StartChar: uni0228
Encoding: 552 552 423
Width: 756
Flags: W
HStem: -549 75<35.5459 232.573> -206 41<27.418 38> 55 77<336.192 626.372> 395 73<547.523 660.815> 411 75<330.569 636.429> 773 80<331.555 721.889>
VStem: 114 72<45 319.198 766.907 838.851> 130 74<137.865 349.843 384 722.529> 312 75<-422.03 -295.188>
LayerCount: 2
Fore
SplineSet
202 708 m 1xee80
 203 675 204 638 204 597 c 0
 204 530 202 456 201 384 c 1
 309 461 445 486 545 486 c 0xed80
 599 486 642 479 664 468 c 0
 669 465 671 461 671 456 c 0
 671 434 634 395 610 395 c 0xf580
 608 395 605 395 603 397 c 0
 586 405 546 411 497 411 c 0
 320 411 219 340 199 325 c 1
 196 201 191 91 189 45 c 1
 300 93 461 132 626 132 c 0
 634 132 638 128 638 121 c 0
 638 96 596 55 571 55 c 0
 422 55 275 20 178 -18 c 1
 162 -63 129 -114 117 -132 c 1
 285 -142 387 -232 387 -326 c 0
 387 -421 277 -549 39 -549 c 0
 31 -549 26 -544 26 -536 c 0
 26 -512 64 -474 88 -474 c 0
 214 -472 278 -439 297 -420 c 0
 306 -411 312 -396 312 -377 c 0
 312 -297 209 -207 38 -206 c 0
 30 -206 26 -202 26 -194 c 0
 26 -186 30 -176 38 -165 c 2
 38 -165 61 -133 83 -96 c 0
 100 -66 112 -39 112 -27 c 0
 112 -24 113 -20 114 -16 c 0xee80
 116 21 130 324 130 551 c 0xed80
 130 730 121 772 116 780 c 0
 115 783 114 786 114 789 c 0
 114 812 152 849 174 849 c 0
 179 849 183 847 186 842 c 0
 195 827 198 785 199 766 c 1
 362 839 506 853 610 853 c 0
 643 853 672 851 696 850 c 0
 729 848 731 848 731 837 c 0
 731 812 691 773 667 773 c 2
 667 773 667 773 666 773 c 0
 574 777 574 777 559 777 c 0
 432 777 316 755 202 708 c 1xee80
EndSplineSet
Validated: 1
EndChar

StartChar: uni0229
Encoding: 553 553 424
Width: 632
Flags: W
HStem: -548 75<177.546 374.573> -205 41<169.418 180> 197 75<214.355 469.322> 388 75<259.134 502.999>
VStem: 43 74<131.97 302.564> 454 75<-421.03 -294.188> 503 75<306.176 440>
LayerCount: 2
Fore
SplineSet
333 44 m 0xfa
 428 44 468 78 515 117 c 0
 531 130 544 135 552 135 c 0
 561 135 565 129 565 122 c 0
 565 109 553 90 536 76 c 0
 479 29 419 -20 316 -29 c 1
 299 -71 270 -114 259 -131 c 1
 427 -141 529 -231 529 -325 c 0
 529 -420 419 -548 181 -548 c 0
 173 -548 168 -543 168 -535 c 0
 168 -511 206 -473 230 -473 c 0
 356 -471 420 -438 439 -419 c 0
 448 -410 454 -395 454 -376 c 0xfc
 454 -296 351 -206 180 -205 c 0
 172 -205 168 -201 168 -193 c 0
 168 -185 172 -175 180 -164 c 2
 180 -164 203 -132 225 -95 c 0
 241 -67 253 -41 254 -28 c 1
 129 -15 43 82 43 187 c 0
 43 239 63 293 111 341 c 0
 171 401 283 463 548 463 c 0
 557 463 578 463 578 417 c 0
 578 333 497 197 341 197 c 0
 286 197 232 213 185 232 c 0
 180 234 178 239 178 244 c 0
 178 265 209 304 240 304 c 0
 272 304 307 272 391 272 c 0
 482 272 503 322 503 369 c 0
 503 377 502 383 500 388 c 1
 280 388 176 343 143 310 c 0
 127 294 117 267 117 236 c 0
 117 133 213 44 333 44 c 0xfa
EndSplineSet
Validated: 1
EndChar

StartChar: Eta
Encoding: 919 919 438
Width: 694
VWidth: 1448
Flags: W
HStem: -22 77<461.5 598.537> 522 77<191.082 419.048> 834 20G<116 142 513.5 528.5>
VStem: 67 74<-21.9104 390.126> 83 74<141.897 513 531 793.905> 426 76<63.1343 621.718> 461 76<598.485 843.147>
AnchorPoint: "tonos" 1 857 basechar 0
AnchorPoint: "top" 311.275 955.505 basechar 0
AnchorPoint: "bottom" 526.996 -2 basechar 0
LayerCount: 2
Fore
SplineSet
67 794 m 0xf0
 67 817 105 854 127 854 c 0
 157 854 157 712 157 603 c 0
 157 580 157 556 156 531 c 1
 164 552 191 580 214 585 c 0
 239 591 310 599 372 599 c 0
 398 599 422 598 441 594 c 1
 449 690 458 765 461 793 c 0
 464 818 502 854 525 854 c 0
 532 854 537 851 537 843 c 0xea
 537 837 502 572 502 331 c 0
 502 77 541 55 549 55 c 0
 562 55 580 55 590 58 c 1
 607 80 628 92 641 92 c 0
 658 92 657 73 640 51 c 0
 586 -22 535 -22 497 -22 c 0
 426 -22 426 206 426 275 c 0
 426 351 429 431 434 505 c 1
 423 500 414 498 408 503 c 0
 405 506 407 508 405 510 c 0
 394 521 336 522 317 522 c 0
 234 522 186 510 166 510 c 0
 161 510 158 511 156 513 c 1
 153 290 141 36 141 29 c 0
 140 5 105 -30 81 -30 c 0
 72 -30 67 -25 67 -15 c 0xf4
 67 -9 83 315 83 556 c 0xe8
 83 789 67 792 67 794 c 0xf0
EndSplineSet
Validated: 1
EndChar

StartChar: Theta
Encoding: 920 920 444
Width: 776
VWidth: 1748
Flags: W
HStem: -14 73<289.291 506.737> 374 77<239.23 479.235> 779 74<309.768 478.602>
VStem: 48 74<236.884 533.74> 640 74<226.194 567.33>
AnchorPoint: "top" 397 957 basechar 0
AnchorPoint: "bottom" 367 28 basechar 0
LayerCount: 2
Fore
SplineSet
640 410 m 0
 640 543 529 779 379 779 c 0
 257 779 122 604 122 380 c 0
 122 225 254 59 418 59 c 0
 606 59 640 262 640 410 c 0
48 334 m 0
 48 636 271 853 426 853 c 0
 597 853 714 606 714 456 c 0
 714 84 495 -14 370 -14 c 0
 191 -14 48 159 48 334 c 0
380 374 m 0
 297 374 230 361 228 361 c 0
 217 361 216 369 216 372 c 0
 216 392 249 430 276 437 c 0
 302 443 372 451 435 451 c 0
 545 451 545 427 545 418 c 0
 545 391 501 352 480 352 c 0
 463 352 491 374 380 374 c 0
EndSplineSet
Validated: 1
EndChar

StartChar: Upsilon
Encoding: 933 933 447
Width: 720
Flags: W
HStem: 785 68<604.999 681.846>
VStem: 308 68<-6.44926 397.307>
AnchorPoint: "tonos" -29 857 basechar 0
AnchorPoint: "top" 343 959 basechar 0
AnchorPoint: "bottom" 341 33 basechar 0
LayerCount: 2
Fore
SplineSet
690 840 m 0
 690 820 658 785 634 785 c 0
 598 785 460 585 358 468 c 1
 376 375 376 249 376 41 c 0
 376 15 339 -15 319 -15 c 0
 312 -15 308 -12 308 -3 c 0
 308 507 308 507 33 788 c 0
 30 791 29 794 29 798 c 0
 29 818 64 853 85 853 c 0
 89 853 92 852 94 850 c 0
 242 700 312 628 346 518 c 1
 421 609 497 717 565 785 c 0
 620 840 657 853 675 853 c 0
 680 853 690 852 690 840 c 0
EndSplineSet
Validated: 1
EndChar

StartChar: Phi
Encoding: 934 934 448
Width: 771
VWidth: 1748
Flags: W
HStem: 4 74<394.328 509.735> 654 69<383 477.803> 833 20G<364 379>
VStem: 43 74<226.974 452.479> 320 74<99 637 723 847.306> 635 74<221.292 475.948>
AnchorPoint: "top" 355 958 basechar 0
AnchorPoint: "bottom" 349 -55 basechar 0
LayerCount: 2
Fore
SplineSet
320 8 m 1
 235 24 43 126 43 284 c 0
 43 457 155 610 308 694 c 1
 309 744 311 781 315 798 c 0
 320 823 353 853 375 853 c 0
 383 853 388 849 388 840 c 0
 388 839 383 828 383 723 c 1
 397 726 411 727 424 727 c 0
 599 727 709 497 709 407 c 0
 709 133 523 16 393 4 c 0
 391 -31 390 -49 367 -72 c 0
 353 -87 338 -94 327 -94 c 0
 319 -94 314 -89 314 -81 c 0
 314 -80 319 -67 320 8 c 1
383 654 m 1
 383 649 394 153 394 80 c 0
 394 79 394 79 394 79 c 1
 401 78 408 78 416 78 c 0
 614 78 635 275 635 360 c 0
 635 442 528 650 383 654 c 1
320 99 m 1
 318 258 309 483 308 637 c 1
 134 548 117 391 117 331 c 0
 117 190 296 109 320 99 c 1
EndSplineSet
Validated: 1
EndChar

StartChar: Gamma
Encoding: 915 915 454
Width: 737
Flags: W
HStem: 777 76<309.079 694.946>
VStem: 66 74<-26.9104 385.014 755 838.948> 82 74<183.51 713.17>
AnchorPoint: "top" 403 957 basechar 0
AnchorPoint: "bottom" 101 8 basechar 0
LayerCount: 2
Fore
SplineSet
531 777 m 0xc0
 397 777 273 752 154 699 c 1
 155 668 156 634 156 597 c 0xa0
 156 359 140 32 140 24 c 0
 139 0 104 -35 80 -35 c 0
 71 -35 66 -30 66 -20 c 0xc0
 66 -15 82 310 82 551 c 0xa0
 82 784 66 786 66 789 c 0
 66 812 104 848 126 848 c 0
 137 848 147 845 152 755 c 1
 156 758 324 853 582 853 c 0
 615 853 645 851 669 850 c 0
 702 848 703 848 703 837 c 0
 703 812 664 773 640 773 c 0
 639 773 554 777 531 777 c 0xc0
EndSplineSet
Validated: 1
EndChar

StartChar: uni0394
Encoding: 916 916 455
Width: 747
Flags: W
HStem: -28 73<116.593 606> 833 20G<453 464>
AnchorPoint: "top" 443.103 959 basechar 0
AnchorPoint: "bottom" 357.103 -1 basechar 0
LayerCount: 2
Fore
SplineSet
114 51 m 1
 167 46 234 45 302 45 c 0
 412 45 528 49 606 52 c 1
 548 216 461 566 423 719 c 1
 340 528 189 187 114 51 c 1
635 -19 m 0
 631 -19 358 -28 254 -28 c 0
 176 -28 99 -26 41 -19 c 0
 25 -17 29 4 46 25 c 1
 130 164 405 802 408 810 c 0
 418 834 445 853 461 853 c 0
 467 853 472 850 473 844 c 2
 473 844 624 209 692 55 c 0
 694 51 695 46 695 42 c 0
 695 11 653 -19 635 -19 c 0
EndSplineSet
Validated: 1
EndChar

StartChar: Lambda
Encoding: 923 923 456
Width: 744
Flags: W
HStem: 833 20G<450 462>
VStem: 624 68<1.55713 88.3505>
AnchorPoint: "top" 442 960 basechar 0
AnchorPoint: "bottom" 655 29 basechar 0
LayerCount: 2
Fore
SplineSet
32 -4 m 0
 32 2 35 10 40 18 c 0
 118 140 403 802 406 810 c 0
 415 832 441 853 459 853 c 0
 465 853 470 850 471 844 c 2
 471 844 622 209 690 55 c 0
 691 53 692 51 692 49 c 0
 692 27 658 -7 636 -7 c 0
 630 -7 626 -5 624 0 c 0
 569 126 463 547 421 719 c 1
 330 509 157 118 92 18 c 0
 80 -2 58 -16 44 -16 c 0
 33 -16 32 -7 32 -4 c 0
EndSplineSet
Validated: 1
EndChar

StartChar: Xi
Encoding: 926 926 457
Width: 699
Flags: W
HStem: 119 76<238.18 627.754> 511 75<264.851 571.639> 777 76<238.18 627.754>
VStem: 47 589
AnchorPoint: "top" 354 955 basechar 0
AnchorPoint: "bottom" 335 140 basechar 0
LayerCount: 2
Fore
SplineSet
572 773 m 0
 571 773 506 777 463 777 c 0
 211 777 82 690 59 690 c 0
 48 690 47 699 47 702 c 0
 47 719 70 750 95 762 c 0
 262 839 409 853 514 853 c 0
 548 853 577 851 601 850 c 0
 634 848 636 848 636 837 c 0
 636 812 596 773 572 773 c 0
477 586 m 0
 480 586 603 585 603 555 c 0
 603 531 566 495 542 495 c 0
 535 495 512 511 429 511 c 0
 215 511 123 410 98 410 c 0
 86 410 85 419 85 423 c 0
 85 476 264 586 477 586 c 0
572 115 m 0
 571 115 506 119 463 119 c 0
 211 119 82 32 59 32 c 0
 48 32 47 41 47 44 c 0
 47 61 70 92 95 104 c 0
 262 181 409 195 514 195 c 0
 548 195 577 193 601 192 c 0
 634 190 636 190 636 179 c 0
 636 154 596 115 572 115 c 0
EndSplineSet
Validated: 1
EndChar

StartChar: Pi
Encoding: 928 928 458
Width: 861
Flags: W
HStem: -27 76<655.5 764.803> 777 76<309.079 626>
VStem: 66 74<-26.9104 385.014 755 838.948> 82 74<183.51 713.17> 592 76<55.925 711.263>
AnchorPoint: "top" 434 956 basechar 0
AnchorPoint: "bottom" 784 51 basechar 0
LayerCount: 2
Fore
SplineSet
66 789 m 0xe8
 66 812 104 848 126 848 c 0
 137 848 147 845 152 755 c 1
 156 758 324 853 582 853 c 0
 603 853 603 853 690 849 c 0
 699 850 704 845 703 834 c 0
 681 647 668 467 668 325 c 0
 668 72 707 49 715 49 c 0
 729 49 747 49 756 53 c 1
 773 75 795 87 808 87 c 0
 815 87 818 83 818 75 c 0
 818 46 762 -27 673 -27 c 0
 638 -27 592 -15 592 270 c 0
 592 467 617 698 626 774 c 1
 562 777 554 777 531 777 c 0
 397 777 273 752 154 699 c 1
 155 668 156 634 156 597 c 0xd8
 156 359 140 32 140 24 c 0
 139 0 104 -35 80 -35 c 0
 71 -35 66 -30 66 -20 c 0xe8
 66 -15 82 310 82 551 c 0xd8
 82 784 66 786 66 789 c 0xe8
EndSplineSet
Validated: 1
EndChar

StartChar: Sigma
Encoding: 931 931 459
Width: 672
Flags: W
HStem: 55 77<245.351 534.554> 777 76<244.458 631.754>
VStem: 27 613
AnchorPoint: "top" 397 957 basechar 0
AnchorPoint: "bottom" 300 70 basechar 0
LayerCount: 2
Fore
SplineSet
402 421 m 0
 402 383 241 172 150 66 c 1
 256 104 395 132 535 132 c 0
 543 132 546 128 546 121 c 0
 546 96 504 55 480 55 c 0
 312 55 146 10 53 -33 c 0
 47 -35 42 -37 38 -37 c 0
 31 -37 27 -33 27 -25 c 0
 27 -13 39 7 56 21 c 0
 201 181 298 327 330 376 c 1
 222 563 98 666 66 690 c 1
 65 690 64 690 63 690 c 0
 52 690 51 699 51 702 c 0
 51 719 74 750 99 762 c 0
 266 839 413 853 518 853 c 0
 552 853 581 851 605 850 c 0
 638 848 640 848 640 837 c 0
 640 812 600 773 576 773 c 0
 575 773 491 777 467 777 c 0
 393 777 284 770 160 727 c 1
 301 604 402 426 402 421 c 0
EndSplineSet
Validated: 1
EndChar

StartChar: Psi
Encoding: 936 936 460
Width: 851
Flags: W
HStem: -46 21G<385 394.5> 155 66<319.888 380 456.08 557.345>
VStem: 39 69<455.326 643.203> 376 80<-35.2703 160.085 352.871 893.798> 742 68<433.156 643.925>
AnchorPoint: "top" 418 960 basechar 0
AnchorPoint: "bottom" 413 1 basechar 0
LayerCount: 2
Fore
SplineSet
382 94 m 0
 382 113 382 133 382 154 c 1
 203 169 39 325 39 595 c 0
 39 621 77 652 96 652 c 0
 103 652 108 648 108 639 c 0
 108 408 234 267 380 230 c 1
 377 390 370 583 370 712 c 0
 370 777 372 826 377 846 c 0
 383 870 415 901 437 901 c 0
 445 901 450 897 450 888 c 0
 450 887 445 876 445 770 c 0
 445 692 455 221 457 221 c 0
 724 221 742 512 742 592 c 0
 742 621 777 652 797 652 c 0
 805 652 810 647 810 635 c 0
 810 327 620 177 456 155 c 1
 456 147 456 139 456 131 c 0
 456 5 450 -3 429 -24 c 0
 415 -39 400 -46 389 -46 c 0
 381 -46 376 -41 376 -33 c 0
 376 -32 382 24 382 94 c 0
EndSplineSet
Validated: 1
EndChar

StartChar: uni03A9
Encoding: 937 937 461
Width: 793
Flags: W
HStem: -13 74<64.527 145 605 661.978 662 711.754> 779 74<316.768 485.602>
VStem: 55 74<222.424 533.534> 647 74<212.911 567.33>
AnchorPoint: "tonos" 47 765 basechar 0
AnchorPoint: "top" 405 959 basechar 0
AnchorPoint: "bottom" 679 26 basechar 0
LayerCount: 2
Fore
SplineSet
386 779 m 0
 264 779 129 604 129 380 c 0
 129 262 211 114 262 62 c 0
 271 53 271 53 271 47 c 0
 271 25 237 -13 211 -13 c 0
 210 -13 158 -13 116 -13 c 0
 55 -13 55 -13 55 0 c 0
 55 21 86 57 112 61 c 0
 115 61 118 61 145 61 c 1
 72 174 55 283 55 334 c 0
 55 635 278 853 433 853 c 0
 604 853 721 606 721 456 c 0
 721 286 672 144 605 59 c 1
 616 59 626 59 635 59 c 0
 673 59 693 60 704 60 c 0
 710 60 721 60 721 47 c 0
 721 26 688 -11 662 -13 c 0
 662 -13 632 -15 588 -15 c 0
 519 -15 502 -15 502 0 c 0
 502 11 510 26 523 40 c 0
 533 49 536 49 545 58 c 0
 646 159 647 406 647 410 c 0
 647 543 536 779 386 779 c 0
EndSplineSet
Validated: 1
EndChar

StartChar: alpha
Encoding: 945 945 462
Width: 782
Flags: W
HStem: -14 75<177.187 356.296 553 651.514> 397 75<200.691 376.476 538.711 625.192>
VStem: 49 74<118.373 320.349>
AnchorPoint: "tonos" 338 642 basechar 0
AnchorPoint: "top" 315 641 basechar 0
AnchorPoint: "bottom" 255 28 basechar 0
LayerCount: 2
Fore
SplineSet
446 260 m 1
 429 299 384 397 277 397 c 0
 201 397 123 348 123 235 c 0
 123 177 149 61 285 61 c 0
 365 61 400 99 446 260 c 1
550 397 m 1
 542 377 535 353 523 310 c 1
 539 270 550 228 561 190 c 0
 586 101 601 61 627 61 c 0
 632 61 637 62 642 65 c 1
 656 101 689 117 702 117 c 0
 710 117 715 112 715 104 c 0
 715 72 651 -13 577 -13 c 0
 529 -13 512 46 488 133 c 0
 484 146 480 159 476 173 c 1
 402 7 288 -14 237 -14 c 0
 95 -14 49 93 49 190 c 0
 49 345 195 472 325 472 c 0
 384 472 442 446 485 383 c 1
 506 429 544 472 591 472 c 0
 679 472 717 401 717 395 c 0
 717 371 680 334 656 334 c 0
 638 334 622 394 550 397 c 1
EndSplineSet
Validated: 1
EndChar

StartChar: beta
Encoding: 946 946 463
Width: 548
Flags: W
HStem: -45 75<169.24 335.227> 684 75<142.377 357.585>
VStem: 73 75<-183.982 -33 52.5254 681.452> 385 75<502.494 652.436> 414 75<96.4598 207.987>
AnchorPoint: "top" 263 957 basechar 0
AnchorPoint: "bottom" 95 -165 basechar 0
LayerCount: 2
Fore
SplineSet
414 138 m 0xe8
 414 216 205 346 203 347 c 0
 199 350 197 353 197 358 c 0
 197 378 228 415 254 419 c 1
 254 419 269 422 293 432 c 0
 320 445 385 477 385 598 c 0xf0
 385 670 259 684 222 684 c 0
 193 684 164 680 140 669 c 1
 147 306 148 235 148 155 c 0
 148 136 148 116 148 91 c 1
 193 33 223 30 260 30 c 0
 337 30 414 93 414 138 c 0xe8
489 188 m 0xe8
 489 95 342 -45 213 -45 c 0
 189 -45 168 -42 146 -33 c 1
 145 -69 143 -97 141 -117 c 0
 133 -197 77 -200 76 -200 c 0
 68 -200 63 -196 63 -187 c 0
 63 -185 73 -177 73 77 c 0
 73 277 65 639 65 645 c 0
 65 673 137 759 274 759 c 0
 322 759 460 742 460 647 c 0xf0
 460 498 365 419 314 387 c 1
 480 271 489 210 489 188 c 0xe8
EndSplineSet
Validated: 1
EndChar

StartChar: gamma
Encoding: 947 947 464
Width: 676
Flags: W
HStem: 391 73<47.4628 158.952 512.306 625.722>
VStem: 317 74<-206.142 260.747> 351 75<-786.1 -161.734>
AnchorPoint: "top" 352.415 645.368 basechar 0
AnchorPoint: "bottom" 351.623 -809 basechar 0
LayerCount: 2
Fore
SplineSet
370 291 m 1xc0
 434 389 541 464 620 464 c 0
 630 464 634 459 634 451 c 0
 634 426 598 391 574 391 c 0
 501 391 401 292 391 201 c 1xc0
 395 35 426 -328 426 -551 c 0
 426 -658 419 -731 402 -774 c 0
 385 -819 349 -844 330 -844 c 0
 311 -844 313 -820 333 -797 c 1
 347 -763 351 -690 351 -598 c 0xa0
 351 -375 317 77 317 141 c 0
 317 316 150 366 48 391 c 0
 41 393 38 398 38 404 c 0
 38 425 72 464 97 464 c 0
 101 464 308 431 370 291 c 1xc0
EndSplineSet
Validated: 1
EndChar

StartChar: delta
Encoding: 948 948 465
Width: 622
Flags: W
HStem: 1 74<191.685 430.749> 801 74<208.8 443.249>
VStem: 39 74<153.736 312.078> 98 75<668.085 754.662> 486 74<123.179 310.039>
AnchorPoint: "top" 316 961 basechar 0
AnchorPoint: "bottom" 305 38 basechar 0
LayerCount: 2
Fore
SplineSet
98 687 m 0xd8
 98 699 101 711 107 724 c 0
 176 875 319 875 395 875 c 0
 453 875 453 875 453 862 c 0
 453 840 418 801 392 801 c 0
 391 801 390 801 389 801 c 0
 257 801 200 800 174 741 c 1
 174 741 173 739 173 735 c 0xd8
 173 627 560 470 560 257 c 0
 560 191 541 133 491 82 c 0
 410 1 303 1 241 1 c 0
 145 1 39 87 39 209 c 0xe8
 39 302 144 429 296 470 c 1
 131 605 98 631 98 687 c 0xd8
364 412 m 0
 361 411 357 410 355 410 c 0
 225 410 113 339 113 257 c 0xe8
 113 151 212 75 288 75 c 0
 446 75 486 108 486 209 c 0
 486 293 405 374 364 412 c 0
EndSplineSet
Validated: 1
EndChar

StartChar: epsilon
Encoding: 949 949 466
Width: 469
Flags: W
HStem: -8 70<132.732 398.211> 402 69<206.811 398.18>
VStem: 85 69<303.509 366.874>
AnchorPoint: "tonos" 201 643 basechar 0
AnchorPoint: "top" 250 642 basechar 0
AnchorPoint: "bottom" 372 28 basechar 0
LayerCount: 2
Fore
SplineSet
192 207 m 1
 112 235 85 272 85 307 c 0
 85 361 162 471 395 471 c 0
 403 471 407 466 407 459 c 0
 407 437 372 402 349 402 c 0
 240 402 174 375 155 358 c 0
 154 357 154 355 154 352 c 0
 154 294 286 262 311 256 c 0
 317 255 319 251 319 245 c 0
 319 229 298 200 274 190 c 0
 229 172 154 139 121 111 c 1
 131 66 324 62 395 62 c 0
 403 62 407 57 407 50 c 0
 407 27 372 -8 350 -8 c 0
 83 -8 51 34 51 67 c 0
 51 127 149 184 192 207 c 1
EndSplineSet
Validated: 1
EndChar

StartChar: zeta
Encoding: 950 950 467
Width: 667
Flags: W
HStem: 0 68<239.882 524.354> 784 68<81.1 552.828> 800 68<54.6002 275.342>
VStem: 47 68<159.403 358.003> 526 68<-96.7188 38>
AnchorPoint: "top" 365 958 basechar 0
AnchorPoint: "bottom" 533 -104 basechar 0
LayerCount: 2
Fore
SplineSet
103 868 m 0xb8
 105 868 173 852 321 852 c 0xd8
 474 852 622 868 622 868 c 2
 623 868 624 868 625 868 c 0xb8
 633 868 637 863 637 856 c 0
 637 841 622 818 599 805 c 1
 599 805 422 708 282 568 c 0
 140 426 115 319 115 250 c 0
 115 119 252 68 497 68 c 0
 500 68 502 68 505 68 c 0
 535 68 594 68 594 8 c 0
 594 -34 554 -141 507 -141 c 0
 499 -141 494 -136 494 -128 c 0
 494 -112 526 -71 526 -35 c 0
 526 -2 494 0 454 0 c 0
 251 0 47 30 47 207 c 0
 47 462 347 694 493 792 c 1
 436 788 359 784 279 784 c 0xd8
 201 784 121 788 56 800 c 0
 50 801 47 806 47 813 c 0
 47 835 80 868 103 868 c 0xb8
EndSplineSet
Validated: 1
EndChar

StartChar: eta
Encoding: 951 951 468
Width: 722
Flags: W
HStem: -13 156<58.625 127.41> 396 75<322.782 432.764>
VStem: 572 74<-309.282 194.983>
AnchorPoint: "tonos" 322 643 basechar 0
AnchorPoint: "top" 380 642 basechar 0
AnchorPoint: "bottom" 531 -406 basechar 0
LayerCount: 2
Fore
SplineSet
146 68 m 1
 179 142 224 298 278 385 c 0
 324 458 369 471 387 471 c 0
 568 471 646 200 646 48 c 0
 646 -121 644 -293 558 -414 c 0
 544 -434 522 -447 508 -447 c 0
 496 -447 495 -438 495 -434 c 0
 495 -426 499 -416 506 -407 c 0
 572 -315 572 -131 572 0 c 0
 572 140 497 393 343 396 c 1
 269 298 220 -13 118 -13 c 0
 53 -13 48 71 48 82 c 0
 48 106 85 143 109 143 c 0
 133 143 115 94 146 68 c 1
EndSplineSet
Validated: 1
EndChar

StartChar: theta
Encoding: 952 952 469
Width: 498
Flags: W
HStem: -1 75<142.526 290.652> 440 77<131.274 347.458> 774 76<199.708 359>
VStem: 54 75<156.09 430 488 626.549> 355 75<187.38 666.501>
AnchorPoint: "top" 283 957 basechar 0
AnchorPoint: "bottom" 206 39 basechar 0
LayerCount: 2
Fore
SplineSet
190 -1 m 0
 98 -1 54 172 54 355 c 0
 54 685 176 850 294 850 c 0
 424 850 430 446 430 442 c 0
 430 8 208 -1 190 -1 c 0
129 406 m 0
 129 226 174 74 239 74 c 0
 276 74 289 89 303 114 c 0
 343 186 355 312 355 380 c 0
 355 407 353 425 351 427 c 0
 339 439 281 440 262 440 c 0
 195 440 130 430 129 430 c 1
 129 422 129 414 129 406 c 0
132 488 m 1
 162 513 259 517 317 517 c 0
 328 517 338 517 348 516 c 1
 345 548 317 774 239 774 c 0
 155 774 132 491 132 488 c 1
EndSplineSet
Validated: 1
EndChar

StartChar: kappa
Encoding: 954 954 470
Width: 643
Flags: W
HStem: -32 74<458.086 581.249>
VStem: 72 70<92 438.776> 297 75<123.33 293.072>
AnchorPoint: "top" 271.079 644 basechar 0
AnchorPoint: "bottom" 552.079 7 basechar 0
LayerCount: 2
Fore
SplineSet
454 449 m 0
 454 419 372 349 372 237 c 0
 372 119 472 42 578 42 c 0
 587 42 591 36 591 29 c 0
 591 7 556 -32 530 -32 c 0
 408 -32 297 52 297 189 c 0
 297 201 298 214 300 228 c 1
 132 0 l 2
 118 -19 97 -32 83 -32 c 0
 64 -32 71 -10 72 -8 c 2
 72 390 l 2
 72 416 113 450 132 450 c 0
 138 450 142 447 142 439 c 2
 142 92 l 1
 392 429 l 2
 406 448 427 461 441 461 c 0
 450 461 454 455 454 449 c 0
EndSplineSet
Validated: 1
EndChar

StartChar: lambda
Encoding: 955 955 471
Width: 671
VWidth: 1748
Flags: W
HStem: -15 68<510.637 563.717> 833 20G<78.5 160>
VStem: 36 591
AnchorPoint: "top" 152 957 basechar 0
AnchorPoint: "bottom" 515 21 basechar 0
LayerCount: 2
Fore
SplineSet
36 -2 m 0
 36 12 51 35 72 47 c 1
 120 105 232 355 270 404 c 1
 204 558 136 708 80 764 c 0
 49 795 34 778 34 797 c 0
 34 817 67 853 90 853 c 0
 230 853 453 89 538 53 c 1
 549 53 558 54 564 56 c 1
 575 77 600 95 615 95 c 0
 625 95 627 88 627 81 c 0
 627 65 598 -15 494 -15 c 0
 449 -15 395 111 292 353 c 1
 281 332 267 305 250 272 c 0
 172 118 104 -15 48 -15 c 0
 37 -15 36 -6 36 -2 c 0
EndSplineSet
Validated: 1
EndChar

StartChar: nu
Encoding: 957 957 474
Width: 596
Flags: W
HStem: -14 74<221.5 380.948>
VStem: 449 74<154.267 463.688>
AnchorPoint: "top" 287 645 basechar 0
AnchorPoint: "bottom" 277 21 basechar 0
LayerCount: 2
Fore
SplineSet
444 408 m 0
 444 432 481 470 505 470 c 0
 512 470 517 466 518 458 c 0
 522 422 523 388 523 357 c 0
 523 56 354 -14 260 -14 c 0
 183 -14 257 177 43 399 c 0
 41 401 40 405 40 408 c 0
 40 433 77 470 101 470 c 0
 105 470 109 469 111 466 c 0
 308 262 277 60 308 60 c 0
 353 60 381 76 393 88 c 0
 445 141 449 271 449 310 c 0
 449 361 444 407 444 408 c 0
EndSplineSet
Validated: 1
EndChar

StartChar: xi
Encoding: 958 958 475
Width: 634
VWidth: 1748
Flags: W
HStem: -15 68<223.682 514.627> 368 69<380.281 542.266> 769 84<141.66 235.058>
VStem: 35 68<142.122 267.835> 92 68<562.622 672.768> 482 16<846.297 851> 515 68<-109.601 22.5>
AnchorPoint: "top" 350 958 basechar 0
AnchorPoint: "bottom" 512 -125 basechar 0
LayerCount: 2
Fore
SplineSet
137 796 m 0xee
 137 816 171 853 193 853 c 0
 202 853 222 837 312 837 c 0
 395 837 482 851 482 851 c 2
 493 853 498 847 498 839 c 0
 498 820 470 787 446 783 c 0
 319 762 160 704 160 629 c 0xee
 160 506 448 451 541 437 c 0
 548 436 551 431 551 425 c 0
 551 405 520 370 496 368 c 0
 349 355 157 299 110 252 c 0
 106 248 106 248 103 232 c 0
 105 103 242 53 486 53 c 0
 488 53 490 53 493 53 c 0
 524 53 583 52 583 -7 c 0
 583 -49 542 -156 495 -156 c 0
 487 -156 482 -152 482 -143 c 0
 482 -127 515 -86 515 -51 c 0
 515 -18 482 -15 443 -15 c 0
 219 -15 35 22 35 195 c 0xf6
 35 213 46 246 81 281 c 0
 104 304 162 356 335 401 c 1
 154 450 92 518 92 585 c 0
 92 657 163 727 236 769 c 1
 223 770 137 774 137 796 c 0xee
EndSplineSet
Validated: 1
EndChar

StartChar: pi
Encoding: 960 960 476
Width: 671
Flags: W
HStem: -8 77<483.661 552.572> 410 75<467.54 593.391> 426 75<205.27 495.641>
VStem: 132 77<57.9417 415> 386 77<76.4236 411.159>
AnchorPoint: "top" 299.144 644 basechar 0
AnchorPoint: "bottom" 586.144 77 basechar 0
LayerCount: 2
Fore
SplineSet
128 415 m 1xb8
 73 402 71 384 50 384 c 0
 42 384 37 388 37 396 c 0
 37 408 65 501 288 501 c 0xb8
 387 501 491 485 569 485 c 0
 603 485 603 485 603 473 c 0
 603 472 596 410 518 410 c 0xd8
 502 410 484 411 465 412 c 1
 463 374 463 339 463 308 c 0
 463 149 485 69 512 69 c 0
 526 69 544 69 553 72 c 1
 571 94 592 106 605 106 c 0
 613 106 617 102 617 94 c 0
 617 87 612 76 604 65 c 0
 550 -7 499 -8 461 -8 c 2
 460 -8 l 2
 430 -8 386 16 386 253 c 0
 386 338 392 416 393 417 c 1
 341 421 287 426 237 426 c 0
 226 426 216 426 205 425 c 1
 209 306 209 300 209 261 c 0
 209 165 203 97 184 56 c 0
 165 18 130 -8 111 -8 c 0
 103 -8 100 -3 100 4 c 0
 100 43 132 -14 132 212 c 0
 132 294 129 356 128 415 c 1xb8
EndSplineSet
Validated: 1
EndChar

StartChar: sigma1
Encoding: 962 962 478
Width: 654
Flags: W
HStem: 7 68<236.617 521.446> 387 70<241.006 551.712>
VStem: 43 69<162.887 313.206> 523 69<-88.5076 45>
AnchorPoint: "top" 386 642 basechar 0
AnchorPoint: "bottom" 523 -103 basechar 0
LayerCount: 2
Fore
SplineSet
560 445 m 0
 560 425 533 387 493 387 c 0
 373 387 256 379 175 343 c 0
 130 323 113 305 113 260 c 0
 113 258 113 256 112 253 c 0
 115 125 251 75 494 75 c 0
 497 75 499 75 502 75 c 0
 532 75 592 75 592 15 c 0
 592 -26 551 -133 504 -133 c 0
 496 -133 491 -129 491 -121 c 0
 491 -105 523 -64 523 -28 c 0
 523 5 491 7 451 7 c 0
 252 7 51 37 44 206 c 0
 43 208 43 210 43 212 c 0
 43 254 60 301 103 344 c 0
 202 443 374 457 540 457 c 0
 555 457 560 457 560 445 c 0
EndSplineSet
Validated: 1
EndChar

StartChar: sigma
Encoding: 963 963 479
Width: 690
Flags: W
HStem: 3 74<203.695 426.231> 409 70<551 627.953> 423 74<178.425 451.089>
VStem: 47 74<161.714 366.348> 492 74<137.925 383.303>
AnchorPoint: "top" 320 641 basechar 0
AnchorPoint: "bottom" 269 41 basechar 0
LayerCount: 2
Fore
SplineSet
551 409 m 1xd8
 564 378 566 347 566 300 c 0
 566 48 381 3 249 3 c 0
 153 3 47 99 47 222 c 0
 47 261 51 346 122 418 c 0
 191 486 274 497 336 497 c 0xb8
 423 497 504 479 576 479 c 0
 591 479 604 480 613 483 c 1
 634 499 652 500 652 485 c 0
 652 473 626 416 551 409 c 1xd8
289 423 m 0
 149 423 121 367 121 269 c 0
 121 164 220 77 296 77 c 0
 319 77 420 79 459 118 c 0
 481 140 492 186 492 256 c 0
 492 364 475 423 289 423 c 0
EndSplineSet
Validated: 1
EndChar

StartChar: tau
Encoding: 964 964 481
Width: 415
Flags: W
HStem: -2 77<215.888 285.572> 429 77<197.917 301.235>
VStem: 119 76<81.6396 423.935>
AnchorPoint: "top" 159 642 basechar 0
AnchorPoint: "bottom" 218 38 basechar 0
LayerCount: 2
Fore
SplineSet
126 425 m 1
 77 421 51 416 50 416 c 0
 43 416 39 420 39 427 c 0
 39 447 72 485 99 492 c 0
 124 498 195 506 257 506 c 0
 367 506 368 482 368 473 c 0
 368 446 324 407 302 407 c 0
 285 407 313 429 202 429 c 0
 201 429 200 429 199 429 c 0
 196 387 195 348 195 314 c 0
 195 155 217 75 245 75 c 0
 259 75 277 75 286 78 c 1
 303 100 325 112 338 112 c 0
 346 112 350 108 350 100 c 0
 350 93 345 82 337 71 c 0
 282 -1 231 -2 194 -2 c 2
 193 -2 l 2
 162 -2 119 22 119 259 c 0
 119 339 125 421 126 425 c 1
EndSplineSet
Validated: 1
EndChar

StartChar: phi
Encoding: 966 966 482
Width: 623
Flags: W
HStem: -14 67<310 391.219> 387 75<307.811 428.66>
VStem: 47 75<125.481 353.908> 224 75<-429.507 -23 66.0293 384.53> 260 74<-788.562 -172.384> 484 75<150.631 334.685>
AnchorPoint: "top" 280 646 basechar 0
AnchorPoint: "bottom" 261 -816 basechar 0
LayerCount: 2
Fore
SplineSet
299 231 m 0xf4
 299 185 302 123 306 53 c 1
 477 64 484 207 484 231 c 0
 484 308 435 385 316 387 c 1
 297 335 300 238 299 231 c 0xf4
246 462 m 0
 255 462 259 457 259 449 c 0
 259 439 251 423 237 409 c 0
 200 372 176 396 155 374 c 0
 123 343 122 261 122 260 c 0
 122 180 156 93 229 63 c 1
 229 64 224 170 224 185 c 0xf4
 224 252 229 320 250 370 c 0
 276 432 326 462 361 462 c 0
 494 462 559 380 559 282 c 0
 559 156 454 19 310 -14 c 1
 334 -423 334 -465 334 -554 c 0
 334 -661 327 -734 310 -777 c 0
 293 -822 258 -848 238 -848 c 0
 219 -848 221 -823 241 -800 c 1
 255 -766 260 -693 260 -601 c 0xec
 260 -434 244 -203 233 -23 c 1
 104 -21 47 101 47 209 c 0
 47 356 148 462 246 462 c 0
EndSplineSet
Validated: 1
EndChar

StartChar: chi
Encoding: 967 967 483
Width: 670
VWidth: 1748
Flags: W
HStem: -807 74<481.344 552.856>
VStem: 70 132<431.528 483.948> 564 74<-730.466 -457.3>
AnchorPoint: "top" 365.9 641 basechar 0
AnchorPoint: "bottom" 511.9 -771 basechar 0
LayerCount: 2
Fore
SplineSet
533 -733 m 0
 542 -733 550 -732 553 -731 c 0
 563 -710 564 -678 564 -664 c 0
 564 -437 365 -58 352 -34 c 1
 236 -327 127 -707 97 -762 c 0
 82 -790 56 -807 40 -807 c 0
 22 -807 22 -787 37 -766 c 1
 40 -758 228 -182 318 28 c 1
 185 259 70 358 70 416 c 0
 70 417 74 502 188 502 c 0
 197 502 202 496 202 488 c 0
 202 470 180 442 156 431 c 1
 158 428 308 223 364 129 c 1
 401 204 515 427 565 477 c 0
 581 494 598 502 609 502 c 0
 618 502 623 497 623 488 c 0
 623 475 612 456 595 442 c 1
 551 381 449 190 397 73 c 1
 516 -139 638 -442 638 -616 c 0
 638 -806 489 -807 487 -807 c 0
 478 -807 473 -801 473 -793 c 0
 473 -769 509 -733 533 -733 c 0
EndSplineSet
Validated: 1
EndChar

StartChar: psi
Encoding: 968 968 484
Width: 633
Flags: W
HStem: 444 20G<97.5 113.5 326.5 342.5 545 561>
VStem: 46 76<253.872 453.058> 275 76<100.563 453.058> 310 75<-761.56 -142.495> 493 76<207.004 453.058>
AnchorPoint: "top" 314 645 basechar 0
AnchorPoint: "bottom" 318 -783 basechar 0
LayerCount: 2
Fore
SplineSet
360 10 m 1xe8
 385 -395 385 -440 385 -527 c 0
 385 -634 378 -707 361 -750 c 0
 343 -795 308 -820 289 -820 c 0
 270 -820 272 -796 292 -773 c 1
 305 -739 310 -666 310 -574 c 0xd8
 310 -408 294 -178 284 2 c 1
 165 18 46 169 46 400 c 0
 46 424 85 464 110 464 c 0
 117 464 122 460 122 452 c 0
 122 280 193 151 279 100 c 1
 275 192 275 192 275 211 c 2
 275 400 l 2
 275 424 314 464 339 464 c 0
 346 464 351 460 351 452 c 2
 351 452 351 452 351 263 c 0
 351 261 350 259 350 256 c 0
 350 207 355 77 358 77 c 0
 384 77 406 85 420 99 c 0
 490 169 493 367 493 400 c 0
 493 424 533 464 557 464 c 0
 565 464 569 460 569 452 c 0
 569 120 425 33 360 10 c 1xe8
EndSplineSet
Validated: 1
EndChar

StartChar: .notdef
Encoding: 0 0 487
Width: 764
Flags: W
HStem: -4 74<156.974 602.786> 824 74<162 604.038>
VStem: 91 74<78.3073 815> 610 74<72.6561 817.85>
AnchorPoint: "top" 376 960 basechar 0
AnchorPoint: "bottom" 379 33 basechar 0
LayerCount: 2
Fore
SplineSet
81 825 m 0
 81 848 115 884 140 885 c 0
 144 885 356 898 511 898 c 0
 673 898 677 885 678 874 c 0
 682 837 684 745 684 635 c 0
 684 471 678 77 678 72 c 0
 678 61 670 46 657 33 c 0
 620 -4 507 -4 397 -4 c 0
 270 -4 130 3 90 12 c 0
 81 14 80 18 80 59 c 0
 80 164 91 430 91 626 c 0
 91 802 81 819 81 825 c 0
165 675 m 0
 165 514 154 183 154 96 c 0
 154 91 154 87 154 83 c 1
 201 76 332 70 450 70 c 0
 509 70 565 71 605 75 c 1
 610 468 610 468 610 588 c 0
 610 691 609 777 605 815 c 1
 585 822 531 824 466 824 c 0
 362 824 230 818 162 815 c 1
 165 775 165 722 165 675 c 0
EndSplineSet
Validated: 1
EndChar

StartChar: guilsinglleft
Encoding: 8249 8249 488
Width: 360
Flags: W
HStem: 638 332
VStem: 77 206
LayerCount: 2
Fore
SplineSet
283 958 m 0
 283 947 275 931 261 917 c 0
 240 896 195 844 165 810 c 1
 229 766 261 730 261 703 c 0
 261 676 218 638 196 638 c 0
 193 638 190 639 188 641 c 0
 182 646 187 649 180 662 c 0
 154 706 77 743 77 758 c 0
 77 767 83 780 94 793 c 0
 241 966 253 970 272 970 c 0
 282 970 283 962 283 958 c 0
EndSplineSet
Validated: 1
EndChar

StartChar: guilsinglright
Encoding: 8250 8250 489
Width: 356
Flags: W
HStem: 634 332
VStem: 75 206
LayerCount: 2
Fore
SplineSet
75 646 m 0
 75 657 84 673 98 687 c 0
 119 708 164 760 193 794 c 1
 130 838 98 874 98 901 c 0
 98 928 141 966 162 966 c 0
 166 966 169 965 171 963 c 0
 176 958 171 955 178 942 c 0
 204 898 281 861 281 846 c 0
 281 837 275 824 265 811 c 0
 171 701 115 634 87 634 c 0
 76 634 75 642 75 646 c 0
EndSplineSet
Validated: 1
EndChar

StartChar: uni2420
Encoding: 9248 9248 490
Width: 678
Flags: W
HStem: -56 157<78.4688 146.818 529 589.142> -40 76<150.506 522.873>
VStem: 72 76<22 90.9902> 519 76<27 91.1426>
LayerCount: 2
Fore
SplineSet
582 101 m 0xb0
 590 101 595 97 595 88 c 2
 595 7 l 2
 595 -18 555 -56 532 -56 c 0
 531 -56 530 -56 529 -56 c 0xb0
 529 -56 413 -40 283 -40 c 0x70
 151 -40 93 -56 84 -56 c 0
 76 -56 72 -52 72 -44 c 2
 72 37 l 2
 72 61 111 101 135 101 c 0xb0
 143 101 148 97 148 88 c 2
 148 22 l 1
 209 33 275 36 337 36 c 0x70
 408 36 473 32 519 27 c 1
 519 37 l 2
 519 62 558 101 582 101 c 0xb0
EndSplineSet
Validated: 1
EndChar

StartChar: perthousand
Encoding: 8240 8240 491
Width: 806
Flags: W
HStem: 50 81<351 444.965 566.5 660.303> 194 81<384.265 443.968 600.265 653.622> 307 81<113.5 207.303> 451 81<147.265 206.001>
VStem: 64 81<360.5 450.312> 208 82<389.355 479> 301 82<132.215 192.765> 446 81<132.355 222> 517 81<91.5 181.312> 661 82<120.981 210>
LayerCount: 2
Fore
SplineSet
62 -6 m 0xfe40
 62 2 67 14 77 26 c 0
 84 35 137 111 194 195 c 0
 436 549 466 589 501 589 c 0
 511 589 512 581 512 577 c 0
 512 567 504 552 491 538 c 0
 446 490 167 70 124 17 c 0
 108 -3 86 -17 73 -17 c 0
 63 -17 62 -10 62 -6 c 0xfe40
137 307 m 0
 90 307 64 340 64 381 c 0
 64 450 141 532 206 532 c 0
 257 532 290 501 290 457 c 0
 290 393 214 307 137 307 c 0
208 395 m 0
 208 449 148 451 146 451 c 1
 145 448 145 445 145 443 c 0
 145 415 164 388 199 388 c 0
 208 388 208 388 208 395 c 0
375 50 m 0
 327 50 301 83 301 124 c 0
 301 193 378 275 443 275 c 0
 495 275 527 244 527 200 c 0xff40
 527 136 451 50 375 50 c 0
446 138 m 0
 446 192 385 194 383 194 c 1
 383 191 383 189 383 186 c 0
 383 158 401 131 436 131 c 0
 446 131 446 131 446 138 c 0
590 39 m 0
 543 39 517 71 517 112 c 0xfec0
 517 181 594 263 659 263 c 0
 710 263 743 232 743 188 c 0
 743 124 667 39 590 39 c 0
661 126 m 0
 661 180 601 182 599 182 c 1
 598 179 598 177 598 174 c 0
 598 146 617 120 652 120 c 0
 661 120 661 120 661 126 c 0
EndSplineSet
Validated: 1
EndChar

StartChar: uni2031
Encoding: 8241 8241 492
Width: 1028
Flags: W
HStem: 50 81<351 444.965 569.5 663.303 787 880.965> 194 81<384.265 443.968 603.265 661.418 820.706 878.715> 307 81<113.5 207.303> 451 81<147.265 206.001>
VStem: 64 81<360.5 450.312> 208 82<389.355 479> 301 82<132.215 192.765> 446 81<132.355 222> 520 81<131.53 191.765> 664 82<131.355 221> 737 82<129.215 189.765> 882 81<129.355 219>
LayerCount: 2
Fore
SplineSet
593 49 m 0xfed0
 546 49 520 81 520 123 c 0
 520 192 597 274 662 274 c 0
 713 274 746 243 746 199 c 0
 746 135 670 49 593 49 c 0xfed0
664 136 m 0
 664 190 604 192 602 192 c 1
 602 190 601 187 601 185 c 0
 601 157 620 130 655 130 c 0
 664 130 664 130 664 136 c 0
62 -6 m 0
 62 2 67 14 77 26 c 0
 84 35 137 111 194 195 c 0
 436 549 466 589 501 589 c 0
 511 589 512 581 512 577 c 0
 512 567 504 552 491 538 c 0
 446 490 167 70 124 17 c 0
 108 -3 86 -17 73 -17 c 0
 63 -17 62 -10 62 -6 c 0
137 307 m 0
 90 307 64 340 64 381 c 0
 64 450 141 532 206 532 c 0
 257 532 290 501 290 457 c 0
 290 393 214 307 137 307 c 0
208 395 m 0
 208 449 148 451 146 451 c 1
 145 448 145 445 145 443 c 0
 145 415 164 388 199 388 c 0
 208 388 208 388 208 395 c 0
375 50 m 0
 327 50 301 83 301 124 c 0
 301 193 378 275 443 275 c 0
 495 275 527 244 527 200 c 0xff10
 527 136 451 50 375 50 c 0
446 138 m 0
 446 192 385 194 383 194 c 1
 383 191 383 189 383 186 c 0
 383 158 401 131 436 131 c 0
 446 131 446 131 446 138 c 0
811 47 m 0
 763 47 737 80 737 121 c 0xfe30
 737 190 815 272 879 272 c 0
 931 272 963 241 963 197 c 0
 963 133 887 47 811 47 c 0
882 135 m 0
 882 189 821 191 819 191 c 1
 819 188 819 185 819 183 c 0
 819 155 837 128 872 128 c 0
 882 128 882 128 882 135 c 0
EndSplineSet
Validated: 1
EndChar

StartChar: uni0292
Encoding: 658 658 513
Width: 483
Flags: W
HStem: -816 68<55.1543 179.06> 10 68<55.1543 183.949> 394 68<55.1543 364.997>
VStem: 362 69<-499.066 -161.71 306.964 431.5>
AnchorPoint: "top" 246 644 basechar 0
AnchorPoint: "bottom" 88 43 basechar 0
LayerCount: 2
Fore
SplineSet
60 -816 m 0
 48 -816 47 -806 47 -803 c 0
 47 -783 79 -748 103 -748 c 0
 280 -748 362 -503 362 -338 c 0
 362 -160 277 10 60 10 c 0
 48 10 47 20 47 23 c 0
 47 43 79 78 103 78 c 0
 225 78 365 310 365 376 c 0
 365 387 361 394 352 394 c 2
 60 394 l 2
 48 394 47 404 47 406 c 0
 47 427 79 462 103 462 c 2
 395 462 l 2
 421 462 432 445 432 418 c 0
 432 336 325 157 201 66 c 1
 361 23 431 -128 431 -294 c 0
 431 -563 258 -816 60 -816 c 0
EndSplineSet
Validated: 1
EndChar

StartChar: uni01B7
Encoding: 439 439 514
Width: 498
Flags: W
HStem: -12 68<63.1543 228.03> 397 68<63.1543 192.75> 788 68<63.1543 372.997>
VStem: 370 69<165.141 312.944 699.803 825.5>
AnchorPoint: "top" 253 959 basechar 0
AnchorPoint: "bottom" 86 20 basechar 0
LayerCount: 2
Fore
SplineSet
439 274 m 0
 439 151 290 -12 68 -12 c 0
 56 -12 55 -2 55 1 c 0
 55 21 87 56 111 56 c 0
 252 56 370 130 370 231 c 0
 370 313 287 397 68 397 c 0
 56 397 55 407 55 410 c 0
 55 430 87 465 111 465 c 0
 233 465 373 702 373 770 c 0
 373 781 369 788 360 788 c 2
 68 788 l 2
 56 788 55 798 55 800 c 0
 55 821 87 856 111 856 c 2
 403 856 l 2
 429 856 440 839 440 812 c 0
 440 729 336 551 215 458 c 1
 419 428 439 316 439 274 c 0
EndSplineSet
Validated: 1
EndChar

StartChar: uni01A2
Encoding: 418 418 522
Width: 909
Flags: W
HStem: -3 74<290.291 503.204> 790 73<310.131 480.384>
VStem: 49 74<248.569 550.172> 504 75<76.8029 496.75> 760 74<17.2956 635.896>
AnchorPoint: "top" 411 957 basechar 0
AnchorPoint: "bottom" 785 44 basechar 0
LayerCount: 2
Fore
SplineSet
123 392 m 0
 123 237 255 71 419 71 c 0
 450 71 479 77 504 88 c 1
 507 433 532 631 541 694 c 1
 539 696 l 1
 475 777 414 790 380 790 c 0
 258 790 123 615 123 392 c 0
426 863 m 0
 503 863 561 816 598 773 c 0
 601 773 603 774 606 774 c 0
 804 774 834 686 834 469 c 0
 834 465 828 153 828 89 c 0
 828 75 828 65 828 65 c 0
 828 41 791 3 767 3 c 0
 754 3 754 6 754 41 c 0
 754 105 760 417 760 421 c 0
 760 607 737 682 610 697 c 1
 598 607 580 413 579 105 c 0
 578 62 478 -3 371 -3 c 0
 192 -3 49 171 49 345 c 0
 49 644 270 863 426 863 c 0
EndSplineSet
Validated: 1
EndChar

StartChar: uni01A3
Encoding: 419 419 523
Width: 817
Flags: W
HStem: -13 74<204.695 428.612> 406 75<179.43 452.652>
VStem: 48 74<145.495 350.791> 493 74<121.25 366.071> 665 77<8.94156 317.297>
AnchorPoint: "top" 375 642 basechar 0
AnchorPoint: "bottom" 291 27 basechar 0
LayerCount: 2
Fore
SplineSet
742 62 m 0
 742 38 702 -2 677 -2 c 0
 667 -2 665 5 665 10 c 0
 665 260 651 347 556 382 c 1
 565 357 567 332 567 283 c 0
 567 31 382 -13 250 -13 c 0
 154 -13 48 83 48 206 c 0
 48 245 52 330 123 401 c 0
 200 478 293 481 375 481 c 0
 713 481 742 440 742 62 c 0
282 406 m 0
 156 403 122 357 122 253 c 0
 122 147 221 61 297 61 c 0
 320 61 421 63 460 102 c 0
 482 123 493 169 493 239 c 0
 493 330 484 396 332 405 c 0
 283 405 283 405 282 406 c 0
EndSplineSet
Validated: 1
EndChar

StartChar: uni0195
Encoding: 405 405 524
Width: 969
Flags: W
HStem: -10 74<570.033 716.232> 399 74<302.561 432.116>
VStem: 90 74<225.245 813.905> 839 74<220.181 463.686>
AnchorPoint: "top" 539 958 basechar 0
AnchorPoint: "bottom" 549 27 basechar 0
LayerCount: 2
Fore
SplineSet
90 576 m 0
 90 809 74 812 74 814 c 0
 74 837 113 874 134 874 c 0
 164 874 164 732 164 623 c 0
 164 494 159 339 155 223 c 1
 237 426 337 473 414 473 c 0
 605 473 542 79 583 64 c 1
 690 64 839 64 839 412 c 0
 839 436 875 473 900 473 c 0
 908 473 913 469 913 460 c 0
 913 320 888 180 791 83 c 0
 699 -10 598 -10 534 -10 c 0
 449 -10 536 399 366 399 c 0
 323 399 303 379 296 372 c 0
 232 308 188 133 145 38 c 0
 135 10 104 -10 87 -10 c 0
 79 -10 74 -6 74 3 c 0
 74 8 90 315 90 576 c 0
EndSplineSet
Validated: 1
EndChar

StartChar: uni01F6
Encoding: 502 502 525
Width: 965
Flags: W
HStem: -13 75<476.5 684.786> 379 62<372.101 434> 406 76<514.67 679.275>
VStem: 90 74<201 811.905> 433 76<69.875 379 464 799.949> 468 76<473.452 852.147> 837 75<238.389 471.686>
AnchorPoint: "top" 507 959 basechar 0
AnchorPoint: "bottom" 519 32 basechar 0
LayerCount: 2
Fore
SplineSet
502 -13 m 0xba
 451 -13 433 109 433 284 c 0xba
 433 315 433 347 434 379 c 1
 325 344 206 268 148 44 c 0
 140 12 104 -13 85 -13 c 0
 78 -13 73 -9 73 -1 c 0
 73 5 90 283 90 574 c 0
 90 807 74 810 74 812 c 0
 74 836 112 872 134 872 c 0
 164 872 164 730 164 621 c 0
 164 485 159 319 154 201 c 1
 256 369 399 426 437 441 c 1
 445 605 463 760 468 802 c 0
 471 827 509 863 532 863 c 0
 539 863 544 859 544 851 c 0xd6
 544 846 520 666 512 464 c 1
 569 478 624 482 678 482 c 0
 686 482 690 478 690 470 c 0
 690 446 651 406 626 406 c 0
 583 406 545 403 510 397 c 1
 509 377 509 358 509 339 c 0
 509 157 529 86 548 68 c 0
 553 62 557 64 561 62 c 0
 603 63 696 66 754 124 c 0
 827 197 837 342 837 420 c 0
 837 444 874 481 899 481 c 0
 906 481 912 477 912 468 c 0
 912 42 641 -13 502 -13 c 0xba
EndSplineSet
Validated: 1
EndChar

